<?xml version="1.0" encoding="UTF-8"?>
<svg version="1.1" xmlns="http://www.w3.org/2000/svg" width="512" height="512">
<path d="M0 0 C20.1921489 25.24018612 25.35728788 65.23048223 26.625 96.625 C26.6765625 97.718125 26.728125 98.81125 26.78125 99.9375 C26.84699219 101.53464844 26.84699219 101.53464844 26.9140625 103.1640625 C26.9752124 104.59419678 26.9752124 104.59419678 27.03759766 106.05322266 C27 109 27 109 26 116 C32.27 116 38.54 116 45 116 C44.96519531 114.6903125 44.93039062 113.380625 44.89453125 112.03125 C44.57771839 94.40077785 46.33866597 77.24916032 50 60 C53.80931176 58.73022941 55.81618993 59.47925493 59.6875 60.4375 C60.86699219 60.72496094 62.04648437 61.01242188 63.26171875 61.30859375 C64.16535156 61.53675781 65.06898438 61.76492187 66 62 C65.44673381 68.02327888 64.74314575 74.00525343 63.89575195 79.99389648 C62.207494 92.01791749 61.41847228 103.86430383 61 116 C68.92 116 76.84 116 85 116 C85.3403125 111.9471875 85.3403125 111.9471875 85.6875 107.8125 C87.40440372 90.96490622 94.75586886 76.694715 107 65 C110.21307606 62.45631479 113.524892 60.16906575 117 58 C118.26070313 57.13181641 118.26070313 57.13181641 119.546875 56.24609375 C122 55 122 55 124.140625 55.01171875 C126.79951595 56.42495281 127.47138516 58.11714834 128.75 60.8125 C129.39195312 62.12154297 129.39195312 62.12154297 130.046875 63.45703125 C131 66 131 66 131 70 C129.05859375 71.4921875 129.05859375 71.4921875 126.4375 72.875 C114.50607644 79.64734323 108.04423465 88.55007493 103.82421875 101.6875 C102.65004789 106.4064426 101.86988912 111.21560983 101 116 C110.9 116 120.8 116 131 116 C131.33 112.7 131.66 109.4 132 106 C136.98389218 92.46576069 147.40171438 82.60535114 160 76 C160.66 76 161.32 76 162 76 C163.76171875 78.51953125 163.76171875 78.51953125 165.6875 81.8125 C166.65236328 83.43091797 166.65236328 83.43091797 167.63671875 85.08203125 C169 88 169 88 168 91 C165.9609375 92.54296875 165.9609375 92.54296875 163.375 94.1875 C154.44841268 100.28308391 151.1771451 105.55713725 147 116 C179.34 116 211.68 116 245 116 C245 148.23934291 241.53859037 178.78623446 230 209 C222.575 206.525 222.575 206.525 215 204 C215.99577411 199.02112946 217.22074621 194.20577769 218.7265625 189.35449219 C224.01550235 172.18933349 226.53642823 154.91775263 227.76635742 137.02685547 C228 135 228 135 229 132 C106.57 132.33 -15.86 132.66 -142 133 C-145.63 140.92 -149.26 148.84 -153 157 C-157.88021201 156.18663133 -159.9117976 155.77939233 -163.875 153.4375 C-164.65617187 152.98246094 -165.43734375 152.52742187 -166.2421875 152.05859375 C-167.11230469 151.53458984 -167.11230469 151.53458984 -168 151 C-167.36853014 146.82087046 -165.95184172 143.49620959 -164.09375 139.7109375 C-163.66660706 138.83328232 -163.66660706 138.83328232 -163.23083496 137.93789673 C-162.32596642 136.08089547 -161.41339578 134.22781973 -160.5 132.375 C-159.2994507 129.92575272 -158.10259498 127.4747457 -156.90625 125.0234375 C-156.37322266 123.93981934 -155.84019531 122.85620117 -155.29101562 121.73974609 C-153.93496546 119.00211135 -153.93496546 119.00211135 -153 116 C-125.28 116 -97.56 116 -69 116 C-72.12626604 107.75794119 -72.12626604 107.75794119 -76.4375 100.75 C-77.035625 99.93273437 -77.63375 99.11546875 -78.25 98.2734375 C-80.42773885 95.4443214 -82.65904638 92.69564356 -85 90 C-83.52278578 86.54798361 -81.56205999 84.35038064 -78.875 81.75 C-78.15054688 81.04359375 -77.42609375 80.3371875 -76.6796875 79.609375 C-76.12539062 79.07828125 -75.57109375 78.5471875 -75 78 C-70.88445701 79.53621651 -68.68896124 82.47558518 -66.125 85.875 C-65.68736328 86.45000244 -65.24972656 87.02500488 -64.79882812 87.61743164 C-58.66592011 95.89617804 -53 105.51091653 -53 116 C-45.08 116 -37.16 116 -29 116 C-35.60609598 82.14737564 -35.60609598 82.14737564 -57 56 C-56.39665691 52.29496359 -54.77525763 50.14031852 -52.4375 47.25 C-51.79683594 46.45078125 -51.15617187 45.6515625 -50.49609375 44.828125 C-50.00238281 44.22484375 -49.50867188 43.6215625 -49 43 C-40.52902705 44.55207672 -34.89550429 53.1568314 -30.16796875 59.70703125 C-18.92511236 76.78401852 -14.28864594 95.81121368 -13 116 C-5.41 116 2.18 116 10 116 C10.18323031 93.92907599 8.19450463 72.46959459 3 51 C2.80535156 50.19498047 2.61070312 49.38996094 2.41015625 48.56054688 C-0.73467157 35.99207981 -5.74514267 24.13765315 -11.7421875 12.66796875 C-13 10 -13 10 -13 7 C-8.71 4.69 -4.42 2.38 0 0 Z " fill="#000000" transform="translate(230,92)"/>
<path d="M0 0 C23.43 0 46.86 0 71 0 C82.49691358 21.8441358 82.49691358 21.8441358 86.625 30.1875 C88.790625 34.5496875 88.790625 34.5496875 91 39 C98.59 39.33 106.18 39.66 114 40 C114 58.48 114 76.96 114 96 C109.05 96 104.1 96 99 96 C99.061875 98.454375 99.12375 100.90875 99.1875 103.4375 C99.24911947 111.26554291 98.57358694 117.86513131 93.75 124.3125 C88.59521143 129.35013428 83.0542786 132.06187378 75.8125 132.3125 C69.59069408 132.20011927 64.56839629 130.34335585 59.94921875 126.12890625 C53.75733753 119.34732206 52.70224393 114.16699348 52.875 105.1875 C52.91625 102.155625 52.9575 99.12375 53 96 C41.78 96 30.56 96 19 96 C19 101.28 19 106.56 19 112 C17.39910458 118.90912762 15.24768347 124.02184889 9.26171875 128.21875 C3.30133536 131.79242741 -2.14974868 132.75869557 -9 132 C-16.14407807 130.12751209 -20.91297437 126.07959215 -25 120 C-27.6254282 115.25170082 -27.22722206 110.45979912 -27.125 105.1875 C-27.11597656 104.30384766 -27.10695313 103.42019531 -27.09765625 102.50976562 C-27.07419637 100.33972641 -27.03832865 98.16982753 -27 96 C-31.95 96 -36.9 96 -42 96 C-42 77.52 -42 59.04 -42 40 C-34.41 40 -26.82 40 -19 40 C-18.34 38.02 -17.68 36.04 -17 34 C-16.43570696 32.71821561 -15.84248346 31.44851194 -15.21240234 30.19775391 C-14.86749756 29.50818604 -14.52259277 28.81861816 -14.16723633 28.1081543 C-13.81040771 27.404729 -13.4535791 26.70130371 -13.0859375 25.9765625 C-12.58767456 24.98305786 -12.58767456 24.98305786 -12.0793457 23.96948242 C-10.84896468 21.51910689 -9.61157744 19.07225436 -8.375 16.625 C-5.61125 11.13875 -2.8475 5.6525 0 0 Z M11 16 C4.57802823 27.80520061 4.57802823 27.80520061 -1 40 C23.09 40 47.18 40 72 40 C69.2171158 31.65134741 64.93559257 23.87118514 61 16 C44.5 16 28 16 11 16 Z M-26 56 C-26 63.92 -26 71.84 -26 80 C14.92 80 55.84 80 98 80 C98 72.08 98 64.16 98 56 C57.08 56 16.16 56 -26 56 Z M-11 96 C-11.13526616 98.5850867 -11.23417653 101.16308752 -11.3125 103.75 C-11.35439453 104.47960937 -11.39628906 105.20921875 -11.43945312 105.9609375 C-11.52842007 109.87548304 -11.37811387 111.59138282 -8.67578125 114.51171875 C-6.05494668 116.24301124 -6.05494668 116.24301124 -2.875 116.0625 C0.8249749 114.69511797 1.36538551 113.54725726 3 110 C3.36118491 106.41771784 3.36118491 106.41771784 3.1875 102.6875 C3.125625 100.480625 3.06375 98.27375 3 96 C-1.62 96 -6.24 96 -11 96 Z M69 96 C68.86473384 98.5850867 68.76582347 101.16308752 68.6875 103.75 C68.64560547 104.47960937 68.60371094 105.20921875 68.56054688 105.9609375 C68.47157993 109.87548304 68.62188613 111.59138282 71.32421875 114.51171875 C73.94505332 116.24301124 73.94505332 116.24301124 77.125 116.0625 C80.8249749 114.69511797 81.36538551 113.54725726 83 110 C83.36118491 106.41771784 83.36118491 106.41771784 83.1875 102.6875 C83.125625 100.480625 83.06375 98.27375 83 96 C78.38 96 73.76 96 69 96 Z " fill="#000000" transform="translate(42,50)"/>
<path d="M0 0 C1.34493898 2.68646826 2.50324267 5.30183834 3.609375 8.0859375 C4.10597626 9.30502304 4.10597626 9.30502304 4.61260986 10.54873657 C5.31048004 12.26988413 6.00277828 13.99329976 6.68994141 15.71875 C7.74532822 18.36329366 8.82240482 20.99821456 9.90234375 23.6328125 C10.57684053 25.30415552 11.25006086 26.97601436 11.921875 28.6484375 C12.24573181 29.43914642 12.56958862 30.22985535 12.90325928 31.04452515 C15.11514889 36.65455334 15.11514889 36.65455334 14 40 C11.63304613 41.03865096 9.38444505 41.89577096 6.9375 42.6875 C6.27427734 42.91244141 5.61105469 43.13738281 4.92773438 43.36914062 C3.28869793 43.92334719 1.64477407 44.46306085 0 45 C-3.40295088 37.78964916 -6.39132352 30.5345572 -9 23 C-12.97000674 24.46603178 -16.48494807 26.34536371 -20.12890625 28.4921875 C-20.71214661 28.83465012 -21.29538696 29.17711273 -21.89630127 29.529953 C-23.78709774 30.64150579 -25.67485081 31.75811229 -27.5625 32.875 C-28.86339969 33.64140807 -30.16442591 34.4076014 -31.46557617 35.17358398 C-42.01277353 41.38934911 -52.52156262 47.66902328 -63 54 C-60.43572164 55.70951891 -58.62887668 56.58701532 -55.7734375 57.55297852 C-54.91898544 57.84439224 -54.06453339 58.13580597 -53.18418884 58.43605042 C-52.25715652 58.74719284 -51.33012421 59.05833527 -50.375 59.37890625 C-49.40772476 59.70733017 -48.44044952 60.03575409 -47.44386292 60.37413025 C-44.2973432 61.44121139 -41.14872997 62.50196054 -38 63.5625 C-35.85397748 64.288744 -33.70806281 65.01530681 -31.56225586 65.7421875 C-16.39092495 70.87660734 -1.20365483 75.96210254 14 81 C11.03 73.41 8.06 65.82 5 58 C10.42221886 55.28889057 14.34493701 53.41376575 20 52 C23.18395975 58.12431332 25.82573981 64.34360584 28.328125 70.7734375 C28.91892853 72.28087021 28.91892853 72.28087021 29.52166748 73.8187561 C30.34701497 75.92744204 31.17049367 78.03686031 31.9921875 80.14697266 C33.2550191 83.38788092 34.52554476 86.62569872 35.796875 89.86328125 C36.59941719 91.91648737 37.40151646 93.96986668 38.203125 96.0234375 C38.77489471 97.47959976 38.77489471 97.47959976 39.35821533 98.96517944 C39.7056781 99.86016144 40.05314087 100.75514343 40.41113281 101.67724609 C40.71883606 102.46586029 41.02653931 103.25447449 41.34356689 104.06698608 C42 106 42 106 42 108 C36.45044957 107.42389687 31.73970503 105.97901452 26.5625 103.9375 C25.83095703 103.65583984 25.09941406 103.37417969 24.34570312 103.08398438 C22.56126454 102.39586753 20.78026095 101.69885394 19 101 C18.62282837 102.86954346 18.62282837 102.86954346 18.23803711 104.77685547 C16.95914152 110.51659987 15.09974042 116.01376867 13.19140625 121.5703125 C12.8240184 122.6507785 12.45663055 123.73124451 12.07810974 124.8444519 C11.3045866 127.11598806 10.52875497 129.38673928 9.75073242 131.65673828 C8.56438996 135.1194835 7.38612731 138.58489929 6.20898438 142.05078125 C5.45360067 144.26578727 4.69775688 146.48063646 3.94140625 148.6953125 C3.59130997 149.72463898 3.24121368 150.75396545 2.88050842 151.81448364 C1.10751812 156.97642324 -0.76499611 162.01988034 -3 167 C-13.54253086 164.40668249 -23.74344005 160.77554661 -34 157.25 C-35.92687468 156.59019799 -37.85379604 155.93053228 -39.78076172 155.27099609 C-53.90941963 150.42924344 -68.02097063 145.53798366 -82.125 140.625 C-83.06794922 140.29681274 -84.01089844 139.96862549 -84.98242188 139.63049316 C-87.63729657 138.70582826 -90.29144933 137.77912601 -92.9453125 136.8515625 C-93.73592072 136.57621674 -94.52652893 136.30087097 -95.34109497 136.0171814 C-100.76865499 134.1156725 -100.76865499 134.1156725 -103 133 C-101.53592785 125.67772295 -99.36310424 118.75984043 -96.9375 111.703125 C-96.54554443 110.55132751 -96.15358887 109.39953003 -95.74975586 108.21282959 C-94.9249037 105.79168406 -94.09779707 103.37130555 -93.26855469 100.95166016 C-91.99977262 97.24933651 -90.73756121 93.54482477 -89.4765625 89.83984375 C-88.67225416 87.48164148 -87.86757933 85.12356417 -87.0625 82.765625 C-86.68536865 81.66035461 -86.3082373 80.55508423 -85.91967773 79.4163208 C-85.56591064 78.38464783 -85.21214355 77.35297485 -84.84765625 76.29003906 C-84.53836182 75.38674866 -84.22906738 74.48345825 -83.91040039 73.55279541 C-83.00255449 71.00716288 -82.0203194 68.50242977 -81 66 C-81.64324219 65.89816406 -82.28648437 65.79632813 -82.94921875 65.69140625 C-87.02972077 64.76663178 -90.88149915 63.35766879 -94.8125 61.9375 C-95.60076172 61.65583984 -96.38902344 61.37417969 -97.20117188 61.08398438 C-99.13522289 60.39241462 -101.06776488 59.69662722 -103 59 C-100.14799957 55.92473059 -97.34077221 53.8458123 -93.6953125 51.78515625 C-92.64883545 51.18848145 -91.6023584 50.59180664 -90.52416992 49.97705078 C-89.40244385 49.34524902 -88.28071777 48.71344727 -87.125 48.0625 C-85.34737722 47.05115303 -83.57121105 46.03728128 -81.79515076 45.02319336 C-80.59287304 44.336801 -79.39020354 43.65109444 -78.18714905 42.96606445 C-72.82053008 39.90794341 -67.49796712 36.77932259 -62.1875 33.625 C-52.33776297 27.7851809 -42.47198338 21.97318451 -32.58520508 16.19628906 C-31.97913925 15.84213928 -31.37307343 15.4879895 -30.74864197 15.12310791 C-29.54544787 14.42003173 -28.34221146 13.71702796 -27.13893127 13.01409912 C-23.42541315 10.84206261 -19.72652859 8.64692537 -16.03515625 6.4375 C-15.15239014 5.91365723 -14.26962402 5.38981445 -13.36010742 4.85009766 C-11.74995372 3.89435066 -10.14431433 2.93094027 -8.54418945 1.95849609 C-3.33853613 -1.11284538 -3.33853613 -1.11284538 0 0 Z M-66 72 C-68.42538168 78.94022944 -70.84597075 85.88211655 -73.26318359 92.82519531 C-74.08661542 95.18853893 -74.91115687 97.55149624 -75.73681641 99.9140625 C-76.92119371 103.30368494 -78.10161568 106.69466199 -79.28125 110.0859375 C-79.65310425 111.14743011 -80.0249585 112.20892273 -80.40808105 113.30258179 C-80.74843384 114.28344757 -81.08878662 115.26431335 -81.43945312 116.27490234 C-81.7414563 117.14094086 -82.04345947 118.00697937 -82.35461426 118.89926147 C-83.09789069 120.95236194 -83.09789069 120.95236194 -83 123 C-81.23358317 123.6987693 -79.46167336 124.38366583 -77.6875 125.0625 C-76.70136719 125.44535156 -75.71523438 125.82820313 -74.69921875 126.22265625 C-71.93766737 127.29389848 -71.93766737 127.29389848 -69 126 C-68.04628969 124.12856954 -68.04628969 124.12856954 -67.421875 121.80859375 C-67.15181641 120.94935303 -66.88175781 120.0901123 -66.60351562 119.20483398 C-66.32185547 118.29161377 -66.04019531 117.37839355 -65.75 116.4375 C-62.77077372 107.40533076 -60.07032478 101.18138025 -51.8125 96 C-43.3656982 93.78444543 -35.82902075 94.0365237 -28.1328125 98.3671875 C-23.45604349 101.9475711 -20.56078355 107.24487978 -19.69140625 113.06640625 C-19.2993376 120.65828102 -21.33919155 126.87129456 -23.95336914 133.89282227 C-24.22785889 134.63975342 -24.50234863 135.38668457 -24.78515625 136.15625 C-25.04176025 136.82462891 -25.29836426 137.49300781 -25.56274414 138.18164062 C-26.22179257 140.21673518 -26.22179257 140.21673518 -25 143 C-22.21473551 144.25325285 -22.21473551 144.25325285 -18.9375 145.1875 C-17.28041016 145.70376953 -17.28041016 145.70376953 -15.58984375 146.23046875 C-14.73519531 146.48441406 -13.88054687 146.73835938 -13 147 C-10.89309076 141.04349154 -8.79438456 135.08413803 -6.70117188 129.12280273 C-5.98916046 127.09806065 -5.27532121 125.07396031 -4.55957031 123.05053711 C-3.52700274 120.13044177 -2.50118083 117.20804892 -1.4765625 114.28515625 C-0.99988632 112.94397484 -0.99988632 112.94397484 -0.51358032 111.57569885 C1.39857786 106.09575054 2.84549173 100.68935624 4 95 C3.32285446 94.770849 2.64570892 94.541698 1.94804382 94.30560303 C-4.47990415 92.13009239 -10.90744457 89.95338148 -17.33454609 87.77537155 C-20.63760721 86.65607911 -23.94081611 85.53722727 -27.24438477 84.41943359 C-31.05531397 83.129947 -34.86556003 81.8384521 -38.67578125 80.546875 C-39.84393875 80.15191833 -41.01209625 79.75696167 -42.21565247 79.35003662 C-48.44114841 77.23792721 -54.62631337 75.05781109 -60.76921082 72.71514893 C-63.08569538 71.84736116 -63.08569538 71.84736116 -66 72 Z M-47.015625 112.09375 C-49.22575888 115.33063899 -50.46788308 118.36256383 -51.75 122.0625 C-52.17796875 123.27035156 -52.6059375 124.47820312 -53.046875 125.72265625 C-54.18616853 129.07129074 -54.18616853 129.07129074 -54 133 C-52.2097939 133.67057887 -50.41778511 134.3363469 -48.625 135 C-47.62726563 135.37125 -46.62953125 135.7425 -45.6015625 136.125 C-43.14151939 137.10626277 -43.14151939 137.10626277 -41 137 C-39.99064871 134.1071271 -38.99231256 131.21121485 -38 128.3125 C-37.57074219 127.08756836 -37.57074219 127.08756836 -37.1328125 125.83789062 C-35.09120619 120.05898101 -35.09120619 120.05898101 -35 114 C-37.13092777 110.96752586 -38.34069266 110.12362013 -42 109.4375 C-45.12327351 109.72277908 -45.12327351 109.72277908 -47.015625 112.09375 Z " fill="#000000" transform="translate(470,1)"/>
<path d="M0 0 C3.84172903 0.70079892 6.83839253 1.75596411 10.3125 3.5625 C11.19550781 4.01753906 12.07851562 4.47257812 12.98828125 4.94140625 C13.65214844 5.29074219 14.31601563 5.64007813 15 6 C13.5425261 10.71980834 11.62039394 15.11455405 9.48828125 19.55859375 C8.80577851 21.01066281 8.12416456 22.46314989 7.44335938 23.91601562 C6.3784041 26.18233286 5.30856615 28.44568076 4.22338867 30.70239258 C3.17049262 32.89721896 2.14028962 35.1015589 1.11328125 37.30859375 C0.78628738 37.97547714 0.45929352 38.64236053 0.12239075 39.32945251 C-2.00122348 43.95907196 -2.47887009 47.10735996 -1 52 C2.26918757 56.24296467 5.06934797 57.72397663 10.234375 58.87890625 C11.44134033 59.15855225 12.64830566 59.43819824 13.8918457 59.72631836 C15.16503662 60.0022583 16.43822754 60.27819824 17.75 60.5625 C19.05923144 60.859681 20.36806998 61.15859812 21.67651367 61.45922852 C24.2589033 62.05007599 26.84298294 62.62982538 29.42919922 63.20410156 C34.06769973 64.23798039 38.68992979 65.33510815 43.3125 66.4375 C45.54112548 66.96068656 47.77050298 67.48053687 50 68 C52.52276603 81.44580616 54.44926402 95.29744751 54 109 C71.61090535 105.89499849 71.61090535 105.89499849 87.984375 99.05078125 C89.98893231 98.00576978 91.79322439 97.4522896 94 97 C95.50893816 98.59576199 97.00691076 100.20189911 98.5 101.8125 C99.3353125 102.70582031 100.170625 103.59914063 101.03125 104.51953125 C103 107 103 107 103 110 C88.5254916 119.24441662 74.02912809 123.33922623 57 125 C58.57302527 142.18588802 63.76337313 156.3846377 77.15625 167.921875 C88.36681774 176.11421297 100.23137914 178.29131712 113.76196289 178.31884766 C114.90444489 178.32889328 116.04692688 178.3389389 117.22402954 178.34928894 C120.97356699 178.38000414 124.72303342 178.39712377 128.47265625 178.4140625 C131.0829682 178.4327835 133.69327416 178.45235761 136.30357361 178.4727478 C142.45499319 178.51936851 148.60643007 178.55619294 154.75793499 178.58942068 C161.76653072 178.62776082 168.77503543 178.67713944 175.7835542 178.72740483 C190.18896678 178.83047586 204.59444444 178.91942478 219 179 C219 184.28 219 189.56 219 195 C189.96 195 160.92 195 131 195 C131 215.13 131 235.26 131 256 C125.72 256 120.44 256 115 256 C115 235.87 115 215.74 115 195 C110.38 195 105.76 195 101 195 C83.71802754 192.94620037 67.18373495 184.41252199 56 171 C45.98703598 157.5727794 41.56547475 144.03081447 39.875 127.375 C39.7172923 125.94588172 39.55808698 124.51692799 39.39746094 123.08813477 C38.9921947 119.44753892 38.60685567 115.80514579 38.22717285 112.1618042 C37.8580933 108.64959872 37.4712581 105.13936015 37.0859375 101.62890625 C36.37214301 95.08782022 35.67768008 88.54492176 35 82 C33.48817139 81.68361572 33.48817139 81.68361572 31.94580078 81.36083984 C28.15830076 80.56305396 24.37643821 79.74082216 20.59570312 78.91162109 C18.9678797 78.55806814 17.33865443 78.21090001 15.70800781 77.87060547 C3.86673386 75.3933819 -7.6547383 72.90771424 -14.8125 62.19140625 C-18.88511477 54.67582439 -20.1251177 47.31831786 -18 39 C-15.77667381 32.81211212 -12.8461977 26.91830187 -10 21 C-9.08088097 19.05783562 -8.16294921 17.115109 -7.24609375 15.171875 C-4.8498649 10.10532087 -2.43232035 5.04931688 0 0 Z " fill="#000000" transform="translate(55,256)"/>
<path d="M0 0 C3.14937774 2.66139526 4.72305239 6.04620587 6.50390625 9.6796875 C6.98983498 10.65435471 6.98983498 10.65435471 7.48558044 11.64871216 C8.16824992 13.02075917 8.84804531 14.39423948 9.52514648 15.76904297 C10.55682136 17.86347165 11.59691138 19.95354125 12.63867188 22.04296875 C13.30258099 23.37996133 13.96600837 24.71719325 14.62890625 26.0546875 C14.93727921 26.67568329 15.24565216 27.29667908 15.56336975 27.93649292 C16.85215293 30.55668583 18.02007463 33.06411602 18.89404297 35.85546875 C19.81074963 38.21117171 19.81074963 38.21117171 22.25219727 38.88720703 C23.18088623 39.00950684 24.1095752 39.13180664 25.06640625 39.2578125 C26.62016968 39.48162598 26.62016968 39.48162598 28.20532227 39.70996094 C29.86712524 39.91540527 29.86712524 39.91540527 31.5625 40.125 C33.83349878 40.44413741 36.10433191 40.76445571 38.375 41.0859375 C39.49648438 41.23772461 40.61796875 41.38951172 41.7734375 41.54589844 C46.22382709 42.17223959 50.64182545 42.94324747 55.0625 43.75 C56.42838281 43.99480621 57.79426793 44.23959955 59.16015625 44.484375 C60.09730469 44.65453125 61.03445313 44.8246875 62 45 C60.40584497 48.91209308 57.86106668 51.37218086 54.875 54.3125 C54.13576294 55.04206909 54.13576294 55.04206909 53.3815918 55.78637695 C50.59954801 58.51056507 47.76014613 61.14420295 44.8125 63.6875 C44.19246094 64.23921875 43.57242188 64.7909375 42.93359375 65.359375 C41 67 41 67 38.66015625 68.640625 C36.12850991 70.63132127 34.55952884 72.17170194 33 75 C32.72110692 79.6519366 33.53718191 83.96022732 34.48535156 88.48681641 C35.27746842 92.354962 35.92399207 96.24672043 36.58886719 100.13842773 C36.94197642 102.18777982 37.30437953 104.2355556 37.67675781 106.28149414 C37.84788086 107.22500732 38.01900391 108.16852051 38.1953125 109.140625 C38.35016113 109.98141602 38.50500977 110.82220703 38.66455078 111.68847656 C39 114 39 114 39 118 C34.99084432 116.74725365 31.34476283 115.27453534 27.62890625 113.3203125 C26.64212891 112.80339844 25.65535156 112.28648438 24.63867188 111.75390625 C23.1159668 110.94759766 23.1159668 110.94759766 21.5625 110.125 C20.55123047 109.59519531 19.53996094 109.06539063 18.49804688 108.51953125 C17.50998047 108.00003906 16.52191406 107.48054688 15.50390625 106.9453125 C14.55016113 106.44418945 13.59641602 105.94306641 12.61376953 105.42675781 C10.39225302 104.21411607 8.28284555 102.91647568 6.15234375 101.5546875 C2.31775563 99.66352756 1.08802494 99.98093368 -3 101 C-5.28874095 102.02290577 -7.53889721 103.13453824 -9.75390625 104.30859375 C-10.68891212 104.79876732 -10.68891212 104.79876732 -11.64280701 105.29884338 C-13.62028792 106.33722639 -15.59155869 107.38676559 -17.5625 108.4375 C-19.53804628 109.48255457 -21.51482739 110.52518917 -23.49290466 111.56544495 C-25.28614279 112.50974548 -27.07591015 113.46062838 -28.86547852 114.41186523 C-31.54299426 115.76845375 -34.193274 116.94398782 -37 118 C-37.10563149 113.24658301 -36.76954829 108.89118598 -35.90625 104.21875 C-35.68066406 102.96449219 -35.45507812 101.71023437 -35.22265625 100.41796875 C-34.74088542 97.80598958 -34.25911458 95.19401042 -33.77734375 92.58203125 C-33.55175781 91.32777344 -33.32617188 90.07351562 -33.09375 88.78125 C-32.88427734 87.64751953 -32.67480469 86.51378906 -32.45898438 85.34570312 C-31.25709139 79.09357185 -31.25709139 79.09357185 -33.13000488 73.27505493 C-34.78599238 71.40317949 -36.52550997 69.68733788 -38.34375 67.97265625 C-39.30927795 67.02198524 -39.30927795 67.02198524 -40.29431152 66.05210876 C-42.34699156 64.03850503 -44.42267887 62.05064199 -46.5 60.0625 C-47.89872632 58.6988956 -49.29588162 57.33367773 -50.69140625 55.96679688 C-54.10967982 52.62555927 -57.54879306 49.30719565 -61 46 C-57.33620513 43.78632256 -53.51260608 43.29410934 -49.34765625 42.7109375 C-48.61050888 42.60278717 -47.87336151 42.49463684 -47.11387634 42.38320923 C-45.55857035 42.15648656 -44.00277224 41.93311769 -42.4465332 41.71289062 C-40.07314616 41.37650889 -37.70159539 41.02898265 -35.33007812 40.6796875 C-33.81519978 40.46027634 -32.30022859 40.24150505 -30.78515625 40.0234375 C-30.0798024 39.92034271 -29.37444855 39.81724792 -28.64772034 39.71102905 C-25.07026067 39.20905919 -21.61309821 38.88521502 -18 39 C-17.74621582 38.17097168 -17.49243164 37.34194336 -17.23095703 36.48779297 C-15.84662193 32.56541866 -14.13745019 28.92316714 -12.3046875 25.1953125 C-11.95238068 24.4713327 -11.60007385 23.74735291 -11.23709106 23.00143433 C-10.1198625 20.70757882 -8.99752003 18.41626996 -7.875 16.125 C-7.11294109 14.56266588 -6.35121881 13.0001675 -5.58984375 11.4375 C-3.7304519 7.62308866 -1.86647202 3.81095153 0 0 Z M0 37 C-0.35707031 38.12019531 -0.71414063 39.24039063 -1.08203125 40.39453125 C-5.3070665 51.73704642 -5.3070665 51.73704642 -10.24365234 54.05224609 C-15.75053395 55.53548413 -21.31839269 55.86254176 -27 56 C-22.60336819 61.42255939 -22.60336819 61.42255939 -17 65.5 C-15.21484375 66.93359375 -15.21484375 66.93359375 -14 69 C-14.0044467 73.0242677 -14.54812778 76.48855384 -15.31640625 80.44140625 C-15.89003297 83.42754307 -16.13332419 85.97991731 -16 89 C-14.90300781 88.39929688 -13.80601562 87.79859375 -12.67578125 87.1796875 C-11.22185388 86.41051302 -9.76739871 85.64233561 -8.3125 84.875 C-7.59126953 84.47667969 -6.87003906 84.07835937 -6.12695312 83.66796875 C-0.70706972 80.84665958 -0.70706972 80.84665958 2.59375 81.5625 C3.3878125 82.036875 4.181875 82.51125 5 83 C6.09957031 83.49757812 7.19914062 83.99515625 8.33203125 84.5078125 C9.48058594 85.04148438 10.62914062 85.57515625 11.8125 86.125 C12.97394531 86.66382813 14.13539063 87.20265625 15.33203125 87.7578125 C16.21246094 88.16773438 17.09289062 88.57765625 18 89 C17.855625 88.05898437 17.71125 87.11796875 17.5625 86.1484375 C17.2840625 84.28058594 17.2840625 84.28058594 17 82.375 C16.814375 81.14523438 16.62875 79.91546875 16.4375 78.6484375 C16.293125 77.44445312 16.14875 76.24046875 16 75 C15.855625 73.98808594 15.71125 72.97617188 15.5625 71.93359375 C16.21853258 67.534661 18.79363544 65.58694903 22 62.6875 C24.01022346 60.80178362 26.00847206 58.90558402 28 57 C28 56.67 28 56.34 28 56 C21.6221448 54.82706111 15.49678438 53.70469162 9 54 C8.79375 53.236875 8.5875 52.47375 8.375 51.6875 C6.44105609 46.50101406 3.7214854 41.80966916 1 37 C0.67 37 0.34 37 0 37 Z " fill="#000000" transform="translate(296,4)"/>
<path d="M0 0 C5.55948668 4.31095789 8.6065936 9.82269641 10.03125 16.6796875 C11.49443765 28.79296233 4.66548004 39.94758518 -0.34375 50.5546875 C-1.45586246 52.92702085 -2.56784222 55.29941642 -3.6796875 57.671875 C-4.22077148 58.82268555 -4.76185547 59.97349609 -5.31933594 61.15917969 C-7.89400968 66.65456089 -10.43284957 72.16631194 -12.96875 77.6796875 C-16.95953558 77.05664 -20.14521425 75.79374321 -23.765625 74.01953125 C-24.88163086 73.4769165 -25.99763672 72.93430176 -27.14746094 72.37524414 C-28.32598633 71.79508545 -29.50451172 71.21492676 -30.71875 70.6171875 C-33.15526794 69.42506845 -35.59324616 68.23595162 -38.03125 67.046875 C-39.2171875 66.46776367 -40.403125 65.88865234 -41.625 65.29199219 C-44.49575046 63.90776058 -47.37721515 62.56248763 -50.28125 61.25 C-51.04469727 60.90332275 -51.80814453 60.55664551 -52.59472656 60.19946289 C-53.95190577 59.58779626 -55.3129306 58.98454641 -56.67871094 58.39233398 C-64.31956085 54.92429804 -69.35825543 50.17840699 -72.96875 42.6796875 C-75.23680928 35.50771626 -75.0936908 27.14180629 -71.96875 20.3046875 C-68.13062589 13.65554291 -62.56664433 8.49197773 -55.1875 6.10546875 C-49.81505392 5.07448878 -44.17018655 4.94587532 -38.96875 6.6796875 C-38.58976562 5.78636719 -38.58976562 5.78636719 -38.203125 4.875 C-35.64440093 0.32435782 -30.79380996 -2.40778252 -26.21875 -4.6953125 C-16.31007138 -6.60082762 -8.38238546 -5.62152041 0 0 Z M-25.96875 14.6796875 C-28.23276023 18.5667553 -30.14627246 22.569419 -31.96875 26.6796875 C-32.814375 26.30714844 -33.66 25.93460938 -34.53125 25.55078125 C-43.56805775 21.58197868 -43.56805775 21.58197868 -52.96875 22.6796875 C-56.47165345 25.74472802 -57.79096283 27.57345622 -58.53125 32.1796875 C-57.85087216 36.4131496 -56.65093432 38.33856011 -53.96875 41.6796875 C-51.47411492 43.19349212 -49.22273913 44.39009646 -46.578125 45.546875 C-45.87351135 45.87132599 -45.16889771 46.19577698 -44.44293213 46.53005981 C-42.20852028 47.55449833 -39.96422656 48.5547713 -37.71875 49.5546875 C-36.19459561 50.24842713 -34.67114914 50.94372432 -33.1484375 51.640625 C-29.42982302 53.33844202 -25.70216471 55.01468349 -21.96875 56.6796875 C-17.99773702 51.81571793 -15.70639004 46.04718131 -13.13330078 40.37231445 C-12.22304489 38.37660393 -11.28960964 36.3928221 -10.35546875 34.40820312 C-9.7719664 33.1282738 -9.18988748 31.8476944 -8.609375 30.56640625 C-8.07860352 29.41358154 -7.54783203 28.26075684 -7.00097656 27.07299805 C-5.7973441 23.1162129 -5.96514887 20.66921182 -6.96875 16.6796875 C-9.96737591 13.14284669 -12.05698745 10.89693324 -16.71875 10.3671875 C-20.78400128 10.75807705 -23.25644297 11.67528587 -25.96875 14.6796875 Z " fill="#000000" transform="translate(198.96875,5.3203125)"/>
<path d="M0 0 C5.23272633 1.63958758 10.15196636 3.38952035 15 6 C14.42312999 9.39472959 13.58799127 12.21523796 12.06640625 15.30078125 C11.6703418 16.10459229 11.27427734 16.90840332 10.86621094 17.73657227 C10.22087402 19.01165649 10.22087402 19.01165649 9.5625 20.3125 C9.11293945 21.20187256 8.66337891 22.09124512 8.20019531 23.00756836 C-1.64358207 42.18850862 -14.27871954 59.62665236 -28.3671875 75.91015625 C-31.12228171 79.1087982 -33.72343568 82.41643878 -36.3125 85.75 C-41.05887827 91.85433156 -45.94140606 97.83687476 -50.87817383 103.78808594 C-51.99767935 105.13891324 -53.10767789 106.4976706 -54.20849609 107.86376953 C-56 110 -56 110 -58.17041016 112.22607422 C-64.69205361 119.29082492 -65.14511724 125.23107745 -65 134.625 C-65.01160156 135.91535156 -65.02320313 137.20570313 -65.03515625 138.53515625 C-65.05852575 141.69003938 -65.03415193 144.84521517 -65 148 C-70.28 148 -75.56 148 -81 148 C-83.37377752 115.01202823 -83.37377752 115.01202823 -76.55053711 106.23901367 C-74.0863926 103.60824637 -71.5395362 101.12260042 -68.84667969 98.7265625 C-65.95317126 96.02126219 -63.67202502 92.91802146 -61.3125 89.75 C-57.81811332 85.2354336 -54.2115279 80.83733165 -50.5 76.5 C-45.26110174 70.37274252 -40.26222838 64.07948801 -35.32763672 57.70556641 C-34.0538628 56.06919558 -32.76566922 54.4454076 -31.47265625 52.82421875 C-19.13693635 37.17558829 -6.33456886 19.00370658 0 0 Z " fill="#000000" transform="translate(439,308)"/>
<path d="M0 0 C5.28 0 10.56 0 16 0 C16 13.86 16 27.72 16 42 C10.72 42 5.44 42 0 42 C0 28.14 0 14.28 0 0 Z " fill="#000000" transform="translate(358,470)"/>
<path d="M0 0 C5.19644079 1.59890486 10.06612142 3.74138003 15 6 C14.37321829 9.66172475 13.35548154 12.8818995 11.9375 16.3125 C11.57527344 17.19550781 11.21304687 18.07851562 10.83984375 18.98828125 C10.56269531 19.65214844 10.28554688 20.31601563 10 21 C8.24859857 20.54705135 6.49892656 20.08741252 4.75 19.625 C3.77546875 19.36976563 2.8009375 19.11453125 1.796875 18.8515625 C-0.65837303 18.10401491 -2.75617405 17.22876183 -5 16 C-4.34309381 12.21760329 -3.279869 8.78158474 -1.9375 5.1875 C-1.57527344 4.21167969 -1.21304687 3.23585938 -0.83984375 2.23046875 C-0.42412109 1.12638672 -0.42412109 1.12638672 0 0 Z " fill="#000000" transform="translate(290,121)"/>
<path d="M0 0 C1.69630313 1.96876633 3.19536118 3.88673162 4.6875 6 C5.10322266 6.57234375 5.51894531 7.1446875 5.94726562 7.734375 C6.97356861 9.14996532 7.98793399 10.57419631 9 12 C6.28733409 14.86198697 3.55831983 17.10932246 0.25 19.25 C-0.54921875 19.77078125 -1.3484375 20.2915625 -2.171875 20.828125 C-3.07679688 21.40820312 -3.07679688 21.40820312 -4 22 C-7.59478807 18.67149253 -10.22364768 15.01028669 -13 11 C-11.56590028 7.64138305 -9.80630679 5.64125061 -7.0625 3.25 C-6.37285156 2.63640625 -5.68320313 2.0228125 -4.97265625 1.390625 C-3 0 -3 0 0 0 Z " fill="#000000" transform="translate(214,67)"/>
<path d="M0 0 C5.28 0 10.56 0 16 0 C16 5.28 16 10.56 16 16 C10.72 16 5.44 16 0 16 C0 10.72 0 5.44 0 0 Z " fill="#000000" transform="translate(258,405)"/>
<path d="M0 0 C5.28 0 10.56 0 16 0 C16 5.28 16 10.56 16 16 C10.72 16 5.44 16 0 16 C0 10.72 0 5.44 0 0 Z " fill="#000000" transform="translate(228,405)"/>
<path d="M0 0 C5.28 0 10.56 0 16 0 C16 5.28 16 10.56 16 16 C10.72 16 5.44 16 0 16 C0 10.72 0 5.44 0 0 Z " fill="#000000" transform="translate(425,238)"/>
<path d="M0 0 C5.28 0 10.56 0 16 0 C16 5.28 16 10.56 16 16 C10.72 16 5.44 16 0 16 C0 10.72 0 5.44 0 0 Z " fill="#000000" transform="translate(395,238)"/>
</svg>
