<?xml version="1.0" encoding="UTF-8"?>
<svg version="1.1" xmlns="http://www.w3.org/2000/svg" width="512" height="512">
    <path
        d="M0 0 C2.16559023 0.01617758 4.32933659 0.00000652 6.49487305 -0.01904297 C16.5455925 -0.03598622 25.59913779 0.67046115 33.90698242 6.89111328 C34.71006836 7.47892578 35.5131543 8.06673828 36.34057617 8.67236328 C38.46948242 10.39111328 38.46948242 10.39111328 39.93041992 12.16064453 C41.45698106 13.66280934 41.45698106 13.66280934 43.88745117 13.24658203 C44.80139648 13.02615234 45.7153418 12.80572266 46.65698242 12.57861328 C57.96064336 10.21135445 68.09862785 11.53758158 78.21948242 17.39111328 C87.34098567 23.68271292 92.7137814 32.41449915 95.11282349 43.17749023 C96.49278189 51.74227698 95.9945097 60.68037296 95.96948242 69.32861328 C95.95741768 73.54651197 95.97111415 77.76316762 96.00073242 81.98095703 C95.98941284 82.93727524 95.97809326 83.89359344 95.96643066 84.87889099 C96.00999301 90.6286378 96.73710776 93.76814934 100.46948242 98.39111328 C103.66172411 106.15822364 103.73960604 114.87690143 100.84448242 122.76611328 C97.06018918 130.90168446 91.75990019 135.92322611 83.46948242 139.39111328 C80.46434199 140.26533595 77.56078303 140.85136238 74.46948242 141.39111328 C74.33413086 142.02275391 74.1987793 142.65439453 74.05932617 143.30517578 C70.37639477 158.61029192 62.73088698 172.77012695 49.40698242 181.57861328 C45.68483802 183.92687456 45.68483802 183.92687456 43.77416992 187.66064453 C43.71241215 190.1208138 43.71241215 190.1208138 44.46948242 193.39111328 C45.48268555 193.58705078 46.49588867 193.78298828 47.53979492 193.98486328 C52.29897807 195.34668496 55.03219272 198.3564708 58.34448242 201.89111328 C58.92456055 202.48537109 59.50463867 203.07962891 60.10229492 203.69189453 C64.28400648 208.0201614 64.28400648 208.0201614 65.46948242 210.39111328 C68.42219836 211.38665321 71.34175858 212.25946564 74.34448242 213.07861328 C75.26253662 213.33626465 76.18059082 213.59391602 77.12646484 213.859375 C82.59665073 215.37894677 88.08578152 216.81103639 93.59057617 218.19970703 C94.78505371 218.50239502 95.97953125 218.80508301 97.21020508 219.11694336 C99.54744636 219.70532748 101.88691503 220.28495047 104.22875977 220.85473633 C111.89661416 222.77767178 119.46541387 224.81030199 125.21948242 230.57861328 C125.75057617 231.08779297 126.28166992 231.59697266 126.82885742 232.12158203 C132.28610933 239.6707805 133.19565676 247.20196809 133.65698242 256.32861328 C133.76478027 258.10909058 133.76478027 258.10909058 133.87475586 259.92553711 C134.01723365 262.30623781 134.15295134 264.68735391 134.28149414 267.06884766 C134.4478146 270.00818383 134.65153932 272.94042675 134.87963867 275.87548828 C134.99328425 277.44317025 135.10659455 279.01087657 135.21948242 280.57861328 C135.27644287 281.2649585 135.33340332 281.95130371 135.39208984 282.65844727 C135.73706137 288.10818408 135.6762393 293.64508406 132.13123703 298.05639005 C127.21752617 302.5930793 123.50451816 303.25398627 116.94311523 303.15301514 C115.53272665 303.16705505 115.53272665 303.16705505 114.09384537 303.1813786 C110.95285351 303.2052526 107.81361126 303.18637791 104.67260742 303.16748047 C102.41694116 303.17561317 100.16128286 303.18629766 97.90563965 303.19934082 C91.78574576 303.22668525 85.66645902 303.21609206 79.54655457 303.19706631 C73.14096444 303.18187189 66.73542616 303.19596466 60.32983398 303.2053833 C48.88393097 303.21699718 37.43836412 303.1983555 25.99251795 303.16782728 C15.62142144 303.14102168 5.25072791 303.1456782 -5.12036133 303.17333984 C-17.17332642 303.20547246 -29.22598725 303.21738877 -41.27901077 303.19966626 C-47.65587285 303.19031373 -54.03245752 303.18906065 -60.40930176 303.20888519 C-66.40464396 303.22622189 -72.39922543 303.21418699 -78.39448547 303.17951965 C-80.59429155 303.17158835 -82.79416169 303.17386095 -84.99394226 303.18709564 C-87.99820811 303.20350352 -91.00003953 303.18291999 -94.00415039 303.15301514 C-94.87390377 303.16639947 -95.74365715 303.1797838 -96.63976669 303.19357371 C-102.17607382 303.08673653 -105.11870796 301.81641253 -109.18922043 298.050668 C-114.60685075 291.34756424 -112.49407507 280.92164703 -111.93676758 272.89990234 C-111.78186905 270.66065043 -111.64675717 268.42088982 -111.51489258 266.18017578 C-109.88333151 239.82735285 -109.88333151 239.82735285 -103.53051758 232.39111328 C-103.02133789 231.77623047 -102.5121582 231.16134766 -101.98754883 230.52783203 C-95.85756415 224.20839971 -87.76748364 222.52812124 -79.53051758 220.39111328 C-78.31992676 220.07464844 -77.10933594 219.75818359 -75.86206055 219.43212891 C-70.33575927 217.99044283 -64.80792278 216.55545612 -59.27050781 215.15698242 C-58.60874039 214.98930359 -57.94697296 214.82162476 -57.26515198 214.64886475 C-55.44506286 214.18843534 -53.62428607 213.73072675 -51.8034668 213.27319336 C-44.5416769 211.47152791 -44.5416769 211.47152791 -39.09301758 206.70361328 C-38.50649414 205.99591797 -37.9199707 205.28822266 -37.31567383 204.55908203 C-36.72657227 203.84365234 -36.1374707 203.12822266 -35.53051758 202.39111328 C-31.19745795 197.42112284 -28.10976967 194.59954734 -21.53051758 193.39111328 C-20.7275524 189.31443433 -20.7275524 189.31443433 -21.53051758 185.39111328 C-24.04182536 183.07890017 -26.7376883 181.31620683 -29.58129883 179.43017578 C-41.31338436 171.31872062 -48.27549845 157.15086025 -51.15551758 143.48876953 C-51.27926758 142.79654297 -51.40301758 142.10431641 -51.53051758 141.39111328 C-52.22016602 141.24416016 -52.90981445 141.09720703 -53.62036133 140.94580078 C-63.83055341 138.5088002 -70.64541191 134.68905724 -76.33911133 125.73486328 C-80.2193956 118.10151718 -80.94808702 109.79833694 -78.77270508 101.50048828 C-77.39252346 97.87071931 -76.16060349 95.06364567 -73.48291016 92.20556641 C-71.00079485 88.62749647 -71.03290714 86.46825361 -71.02661133 82.14111328 C-71.01719009 81.44655029 -71.00776886 80.7519873 -70.99806213 80.03637695 C-70.96952019 77.82098859 -70.96632558 75.60666982 -70.96801758 73.39111328 C-70.93232222 51.99769654 -66.90522378 34.37471874 -51.53051758 18.39111328 C-36.99117953 4.44320593 -19.65560475 -0.17443818 0 0 Z "
        fill="#020202" transform="translate(244.530517578125,209.60888671875)" />
    <path
        d="M0 0 C2.44775391 2.00952148 2.44775391 2.00952148 4.9765625 4.62109375 C6.35328125 6.02391602 6.35328125 6.02391602 7.7578125 7.45507812 C8.7140218 8.44875695 9.66974615 9.44290264 10.625 10.4375 C12.50903377 12.37763639 14.39885281 14.31195665 16.2890625 16.24609375 C17.12131348 17.10904053 17.95356445 17.9719873 18.81103516 18.86108398 C21.80328249 21.78491612 23.50228769 22.92407778 27.6875 23.5625 C33.2905826 23.41883122 36.30399531 19.85186031 40 16 C40.62132812 15.32066406 41.24265625 14.64132812 41.8828125 13.94140625 C42.47835937 13.30074219 43.07390625 12.66007812 43.6875 12 C44.20699219 11.401875 44.72648437 10.80375 45.26171875 10.1875 C47 9 47 9 49.3203125 8.9375 C53.15775565 10.4590518 55.40642645 13.01610403 58.1875 16 C62.96865791 21.2584415 62.96865791 21.2584415 69.5 23.625 C75.33981552 23.48919034 78.5752663 19.56720378 82.4765625 15.60253906 C84.23096924 13.75703813 85.94226458 11.87526962 87.65625 9.9921875 C88.30134521 9.30326416 88.94644043 8.61434082 89.61108398 7.90454102 C90.89488938 6.52822068 92.15339571 5.12778365 93.38305664 3.70288086 C95.17185903 1.79042965 96.73155883 0.31039901 99 -1 C102.48087659 -0.70676461 104.74527606 -0.09008105 108 1 C110.56754437 1.62043089 113.13550482 2.21964091 115.7109375 2.8046875 C117.13588412 3.14256589 118.56035723 3.48244682 119.984375 3.82421875 C122.17721394 4.34993281 124.37033766 4.87390353 126.56542969 5.39013672 C152.84497319 11.57390548 152.84497319 11.57390548 159 21 C160.64547975 25.93643926 160.59605447 31.10360338 160.92993164 36.2746582 C161.05957343 38.26751272 161.19862394 40.25974809 161.33789062 42.25195312 C162.58405778 61.07563588 162.58405778 61.07563588 162 68 C160 70 160 70 157.47802734 70.22705078 C155.92269287 70.21134033 155.92269287 70.21134033 154.3359375 70.1953125 C153.21445312 70.18886719 152.09296875 70.18242187 150.9375 70.17578125 C149.1740625 70.15064453 149.1740625 70.15064453 147.375 70.125 C146.19164062 70.11597656 145.00828125 70.10695313 143.7890625 70.09765625 C140.85917477 70.07402812 137.9296866 70.04108514 135 70 C134.98018066 69.16227051 134.96036133 68.32454102 134.93994141 67.46142578 C134.86189388 64.35634166 134.77520365 61.25165461 134.68261719 58.14697266 C134.62545964 56.14113029 134.57831404 54.13501082 134.53125 52.12890625 C134.49257813 50.87207031 134.45390625 49.61523438 134.4140625 48.3203125 C134.3826416 47.15773926 134.3512207 45.99516602 134.31884766 44.79736328 C134.27842131 41.86343518 134.27842131 41.86343518 132 40 C129.45809998 39.7499227 129.45809998 39.7499227 127 40 C119.91323612 47.08676388 125.34538774 59.98375561 125 70 C75.17 70 25.34 70 -26 70 C-26.33 60.43 -26.66 50.86 -27 41 C-28.05310277 39.72996677 -28.05310277 39.72996677 -30.4375 39.8125 C-33.16734675 39.73160017 -33.16734675 39.73160017 -35 42 C-35.37268887 44.91188245 -35.37268887 44.91188245 -35.4140625 48.3203125 C-35.45273438 49.57714844 -35.49140625 50.83398438 -35.53125 52.12890625 C-35.5621875 53.44761719 -35.593125 54.76632812 -35.625 56.125 C-35.66318029 57.46486918 -35.70223206 58.80471383 -35.7421875 60.14453125 C-35.8367203 63.42954619 -35.92227156 66.71455138 -36 70 C-40.29161047 70.05783842 -44.58312145 70.0935412 -48.875 70.125 C-50.09832031 70.14175781 -51.32164062 70.15851563 -52.58203125 70.17578125 C-54.33193359 70.18544922 -54.33193359 70.18544922 -56.1171875 70.1953125 C-57.19597168 70.20578613 -58.27475586 70.21625977 -59.38623047 70.22705078 C-62 70 -62 70 -64 68 C-64.79153305 58.30546366 -63.83437083 48.24844655 -63.25 38.5625 C-63.188125 37.25345703 -63.12625 35.94441406 -63.0625 34.59570312 C-62.51831439 25.67559399 -61.63736495 20.79386879 -55.3671875 14.25390625 C-51.41463598 11.22576174 -46.88048281 10.1607573 -42.125 8.9375 C-40.73704224 8.56081177 -40.73704224 8.56081177 -39.32104492 8.17651367 C-32.3961012 6.31263371 -25.43899471 4.56870502 -18.46875 2.8828125 C-14.61742874 1.90263389 -10.86342584 0.7301863 -7.11328125 -0.58203125 C-4.3436673 -1.12981072 -2.71322065 -0.82536503 0 0 Z "
        fill="#6FD4F7" transform="translate(207,432)" />
    <path
        d="M0 0 C4.60028929 2.6953178 8.01741628 6.19466469 11.75708008 9.96459961 C12.93581696 11.13903122 12.93581696 11.13903122 14.1383667 12.33718872 C15.79263061 13.98941653 17.44313358 15.64541745 19.09008789 17.30493164 C21.61123745 19.8421612 24.14800726 22.36297406 26.68676758 24.88256836 C28.29450137 26.49228424 29.90130448 28.10293031 31.50708008 29.71459961 C32.64454681 30.84295731 32.64454681 30.84295731 33.80499268 31.99411011 C34.50622253 32.70479645 35.20745239 33.41548279 35.92993164 34.14770508 C36.54692932 34.76708954 37.163927 35.386474 37.79962158 36.02462769 C40.6665642 39.58862232 41.67988889 43.26744325 41.80395508 47.78491211 C41.84391602 48.57510742 41.88387695 49.36530273 41.92504883 50.17944336 C40.41675607 57.72090717 34.36621001 63.41999538 29.08911133 68.64819336 C28.40014267 69.3400322 27.71117401 70.03187103 27.00132751 70.74467468 C25.5535583 72.19447234 24.10204595 73.64054095 22.64697266 75.08300781 C20.42814532 77.28571598 18.22584932 79.50404825 16.0246582 81.72436523 C14.60960386 83.13743789 13.19361957 84.54958005 11.77661133 85.96069336 C11.12330338 86.62007401 10.46999542 87.27945465 9.79689026 87.95881653 C4.55512902 93.12115009 -0.01540002 96.39999265 -7.63354492 96.40991211 C-12.77182653 96.2700084 -15.75621419 95.55894303 -19.63354492 91.97241211 C-24.20317835 86.90876425 -24.91817338 83.1133276 -24.86010742 76.48413086 C-24.46179652 72.06837378 -22.71829016 69.05715735 -19.63354492 65.97241211 C-36.46354492 65.64241211 -53.29354492 65.31241211 -70.63354492 64.97241211 C-70.58713867 70.46124023 -70.54073242 75.95006836 -70.49291992 81.60522461 C-70.4724765 85.08701441 -70.45322043 88.56872999 -70.43823242 92.05053711 C-70.41434095 97.57445689 -70.3861079 103.0981109 -70.33178711 108.62182617 C-70.28825664 113.07629174 -70.26439254 117.53047223 -70.25403595 121.98513412 C-70.24665747 123.68278362 -70.23224886 125.3804179 -70.21062469 127.07794571 C-70.18149412 129.45993754 -70.17759282 131.84075847 -70.17944336 134.22290039 C-70.1578717 135.27055321 -70.1578717 135.27055321 -70.13586426 136.33937073 C-70.17773251 141.33538088 -71.53415011 144.11183158 -74.63354492 147.97241211 C-80.11745968 152.80347988 -83.43893891 153.32265954 -90.64916992 153.25366211 C-95.83378959 152.76505921 -98.34170825 150.26424879 -101.88354492 146.72241211 C-106.94515835 138.76844815 -105.92709049 129.15126213 -105.89916992 120.08178711 C-105.90052004 118.53013041 -105.90246345 116.97847412 -105.90496826 115.42681885 C-105.90790672 112.18237257 -105.90366557 108.93803687 -105.89428711 105.69360352 C-105.88293159 101.5673929 -105.88943535 97.44144367 -105.90143204 93.31524277 C-105.90871808 90.11159356 -105.9063314 86.90800453 -105.90117645 83.70435333 C-105.89985653 82.18475564 -105.90142848 80.6651522 -105.90613556 79.14556122 C-105.94127257 64.60869925 -105.65629298 50.89050782 -95.46166992 39.64038086 C-85.72832419 30.75974276 -75.22122092 29.68149827 -62.60229492 29.55834961 C-61.37063599 29.53898346 -60.13897705 29.51961731 -58.86999512 29.49966431 C-54.95791426 29.44015424 -51.04580352 29.39359716 -47.13354492 29.34741211 C-44.4720554 29.3102581 -41.81062046 29.27015291 -39.14916992 29.23022461 C-32.64406871 29.13447616 -26.1388944 29.04934577 -19.63354492 28.97241211 C-20.27291992 28.20928711 -20.91229492 27.44616211 -21.57104492 26.65991211 C-25.27505232 21.83347823 -25.3912247 16.85096208 -24.63354492 10.97241211 C-22.70561597 5.8975498 -19.55984102 2.00211543 -14.65698242 -0.40649414 C-9.71147389 -1.92451703 -4.81062261 -1.87706597 0 0 Z "
        fill="#020100" transform="translate(405.633544921875,55.027587890625)" />
    <path
        d="M0 0 C4.70948024 2.67604111 8.10192893 5.87034668 9.71484375 11.125 C10.54803773 17.15847365 10.10069847 21.91599274 6.71484375 27.125 C6.05484375 27.785 5.39484375 28.445 4.71484375 29.125 C5.73389297 29.13379936 5.73389297 29.13379936 6.77352905 29.14277649 C13.87972258 29.20698439 20.98547467 29.29147377 28.09130859 29.38745117 C30.73903564 29.42059222 33.38683149 29.4486574 36.03466797 29.47143555 C39.85283581 29.50518017 43.67037918 29.55750788 47.48828125 29.61328125 C49.24825943 29.62286613 49.24825943 29.62286613 51.04379272 29.63264465 C61.9725173 29.82572177 71.26087517 31.9101103 79.71484375 39.125 C91.41775757 51.39601643 90.87497651 65.18164603 90.8828125 81.25390625 C90.88603218 82.81371592 90.88939677 84.37352529 90.89289856 85.93333435 C90.89885721 89.18855489 90.90074167 92.44374901 90.90014648 95.69897461 C90.90004467 99.85355559 90.91373129 104.00796643 90.93091869 108.16250706 C90.94207464 111.37884794 90.94406464 114.59514802 90.94353676 117.81150627 C90.94471013 119.34278897 90.94909545 120.87407296 90.95686913 122.40533638 C91.04874671 142.35927089 91.04874671 142.35927089 85.83984375 148 C85.34742188 148.55429688 84.855 149.10859375 84.34765625 149.6796875 C79.83730869 153.67210041 75.44680168 153.54757222 69.62890625 153.44140625 C64.35533061 152.86880621 61.78786101 150.34301959 58.40234375 146.5 C55.56602455 142.50814335 55.57729385 139.59280241 55.60131836 134.82958984 C55.60117233 134.07827286 55.60102631 133.32695587 55.60087585 132.5528717 C55.60157379 130.0638645 55.60936061 127.57493167 55.6171875 125.0859375 C55.6190521 123.36243735 55.62047581 121.63893666 55.62147522 119.91543579 C55.62529706 115.37474103 55.63512453 110.83407815 55.6461792 106.293396 C55.65819692 100.84770364 55.66279715 95.40200064 55.66863251 89.95629883 C55.67833644 81.67917703 55.69749533 73.40212522 55.71484375 65.125 C30.46984375 65.62 30.46984375 65.62 4.71484375 66.125 C6.03484375 67.775 7.35484375 69.425 8.71484375 71.125 C10.32855913 75.96614615 10.69174008 81.31111383 8.99609375 86.1953125 C6.56009607 90.73334044 3.293986 93.83542888 -1.28515625 96.125 C-3.17576687 96.30000341 -5.07450265 96.39224916 -6.97265625 96.4375 C-8.49439453 96.49357422 -8.49439453 96.49357422 -10.046875 96.55078125 C-17.75705625 95.53701797 -22.84359934 90.01203218 -28.08203125 84.7265625 C-29.15520599 83.65769302 -29.15520599 83.65769302 -30.25006104 82.56723022 C-31.75291529 81.06640813 -33.25202515 79.56182816 -34.74755859 78.05371094 C-37.03157626 75.75360521 -39.33118846 73.46997249 -41.6328125 71.1875 C-43.09601512 69.72231527 -44.55828701 68.25620035 -46.01953125 66.7890625 C-46.70392273 66.11074371 -47.38831421 65.43242493 -48.09344482 64.73355103 C-52.24488114 60.52056874 -55.74197715 56.61838718 -56.68359375 50.5625 C-56.67585938 49.758125 -56.668125 48.95375 -56.66015625 48.125 C-56.66789062 47.320625 -56.675625 46.51625 -56.68359375 45.6875 C-55.53425429 38.29566975 -50.36197524 33.76267932 -45.29296875 28.734375 C-44.51001434 27.94855042 -43.72705994 27.16272583 -42.92037964 26.35308838 C-41.26815183 24.69882446 -39.61215091 23.0483215 -37.95263672 21.40136719 C-35.41540716 18.88021763 -32.8945943 16.34344782 -30.375 13.8046875 C-28.76528412 12.19695371 -27.15463805 10.59015059 -25.54296875 8.984375 C-24.79073029 8.22606384 -24.03849182 7.46775269 -23.26345825 6.6864624 C-22.19742874 5.63461761 -22.19742874 5.63461761 -21.10986328 4.56152344 C-20.49047882 3.94452576 -19.87109436 3.32752808 -19.23294067 2.6918335 C-13.81339416 -1.66774907 -6.44686944 -2.46854488 0 0 Z "
        fill="#000102" transform="translate(121.28515625,54.875)" />
    <path
        d="M0 0 C0.64324219 0.44730469 1.28648437 0.89460938 1.94921875 1.35546875 C11.99403005 8.07589172 21.58996549 11.80229647 33.43359375 13.640625 C34.26080933 13.77355957 35.0880249 13.90649414 35.94030762 14.04345703 C37.95942375 14.36721563 39.97960799 14.68430123 42 15 C42.04651906 22.29368256 42.08196802 29.58733267 42.10362434 36.88113403 C42.11402286 40.26862868 42.12810933 43.65602116 42.15087891 47.04345703 C42.17522296 50.94566514 42.18650525 54.84772963 42.1953125 58.75 C42.20563507 59.95551514 42.21595764 61.16103027 42.22659302 62.40307617 C42.22863086 77.789637 37.22446036 91.34052766 27 103 C20.80643629 109.02895072 14.04399659 112.92995396 6 116 C4.67935547 116.54720703 4.67935547 116.54720703 3.33203125 117.10546875 C-9.08262547 120.43836018 -23.77294649 119.21555716 -35 113 C-38.15332345 111.16934718 -41.09500489 109.20093316 -44 107 C-45.03125 106.2575 -46.0625 105.515 -47.125 104.75 C-56.38080033 95.89662577 -63.63833888 82.50534477 -64.08483887 69.53564453 C-64.11570856 66.5154061 -64.11232514 63.49692298 -64.09765625 60.4765625 C-64.0962413 59.37524994 -64.09482635 58.27393738 -64.09336853 57.13925171 C-64.08778752 53.63447308 -64.07523846 50.1297592 -64.0625 46.625 C-64.05748255 44.24349051 -64.05292007 41.86198001 -64.04882812 39.48046875 C-64.03782431 33.65362388 -64.02110507 27.82681657 -64 22 C-63.2161644 21.97537689 -62.4323288 21.95075378 -61.6247406 21.92538452 C-59.46367529 21.85749765 -57.3026191 21.78932012 -55.14157104 21.72088623 C-52.87974322 21.65045 -50.61776362 21.58484465 -48.35571289 21.52197266 C-30.53323179 20.88261411 -15.16932245 15.20662592 -2.3125 2.5 C-1.549375 1.675 -0.78625 0.85 0 0 Z "
        fill="#F6CEB2" transform="translate(267,275)" />
    <path
        d="M0 0 C1.00804687 -0.02835938 2.01609375 -0.05671875 3.0546875 -0.0859375 C10.27645568 0.99824653 15.34541725 7.27461031 20.296875 12.2109375 C21.06050354 12.96790924 21.82413208 13.72488098 22.61090088 14.50479126 C24.21701899 16.1008195 25.82046675 17.69953897 27.42138672 19.30078125 C29.87045108 21.74545923 32.33507525 24.17368463 34.80078125 26.6015625 C36.36295762 28.15787265 37.92418835 29.71513269 39.484375 31.2734375 C40.22081238 31.99550385 40.95724976 32.71757019 41.71600342 33.46151733 C46.50776284 38.29656 48.73407341 41.85666066 49.5 48.75 C48.90328817 54.51821439 46.83945347 58.70450687 42.6875 62.75 C37.72273239 65.89838922 34.0569214 66.88637253 28.125 66.375 C23.97512096 64.92254234 21.10042198 63.57447484 18.125 60.375 C18.12353344 61.00761025 18.12206688 61.64022051 18.12055588 62.29200077 C18.08347008 77.69984796 18.02443213 93.10743209 17.94109726 108.5150919 C17.90132357 115.9662009 17.86892267 123.41720455 17.85400391 130.8684082 C17.84097864 137.36449105 17.81399193 143.86034191 17.77038693 150.3562941 C17.7477914 153.79446281 17.73208814 157.23234562 17.73311615 160.67059517 C17.73400302 164.51313851 17.7037136 168.35509933 17.67089844 172.19750977 C17.67844398 173.89899673 17.67844398 173.89899673 17.68614197 175.63485718 C17.60087008 182.08857824 17.0419706 186.16079535 13.125 191.375 C8.68462737 194.91303813 3.82805768 196.64709245 -1.875 196.375 C-7.49362133 195.19925146 -11.17993419 192.83081465 -14.875 188.375 C-16.78992554 185.22318505 -17.13119966 182.8541234 -17.1534729 179.1864624 C-17.16463638 178.13760864 -17.17579987 177.08875488 -17.18730164 176.00811768 C-17.18946182 174.8630072 -17.19162201 173.71789673 -17.19384766 172.53808594 C-17.20389328 171.32805908 -17.2139389 170.11803223 -17.22428894 168.87133789 C-17.24987714 165.55759345 -17.26673449 162.24402014 -17.27971697 158.93021679 C-17.29535297 155.46549294 -17.32214168 152.00085577 -17.3477478 148.53619385 C-17.39452732 141.97732253 -17.4312754 135.41843489 -17.46442068 128.85948205 C-17.50264793 121.39152136 -17.5520565 113.92364775 -17.60240483 106.45576048 C-17.70571237 91.09556994 -17.79497656 75.73533056 -17.875 60.375 C-19.30005859 61.58736328 -19.30005859 61.58736328 -20.75390625 62.82421875 C-23.12750273 64.8435471 -24.6935667 66.08577879 -27.875 66.375 C-28.9475 66.478125 -30.02 66.58125 -31.125 66.6875 C-36.97367787 66.20011018 -41.15796251 64.13722269 -45.25 59.9375 C-48.39838922 54.97273239 -49.38637253 51.3069214 -48.875 45.375 C-46.74683095 38.69237563 -42.79172117 34.73722418 -37.84765625 29.88671875 C-37.06233017 29.10230911 -36.27700409 28.31789948 -35.46788025 27.50971985 C-33.81250005 25.86036127 -32.15228212 24.21584553 -30.48754883 22.57592773 C-27.93903657 20.0640145 -25.40697976 17.53637704 -22.87695312 15.00585938 C-21.26396284 13.4026975 -19.65006134 11.80045179 -18.03515625 10.19921875 C-16.89905663 9.0664576 -16.89905663 9.0664576 -15.74000549 7.91081238 C-15.02924362 7.21281021 -14.31848175 6.51480804 -13.58618164 5.7956543 C-12.96457657 5.18167282 -12.3429715 4.56769135 -11.70252991 3.93510437 C-7.94637451 0.72859353 -4.89611385 0.06229152 0 0 Z "
        fill="#020001" transform="translate(255.875,-0.375)" />
    <path
        d="M0 0 C1.25876953 -0.02449219 2.51753906 -0.04898438 3.81445312 -0.07421875 C14.23892329 -0.1068462 22.36404273 1.70452045 30.1796875 8.84765625 C31.5625 10.375 31.5625 10.375 33.125 13.25 C33.599375 13.95125 34.07375 14.6525 34.5625 15.375 C38.26687931 16.04852351 40.19815778 15.55717111 43.5625 13.875 C49.92505216 10.94060788 57.95247002 11.21463322 64.515625 13.32421875 C72.43907578 17.08429943 77.56282735 22.63717177 81.5625 30.375 C82.37786322 33.11641649 82.68529313 35.55471725 82.67602539 38.40917969 C82.67594986 39.18968689 82.67587433 39.97019409 82.67579651 40.77435303 C82.67063522 41.60678528 82.66547394 42.43921753 82.66015625 43.296875 C82.65803383 44.58685394 82.65803383 44.58685394 82.65586853 45.90289307 C82.65028097 48.64363109 82.63773075 51.38428676 82.625 54.125 C82.61998339 55.9856759 82.61542077 57.84635309 82.61132812 59.70703125 C82.60031561 64.26305246 82.58305951 68.81901228 82.5625 73.375 C79.2625 73.045 75.9625 72.715 72.5625 72.375 C72.500625 71.3025 72.43875 70.23 72.375 69.125 C71.89560915 65.35334373 71.89560915 65.35334373 69.51171875 63.19921875 C65.88031199 60.95303735 62.71365073 60.68530209 58.5625 60.4375 C46.15500013 59.32167923 35.05974433 55.10530284 25.69140625 46.6953125 C22.71131824 44.84711113 21.01253739 44.80655277 17.5625 45.375 C14.76474856 47.55821299 14.76474856 47.55821299 12.25 50.5 C4.0183508 59.26091666 -5.38717255 65.41143749 -17.4375 67.375 C-19.82460711 67.44426178 -22.21355308 67.45960267 -24.6015625 67.4375 C-25.61239395 67.43182007 -25.61239395 67.43182007 -26.64364624 67.42602539 C-28.7833312 67.4138732 -30.9228772 67.39523968 -33.0625 67.375 C-35.88801719 67.34840392 -38.71346729 67.32842242 -41.5390625 67.3125 C-43.41585693 67.29509766 -43.41585693 67.29509766 -45.33056641 67.27734375 C-48.47279418 67.22772714 -48.47279418 67.22772714 -51.4375 68.375 C-51.73398438 69.04015625 -52.03046875 69.7053125 -52.3359375 70.390625 C-52.88121094 71.37289062 -52.88121094 71.37289062 -53.4375 72.375 C-55.6015625 72.984375 -55.6015625 72.984375 -58.0625 73.125 C-58.87976563 73.18171875 -59.69703125 73.2384375 -60.5390625 73.296875 C-61.16554687 73.32265625 -61.79203125 73.3484375 -62.4375 73.375 C-63.10871922 51.45711076 -62.15089158 33.11924775 -46.37109375 16.1796875 C-32.84496612 3.55530171 -17.95653947 0.01833235 0 0 Z "
        fill="#734D33" transform="translate(246.4375,219.625)" />
    <path
        d="M0 0 C3.07098282 2.03202358 5.55005735 4.56888362 8.12109375 7.19140625 C8.86585464 7.92947006 9.61061554 8.66753387 10.37794495 9.42796326 C11.94539714 10.9906592 13.50407268 12.56220151 15.05444336 14.1418457 C17.42956321 16.55443799 19.83968675 18.92743133 22.25585938 21.29882812 C23.77568697 22.82328149 25.29334162 24.34990495 26.80859375 25.87890625 C27.89121742 26.9402755 27.89121742 26.9402755 28.99571228 28.02308655 C32.22477002 31.36040792 33.85373009 33.10387266 34.61743164 37.78271484 C33.99144985 41.04455273 33.59650695 42.28081325 31.3125 44.59765625 C30.67183594 45.26555176 30.03117187 45.93344727 29.37109375 46.62158203 C28.58863281 47.40645996 27.80617188 48.19133789 27 49 C26.03028439 50.01590665 25.06300214 51.03413942 24.09765625 52.05419922 C21.34476124 54.95223238 18.55480409 57.81115477 15.74804688 60.65698242 C14.57640093 61.85039218 13.4110719 63.05003457 12.25195312 64.25561523 C10.55734758 66.0171758 8.84381177 67.75818302 7.125 69.49609375 C6.61437012 70.03455429 6.10374023 70.57301483 5.57763672 71.12779236 C1.92062849 74.76440243 -0.84412069 75.95771996 -6 76 C-9 73.9375 -9 73.9375 -11 71 C-11 66.95504606 -10.08653387 64.77391709 -7.3125 61.96484375 C-6.2204168 60.94266443 -5.11579316 59.93374389 -4 58.9375 C0.28098959 55.17906389 0.28098959 55.17906389 3 50.25390625 C3 49.51011719 3 48.76632813 3 48 C0.15543164 45.15543164 -1.77129641 45.72727264 -5.75708008 45.69360352 C-6.45159775 45.68528 -7.14611542 45.67695648 -7.86167908 45.66838074 C-10.16435306 45.64422892 -12.46674392 45.63550162 -14.76953125 45.62890625 C-16.36895331 45.61994238 -17.9683745 45.61082058 -19.5677948 45.60154724 C-22.92453043 45.58503961 -26.28116612 45.57735418 -29.63793945 45.57446289 C-33.93571706 45.56908344 -38.23255275 45.53143034 -42.53006458 45.48571873 C-45.83553984 45.45594518 -49.14078865 45.44873925 -52.44638634 45.44773674 C-54.03042595 45.44353337 -55.61446616 45.4310942 -57.19837379 45.41021919 C-59.41786011 45.38330185 -61.63516907 45.38812913 -63.85473633 45.40063477 C-65.74764153 45.39302879 -65.74764153 45.39302879 -67.67878723 45.38526917 C-72.0163553 46.18811952 -73.4529641 47.42283446 -76 51 C-76.4740796 53.73276644 -76.64466671 55.83616479 -76.58007812 58.55664062 C-76.58253036 59.30036423 -76.5849826 60.04408783 -76.58750916 60.81034851 C-76.58967568 62.41889179 -76.58044185 64.02748255 -76.5610199 65.63591003 C-76.53092494 68.18376957 -76.53199135 70.72995215 -76.5411377 73.2779541 C-76.55504858 78.6855157 -76.53032182 84.09252903 -76.5 89.5 C-76.46485468 95.76767485 -76.44562557 102.03453585 -76.46812439 108.30229187 C-76.46874154 110.80938901 -76.43957272 113.31501276 -76.40930176 115.82189941 C-76.41137662 117.36238874 -76.41484253 118.90287703 -76.41992188 120.44335938 C-76.40344101 121.13753464 -76.38696014 121.8317099 -76.36997986 122.54692078 C-76.41772445 126.38190596 -76.92885288 127.91217086 -79.37609863 130.93322754 C-82 133 -82 133 -84.5625 133.625 C-88.12363577 132.71188826 -89.0381691 131.06607594 -91 128 C-91.39213566 125.30801876 -91.5583166 123.02586287 -91.53344727 120.33911133 C-91.54206284 119.58391205 -91.55067841 118.82871277 -91.55955505 118.05062866 C-91.58220458 115.56074452 -91.57547506 113.07198767 -91.56640625 110.58203125 C-91.57164476 108.84193082 -91.57792208 107.10183325 -91.58518982 105.36174011 C-91.59559401 101.71425015 -91.59103613 98.06715023 -91.57641602 94.41967773 C-91.55928548 89.76706366 -91.58265152 85.11569123 -91.61790562 80.46321583 C-91.63997908 76.86754823 -91.63841328 73.27217268 -91.6301403 69.67645836 C-91.6293251 67.96260917 -91.63610536 66.24873759 -91.65091133 64.53495216 C-91.726002 54.26419281 -91.64999745 44.98515994 -84.18605042 37.07844543 C-78.83294367 32.06697791 -73.99072454 30.75517044 -66.67114258 30.69702148 C-65.95186081 30.68858215 -65.23257904 30.68014282 -64.49150085 30.67144775 C-62.12583726 30.64576041 -59.76029816 30.63355278 -57.39453125 30.62109375 C-55.74736043 30.6049131 -54.10019915 30.58773251 -52.45304871 30.56959534 C-48.12529912 30.5239822 -43.79753672 30.48913419 -39.46966553 30.45739746 C-32.5318491 30.40544551 -25.59417252 30.34045258 -18.65653038 30.26918221 C-16.23130419 30.24632254 -13.80609592 30.23007198 -11.3808136 30.21446228 C-9.90076497 30.20105942 -8.42071824 30.18744495 -6.94067383 30.17358398 C-5.64559402 30.16407211 -4.35051422 30.15456024 -3.01618958 30.14476013 C-0.07789503 30.20720639 -0.07789503 30.20720639 2 29 C2.55604969 25.82257321 2.52673799 23.7557545 0.65234375 21.06640625 C-1.76351157 18.34259574 -4.27553066 15.73217647 -6.8359375 13.14453125 C-10.98620339 8.73122034 -10.98620339 8.73122034 -11.0625 4.6875 C-8.95589933 -0.64096053 -5.15740201 -0.77557148 0 0 Z "
        fill="#F1C54A" transform="translate(402,65)" />
    <path
        d="M0 0 C2.5 1.625 2.5 1.625 4 4 C3.88755233 8.72941662 2.49415428 11.04111178 -0.90039062 14.29101562 C-1.40763672 14.75185547 -1.91488281 15.21269531 -2.4375 15.6875 C-5.25718328 18.33388649 -7.83744029 20.75616044 -10 24 C-9.84298574 26.61915122 -9.84298574 26.61915122 -9 29 C-6.07491638 30.46254181 -3.49684925 30.12477776 -0.23046875 30.12597656 C0.46577103 30.1278447 1.1620108 30.12971283 1.87934875 30.13163757 C3.39459869 30.13564592 4.90985468 30.13771681 6.42510986 30.13809967 C9.65654374 30.14151781 12.88777692 30.16289266 16.11914062 30.18333054 C22.13495369 30.2212958 28.15055739 30.25262589 34.16650391 30.25048828 C38.3512484 30.24969688 42.53526421 30.27325245 46.71981812 30.3123703 C48.3080212 30.32277353 49.89630899 30.3243965 51.48452759 30.31671906 C60.4219079 30.27785753 68.53857941 30.37029701 76 36 C81.92524648 42.30017415 84.29831664 48.07441304 84.30639648 56.74023438 C84.31472 57.50346512 84.32304352 58.26669586 84.33161926 59.05305481 C84.35564251 61.56667227 84.36448039 64.08003006 84.37109375 66.59375 C84.38006353 68.34582597 84.38918544 70.09790117 84.39845276 71.84997559 C84.41492271 75.51832947 84.42263965 79.18659227 84.42553711 82.85498047 C84.43092934 87.55283355 84.46865203 92.24983022 84.51428127 96.9474411 C84.5440325 100.56430182 84.55126018 104.1809554 84.55226326 107.79792786 C84.5564668 109.52989133 84.56890654 111.26185534 84.58978081 112.99369812 C84.61666613 115.41636211 84.61188068 117.83702818 84.59936523 120.25976562 C84.61419952 120.97264236 84.62903381 121.6855191 84.64431763 122.41999817 C84.58736001 126.29567176 84.08980401 127.8887622 81.62269592 130.94470215 C79 133 79 133 76.4375 133.625 C72.87857409 132.7124549 71.95998508 131.06321069 70 128 C69.62984538 125.33761454 69.48420008 123.09641462 69.53344727 120.44335938 C69.53114105 119.69963577 69.52883484 118.95591217 69.52645874 118.18965149 C69.52383613 116.58112161 69.53023945 114.97255689 69.54471016 113.36408997 C69.56664197 110.81636699 69.56286612 108.2698283 69.55223083 105.7220459 C69.53058769 99.39664979 69.54793497 93.07151888 69.57373047 86.74615479 C69.59513656 81.39641474 69.59707651 76.04743537 69.57081413 70.69770813 C69.56646597 68.19068074 69.59109078 65.6849782 69.61634827 63.17810059 C69.61107672 61.63760794 69.60435373 60.09711935 69.59594727 58.55664062 C69.61085709 57.86246536 69.62576691 57.1682901 69.64112854 56.45307922 C69.58790298 52.82773654 69.03228622 51.0456471 66.92279053 48.06318665 C63.22744987 45.45465982 61.13995638 45.39403785 56.6394043 45.43237305 C55.55566277 45.43127785 55.55566277 45.43127785 54.45002747 45.43016052 C52.07398053 45.43362999 49.69992096 45.47245587 47.32421875 45.51171875 C45.67227754 45.52104928 44.02032245 45.52816426 42.36836243 45.53315735 C38.0295462 45.55220859 33.69157265 45.60129234 29.35308838 45.65667725 C24.92235716 45.70791071 20.4914892 45.73068008 16.06054688 45.75585938 C7.37331207 45.80941372 -1.31323901 45.89470274 -10 46 C-9.52923808 51.70358625 -9.52923808 51.70358625 -6.3125 56.09765625 C-5.77882812 56.58943359 -5.24515625 57.08121094 -4.6953125 57.58789062 C-4.13585937 58.07451172 -3.57640625 58.56113281 -3 59.0625 C2.70696747 64.06595881 2.70696747 64.06595881 4 68.1875 C4 71 4 71 2 73.9375 C-1 76 -1 76 -4.20947266 76.06811523 C-9.40715119 74.60348535 -11.97195767 71.80400159 -15.6484375 67.97265625 C-16.34643463 67.26854111 -17.04443176 66.56442596 -17.76358032 65.838974 C-19.98182974 63.59385244 -22.17806651 61.32846347 -24.375 59.0625 C-25.87496839 57.54100174 -27.37625704 56.02080384 -28.87890625 54.50195312 C-31.61371642 51.72504383 -34.34678385 48.94665088 -37.06005859 46.14868164 C-37.60520111 45.58766251 -38.15034363 45.02664337 -38.71200562 44.44862366 C-40.67715807 42.23839171 -41.02374159 40.85543328 -41.51196289 37.88256836 C-40.76691055 32.23232161 -37.77656796 29.76897988 -33.80859375 25.87890625 C-33.07052994 25.13414536 -32.33246613 24.38938446 -31.57203674 23.62205505 C-30.0093408 22.05460286 -28.43779849 20.49592732 -26.8581543 18.94555664 C-24.44556201 16.57043679 -22.07256867 14.16031325 -19.70117188 11.74414062 C-18.17671851 10.22431303 -16.65009505 8.70665838 -15.12109375 7.19140625 C-14.41351425 6.46965714 -13.70593475 5.74790802 -12.97691345 5.00428772 C-8.73330594 0.89834401 -6.20480671 -1.0858532 0 0 Z "
        fill="#508ED8" transform="translate(117,65)" />
    <path
        d="M0 0 C4.83614697 1.50027606 7.74443362 4.8203943 11.2421875 8.37597656 C12.01055939 9.13860809 12.77893127 9.90123962 13.57058716 10.6869812 C15.18986287 12.30217694 16.80159793 13.92496274 18.40625 15.5546875 C20.86617849 18.0467274 23.35643581 20.50517394 25.8515625 22.96191406 C27.42119824 24.53551469 28.98897171 26.11097557 30.5546875 27.68847656 C31.30144745 28.42309113 32.0482074 29.15770569 32.81759644 29.9145813 C37.85953667 35.09647399 37.85953667 35.09647399 38.56689453 39.29736328 C37.82770234 42.73100969 36.89600309 43.94918826 34 45.93066406 C31.2265625 46.40332031 31.2265625 46.40332031 28 45.93066406 C25.75781455 43.9950274 23.9252589 42.20169673 22 39.99316406 C18.1068683 35.43889428 18.1068683 35.43889428 12.75 33.05175781 C11.16768555 32.98208203 9.58384777 32.93066406 8 32.93066406 C7.99853344 33.63727015 7.99706688 34.34387625 7.99555588 35.07189465 C7.95850484 52.26488917 7.89951288 69.45766811 7.81609726 86.6505003 C7.77628718 94.96483878 7.74390474 103.27908234 7.72900391 111.59350586 C7.71599754 118.84033723 7.68905903 126.08695992 7.64538693 133.33367378 C7.62274903 137.17083629 7.6070907 141.00774121 7.60811615 144.84497643 C7.60886141 148.45746556 7.59096558 152.06938477 7.55883217 155.68172646 C7.54626454 157.63807853 7.55340769 159.59452617 7.56114197 161.55090332 C7.54027275 163.30294319 7.54027275 163.30294319 7.51898193 165.09037781 C7.51345118 166.60995354 7.51345118 166.60995354 7.50780869 168.16022778 C6.85886791 171.70063411 5.51326724 173.39526092 3 175.93066406 C0 176.55566406 0 176.55566406 -3 175.93066406 C-6.5156526 172.38404694 -7.50095415 170.04351168 -7.51898193 165.09037781 C-7.53289474 163.92235123 -7.54680756 162.75432465 -7.56114197 161.55090332 C-7.5561116 160.27847778 -7.55108124 159.00605225 -7.54589844 157.69506836 C-7.55463727 156.33473022 -7.56512414 154.97440236 -7.57722473 153.61408997 C-7.60506809 149.92847126 -7.6084898 146.24318823 -7.60750484 142.55747962 C-7.61063541 138.70302307 -7.63625657 134.84871738 -7.65948486 130.99433899 C-7.7000375 123.69881823 -7.7203838 116.40338684 -7.73345876 109.10777074 C-7.74933133 100.80059849 -7.787748 92.49357828 -7.82805204 84.18649423 C-7.91044087 67.10126287 -7.96453928 50.01605594 -8 32.93066406 C-12.28252149 32.67445585 -12.28252149 32.67445585 -16.125 34.25097656 C-16.74375 34.84652344 -17.3625 35.44207031 -18 36.05566406 C-18.67933594 36.68859375 -19.35867187 37.32152344 -20.05859375 37.97363281 C-21.27039969 39.19519172 -22.45572383 40.44432833 -23.59765625 41.73144531 C-26.28492791 44.73402351 -27.64692637 45.87082107 -31.6875 46.55566406 C-35 45.93066406 -35 45.93066406 -36.9375 44.30566406 C-38.3917852 41.0549089 -38.56364156 39.49935877 -38 35.93066406 C-35.84831024 32.86058347 -33.22164281 30.31205622 -30.5546875 27.68847656 C-29.79205597 26.92010468 -29.02942444 26.15173279 -28.24368286 25.3600769 C-26.62848713 23.7408012 -25.00570133 22.12906614 -23.37597656 20.52441406 C-20.88393666 18.06448557 -18.42549012 15.57422825 -15.96875 13.07910156 C-14.39514937 11.50946582 -12.81968849 9.94169235 -11.2421875 8.37597656 C-10.50757294 7.62921661 -9.77295837 6.88245667 -9.01608276 6.11306763 C-6.08953093 3.26555605 -3.93219445 1.21985069 0 0 Z "
        fill="#FB647D" transform="translate(256,9.0693359375)" />
    <path
        d="M0 0 C0.59280762 0.14147461 1.18561523 0.28294922 1.79638672 0.42871094 C8.31034604 1.87174884 14.46585568 2.3054159 21.125 2.25 C22.06214844 2.25773437 22.99929688 2.26546875 23.96484375 2.2734375 C29.67882451 2.25745434 34.50178599 1.51591896 40 0 C41.32 0 42.64 0 44 0 C45.03436857 3.78479693 45.46538575 7.08916967 45 11 C42.42815485 15.22025496 39.0553918 18.35385331 35.4375 21.6875 C34.52935547 22.59177734 33.62121094 23.49605469 32.68554688 24.42773438 C26.0217483 30.83020752 26.0217483 30.83020752 22 31.49853516 C16.15922508 30.52792461 12.61539435 25.72313575 8.5625 21.6875 C7.62728516 20.82576172 6.69207031 19.96402344 5.72851562 19.07617188 C-0.80631155 12.62764469 -0.80631155 12.62764469 -1.37158203 7.87744141 C-1.12605664 5.14777673 -0.72171849 2.64079748 0 0 Z "
        fill="#F6CDB1" transform="translate(234,400)" />
    <path
        d="M0 0 C1.9375 1 1.9375 1 3 3 C3.23595284 5.71882023 3.13477523 8.25957022 3 11 C4.258125 10.938125 5.51625 10.87625 6.8125 10.8125 C9.37705844 10.83065617 10.71463773 10.8484013 13 12.0625 C14.58433618 15.13215135 14.36248449 17.61681143 14 21 C13 22.9375 13 22.9375 11 24 C8.28117977 24.23595284 5.74042978 24.13477523 3 24 C3.061875 25.258125 3.12375 26.51625 3.1875 27.8125 C3.16934383 30.37705844 3.1515987 31.71463773 1.9375 34 C-1.13215135 35.58433618 -3.61681143 35.36248449 -7 35 C-8.9375 34 -8.9375 34 -10 32 C-10.23595284 29.28117977 -10.13477523 26.74042978 -10 24 C-11.258125 24.061875 -12.51625 24.12375 -13.8125 24.1875 C-16.37705844 24.16934383 -17.71463773 24.1515987 -20 22.9375 C-21.58433618 19.86784865 -21.36248449 17.38318857 -21 14 C-20 12.0625 -20 12.0625 -18 11 C-15.28117977 10.76404716 -12.74042978 10.86522477 -10 11 C-10.061875 9.741875 -10.12375 8.48375 -10.1875 7.1875 C-10.16934383 4.62294156 -10.1515987 3.28536227 -8.9375 1 C-5.86784865 -0.58433618 -3.38318857 -0.36248449 0 0 Z "
        fill="#87D146" transform="translate(370,371)" />
    <path
        d="M0 0 C0 12.21 0 24.42 0 37 C-7.02988763 37 -9.12420879 35.63899782 -14 31 C-18.24226848 25.56459351 -17.74746482 18.5844092 -17 12 C-13.701694 4.8959563 -7.86458607 0 0 0 Z "
        fill="#F6CDB1" transform="translate(193,302)" />
    <path
        d="M0 0 C7.91227437 1.13032491 7.91227437 1.13032491 11.3125 4.3125 C11.96863281 4.90675781 12.62476563 5.50101562 13.30078125 6.11328125 C17.57652785 10.86083437 17.54310152 15.45055378 17.4453125 21.66015625 C16.75350394 26.84872045 14.63476467 30.29899816 11 34 C6.80075655 36.82806192 5.19675728 37 0 37 C0 24.79 0 12.58 0 0 Z "
        fill="#F7CEB2" transform="translate(319,302)" />
    <path
        d="M0 0 C3 1 3 1 3.95703125 2.671875 C4.23933594 3.35765625 4.52164063 4.0434375 4.8125 4.75 C8.01853116 11.53852811 13.24123884 14.43167076 20 17 C20 17.66 20 18.32 20 19 C19.34773438 19.268125 18.69546875 19.53625 18.0234375 19.8125 C10.29759589 23.27659417 6.14734585 27.31488179 2.625 35 C2.41875 35.66 2.2125 36.32 2 37 C-0.75070359 35.6246482 -0.97558764 34.0460845 -2.1875 31.25 C-5.29600947 24.85012756 -8.88925708 22.18773821 -15.4375 19.6875 C-16.283125 19.460625 -17.12875 19.23375 -18 19 C-18 18.34 -18 17.68 -18 17 C-17.34773438 16.79246094 -16.69546875 16.58492187 -16.0234375 16.37109375 C-9.71400714 14.14697302 -5.55095364 11.77340364 -2 6 C-0.60794936 2.75381554 -0.60794936 2.75381554 0 0 Z "
        fill="#F5C84B" transform="translate(134,214)" />
    <path
        d="M0 0 C4.43702971 0.23983944 6.68750515 2.21053066 10 5 C15.25978309 6.75326103 20.20687254 6.69732734 25.375 4.6875 C27.98465779 3.18716136 27.98465779 3.18716136 29.5 1.25 C29.995 0.8375 30.49 0.425 31 0 C34.1875 0.3125 34.1875 0.3125 37 1 C37.9375 4.125 37.9375 4.125 38 8 C34.51499519 12.87900674 28.76584389 15.80164744 23 17 C14.54510242 18.05247688 8.06120538 16.85374758 1 12 C-1.6875 9.5 -1.6875 9.5 -3 7 C-2.84077523 3.57666749 -2.4368763 2.4368763 0 0 Z "
        fill="#080605" transform="translate(240,349)" />
    <path
        d="M0 0 C5.43733055 4.52991796 10.46458931 9.34294216 15.4375 14.375 C16.16904297 15.11105469 16.90058594 15.84710938 17.65429688 16.60546875 C19.43852723 18.40136074 21.22036124 20.19955985 23 22 C22.06409496 23.1055189 21.12620142 24.20935453 20.1875 25.3125 C19.66542969 25.92738281 19.14335937 26.54226563 18.60546875 27.17578125 C15.6626898 30.51952278 15.6626898 30.51952278 14 32 C13.34 32 12.68 32 12 32 C10.6953125 30.671875 10.6953125 30.671875 9.125 28.75 C5.80833472 24.84432862 2.30653623 21.18478783 -1.3125 17.5625 C-1.84020996 17.03043945 -2.36791992 16.49837891 -2.91162109 15.95019531 C-5.69109061 13.1250862 -5.69109061 13.1250862 -9 11 C-7.59155282 7.78475695 -5.89655214 5.67816132 -3.375 3.25 C-2.74335938 2.63640625 -2.11171875 2.0228125 -1.4609375 1.390625 C-0.73777344 0.70226562 -0.73777344 0.70226562 0 0 Z "
        fill="#96DEF2" transform="translate(222,414)" />
    <path
        d="M0 0 C2.32451316 1.13464357 3.78440716 2.56876899 5.55859375 4.4453125 C6.1721875 5.08597656 6.78578125 5.72664063 7.41796875 6.38671875 C7.876875 6.88042969 8.33578125 7.37414062 8.80859375 7.8828125 C4.27867579 13.32014305 -0.53434841 18.34740181 -5.56640625 23.3203125 C-6.30246094 24.05185547 -7.03851563 24.78339844 -7.796875 25.53710938 C-9.59276699 27.32133973 -11.3909661 29.10317374 -13.19140625 30.8828125 C-14.3000661 29.97158523 -15.40312844 29.05354591 -16.50390625 28.1328125 C-17.11878906 27.62234375 -17.73367188 27.111875 -18.3671875 26.5859375 C-20.25072954 24.82742716 -21.70714281 22.98361614 -23.19140625 20.8828125 C-20.28993205 17.85784706 -17.37245034 14.84956811 -14.43896484 11.85571289 C-13.44317898 10.83476452 -12.45192434 9.80937628 -11.46533203 8.77954102 C-10.04714128 7.30077427 -8.61347379 5.83868835 -7.17578125 4.37890625 C-5.88752441 3.05137329 -5.88752441 3.05137329 -4.57324219 1.69702148 C-2.19140625 -0.1171875 -2.19140625 -0.1171875 0 0 Z "
        fill="#97DFF2" transform="translate(290.19140625,415.1171875)" />
    <path
        d="M0 0 C3 1 3 1 4.6875 4.3125 C7.02343781 8.76452265 10.45500204 10.2239207 15 12 C14 14 14 14 11.1875 15.3125 C6.51300872 17.78723068 4.12070939 21.22840388 2 26 C0 25 0 25 -1.3125 22.1875 C-3.47506435 18.10265622 -5.86951559 15.69096792 -10.3125 14.25 C-10.869375 14.1675 -11.42625 14.085 -12 14 C-12 13.34 -12 12.68 -12 12 C-5.25 8 -5.25 8 -3 8 C-1.92474806 5.34771188 -0.90543849 2.71631546 0 0 Z "
        fill="#FC657D" transform="translate(329,8)" />
    <path
        d="M0 0 C2 1.625 2 1.625 3 4 C2.93439072 7.739729 2.76345433 10.0603639 0.375 13 C-3.11581787 14.46981805 -5.39148956 13.98413921 -9 13 C-11 11.375 -11 11.375 -12 9 C-11.93439072 5.260271 -11.76345433 2.9396361 -9.375 0 C-5.88418213 -1.46981805 -3.60851044 -0.98413921 0 0 Z "
        fill="#0C0A09" transform="translate(286,317)" />
    <path
        d="M0 0 C2.0625 1.5625 2.0625 1.5625 3 4 C2.87988224 7.42335626 2.60726153 9.95416069 0.875 12.9375 C-2.22289358 14.69297303 -4.52844534 14.48723574 -8 14 C-10.5 11.875 -10.5 11.875 -12 9 C-11.93689022 5.84451076 -11.48864121 3.86230802 -9.9375 1.125 C-6.76015463 -0.71991022 -3.56671699 -0.65253866 0 0 Z "
        fill="#F5C84B" transform="translate(404,330)" />
    <path
        d="M0 0 C2.0625 1.5625 2.0625 1.5625 3 4 C2.87988224 7.42335626 2.60726153 9.95416069 0.875 12.9375 C-2.22289358 14.69297303 -4.52844534 14.48723574 -8 14 C-10.5 11.875 -10.5 11.875 -12 9 C-11.93689022 5.84451076 -11.48864121 3.86230802 -9.9375 1.125 C-6.76015463 -0.71991022 -3.56671699 -0.65253866 0 0 Z "
        fill="#6FD6F9" transform="translate(116,276)" />
    <path
        d="M0 0 C4.36689189 1.42398649 4.36689189 1.42398649 5.875 3.9375 C6.37530235 7.86844707 6.4746142 10.0380787 4.25 13.375 C1.15814769 15.40911336 -0.48867425 15.54355429 -4.125 14.9375 C-6.5 13.375 -6.5 13.375 -8.125 10.9375 C-8.6875 7.4375 -8.6875 7.4375 -8.125 3.9375 C-5.45043116 0.79094842 -4.15592269 -0.08311845 0 0 Z "
        fill="#080605" transform="translate(233.125,316.0625)" />
</svg>