<?xml version="1.0" encoding="UTF-8"?>
<svg version="1.1" xmlns="http://www.w3.org/2000/svg" width="512" height="512">
<path d="M0 0 C2.84003807 2.31107311 5.45528983 4.80647248 8.0625 7.375 C9.38541806 8.65499151 10.70963562 9.93364132 12.03515625 11.2109375 C13.01186279 12.15501465 13.01186279 12.15501465 14.00830078 13.11816406 C16.64750499 15.61178824 19.37804283 17.98954193 22.12280273 20.36572266 C24.79669405 22.69359734 27.39599427 25.09412514 30 27.5 C33.90757084 31.09984964 37.85560819 34.64212401 41.87109375 38.12109375 C45.17292778 41.03518947 48.40641666 44.02432217 51.63305664 47.02124023 C54.31579966 49.50291656 57.04137904 51.83666031 59.9375 54.0625 C64.91028757 58.3527481 67.50673644 63.73162765 68.48046875 70.18359375 C68.84185676 78.47598342 67.17984242 85.34950508 61.54296875 91.62109375 C49.02684006 102.75021082 33.03693404 99 17 99 C17 132.99 17 166.98 17 202 C21.95 200.02 21.95 200.02 27 198 C40.74364519 194.26464671 54.02938451 193.44538438 68.203125 193.609375 C70.14751596 193.61686309 72.09191462 193.62254381 74.03631592 193.62652588 C79.08001659 193.64158055 84.1232343 193.68068045 89.16674805 193.7253418 C94.34286979 193.76673766 99.51907188 193.78463014 104.6953125 193.8046875 C114.79708373 193.84720076 124.89850125 193.91519748 135 194 C134.98428955 193.16339844 134.9685791 192.32679688 134.95239258 191.46484375 C134.90090995 188.3263584 134.86347892 185.18809012 134.83520508 182.04931641 C134.81290592 180.03663752 134.77476347 178.02415416 134.73632812 176.01171875 C134.6601727 165.90843257 135.90273969 158.82342393 142.25390625 150.76171875 C146.97332502 146.00006804 153.5288085 143.91873181 160.125 143.6875 C169.61078225 143.90449502 175.70693655 148.04983196 182.10498047 154.72998047 C185.18322288 158.03551235 188.19135151 161.40550044 191.125 164.83984375 C193.5293462 167.60985094 196.01382974 170.30372496 198.5 173 C202.10042705 176.9095363 205.6441825 180.85867211 209.125 184.875 C211.54550572 187.61823982 214.022265 190.30860252 216.5 193 C222.26386839 199.27069969 227.90404222 205.60624044 233.3125 212.1875 C233.96863281 212.98542969 234.62476563 213.78335938 235.30078125 214.60546875 C240.14949465 221.43825338 239.75407948 228.9677826 239 237 C236.72542243 245.8722653 227.76979502 252.9135824 221.60742188 259.30712891 C219.10614079 261.94137602 216.7545107 264.69458716 214.4296875 267.484375 C212.73602637 269.2798409 211.09021121 270.68112868 209 272 C205.57180074 271.87971231 203.05274169 271.6667364 200.125 269.8125 C198.47738308 267.15800608 198.12466901 265.11672513 198 262 C200.24184643 257.38163792 203.67370169 253.97415242 207.1875 250.3125 C216.81937121 240.98713266 216.81937121 240.98713266 223 229.5 C220.18636267 219.65226933 210.16177376 211.78715846 203.2578125 204.47265625 C200.34951954 201.38618724 197.53569202 198.23388009 194.76953125 195.01953125 C192.39115541 192.30513764 189.94489371 189.65429243 187.5 187 C184.44141586 183.67804636 181.39883239 180.34688268 178.4375 176.9375 C177.89996094 176.32648438 177.36242187 175.71546875 176.80859375 175.0859375 C175.3837623 173.44261138 173.98561865 171.77614478 172.59765625 170.1015625 C171.31181641 168.59722656 171.31181641 168.59722656 170 167.0625 C169.21625 166.12535156 168.4325 165.18820313 167.625 164.22265625 C164.37975726 161.47482423 162.19759571 161.17715527 158 161 C155.45154742 161.75764807 154.43071077 162.38821137 152.90942383 164.54907227 C151.56959358 168.15995973 151.7419571 171.72769085 151.76171875 175.52734375 C151.74630224 177.22331532 151.72999884 178.91927902 151.71289062 180.61523438 C151.69642852 183.27939256 151.68751451 185.94297278 151.69458008 188.60717773 C151.69720191 191.18539362 151.66907402 193.76186158 151.63671875 196.33984375 C151.64692551 197.13269272 151.65713226 197.92554169 151.66764832 198.74241638 C151.6544606 199.48991653 151.64127289 200.23741669 151.62768555 201.00756836 C151.62705612 201.6594664 151.6264267 202.31136444 151.6257782 202.98301697 C150.5581886 206.42402868 148.85697949 207.85046961 146 210 C142.90182265 210.7068888 139.88841903 210.65020648 136.72192383 210.59594727 C135.79425705 210.6000058 134.86659027 210.60406433 133.91081238 210.60824585 C131.89798281 210.61376071 129.88509611 210.60776126 127.87232399 210.59158516 C124.66990245 210.5661109 121.46876547 210.57098544 118.26628113 210.58348083 C111.44821332 210.60423842 104.63054156 210.58460257 97.8125 210.5625 C89.9505026 210.5412902 82.08892408 210.53711384 74.22693443 210.56300163 C71.10189282 210.56631882 67.97768192 210.54527745 64.85273743 210.52259827 C36.44168477 210.4783765 12.54771584 218.76572389 -8 239 C-22.75495573 253.72773257 -30.8393591 272.65085245 -34 293 C-34.16846436 294.05646729 -34.16846436 294.05646729 -34.34033203 295.13427734 C-34.9686239 299.63012561 -35.14490888 303.59236957 -34 308 C-30.84773049 311.56596846 -27.07297251 313.6090047 -23 316 C-13.89384851 323.18116294 -5.88184367 331.99487782 0 342 C0.01401855 340.12634766 0.01401855 340.12634766 0.02832031 338.21484375 C0.06871939 333.50291529 0.13460661 328.79160616 0.20751953 324.08007812 C0.23544363 322.05542054 0.2567974 320.03065973 0.27099609 318.00585938 C0.42599738 297.13235283 2.65543253 279.08323801 17.65234375 263.28515625 C34.03304857 247.34054341 52.66294152 245.52203497 74.4375 245.53125 C76.49202682 245.52413661 78.54655168 245.51643592 80.60107422 245.50817871 C84.8807531 245.49481014 89.16024762 245.49313371 93.43994141 245.49902344 C98.92224871 245.5049539 104.40368092 245.47415475 109.88581848 245.43390656 C114.11689009 245.40807937 118.34774837 245.40514683 122.57888794 245.40879822 C124.60110702 245.40710654 126.6233359 245.3974594 128.64547729 245.37965393 C131.46477722 245.35753151 134.28226911 245.36712693 137.1015625 245.38476562 C137.93278122 245.37150238 138.76399994 245.35823914 139.6204071 245.34457397 C143.84386008 245.40600622 145.53722608 245.65161261 149.01890564 248.27270508 C150.98061371 250.97331166 151.62094923 252.00267603 151.59594727 255.25195312 C151.6026796 256.05628784 151.60941193 256.86062256 151.61634827 257.68933105 C151.5998674 258.54466431 151.58338654 259.39999756 151.56640625 260.28125 C151.57485817 261.6179071 151.57485817 261.6179071 151.58348083 262.98156738 C151.5999105 265.82158302 151.58440511 268.66003882 151.5625 271.5 C151.54589149 274.33981477 151.53682806 277.1786018 151.55223083 280.01843262 C151.56149145 281.78251474 151.55241051 283.54681444 151.52259827 285.31066895 C151.54066122 289.36876081 151.68083396 291.47934642 153.84741211 295.01367188 C156.65201825 297.60165822 158.18720664 298.07625587 162 298 C166.74502372 295.28482824 170.13127296 291.99110145 173.6875 287.9375 C175.45622479 285.95643172 177.22785544 283.97801379 179 282 C179.53496094 281.401875 180.06992187 280.80375 180.62109375 280.1875 C183.18065464 277.98323226 185.7355736 278.05628321 189 278 C191.9375 279.4375 191.9375 279.4375 194 282 C194.84885376 285.51667985 195.07732839 286.69391289 194 290 C191.36138923 293.69526269 188.18946705 296.78144966 185 300 C183.47438129 301.78759364 181.95340142 303.57915859 180.4375 305.375 C174.67010371 311.73110975 169.19116835 314.57464637 160.578125 315.08984375 C152.90578456 314.82247431 147.20781334 312.17357719 141.69140625 306.90234375 C136.10302422 300.61702724 134.86964931 294.84837413 134.90234375 286.609375 C134.90446617 285.55245453 134.90446617 285.55245453 134.90663147 284.47418213 C134.91221067 282.23274416 134.92475927 279.99140757 134.9375 277.75 C134.94251769 276.22656395 134.94708013 274.70312632 134.95117188 273.1796875 C134.96217326 269.45309228 134.97942354 265.72655604 135 262 C124.77637025 262.06147433 114.55299024 262.13876752 104.32963181 262.23571491 C99.58142578 262.28025633 94.83330235 262.3195473 90.08496094 262.34643555 C85.49416282 262.3726316 80.90368539 262.41314656 76.31308746 262.46318626 C74.57024403 262.47974556 72.82734527 262.49132739 71.08443451 262.49761391 C55.44619252 262.55967379 42.02911479 263.86194078 29.93359375 274.8828125 C21.00523931 284.40896173 17.67330821 295.80291643 17.74171448 308.61018372 C17.73620092 309.83642544 17.73620092 309.83642544 17.73057598 311.08743972 C17.72067254 313.80030178 17.72473129 316.51295578 17.72875977 319.22583008 C17.72436854 321.18123592 17.71906495 323.13663989 17.71292114 325.09204102 C17.70145499 329.28913833 17.69596425 333.48618539 17.69503975 337.68329811 C17.69309466 344.3179392 17.67501977 350.9524765 17.65428162 357.58708191 C17.60516427 374.05839184 17.57416936 390.52972972 17.55297852 407.00109863 C17.53646855 419.81815597 17.51371135 432.63512373 17.46995777 445.45212096 C17.44815061 452.05021545 17.44012626 458.64813986 17.44235051 465.24626791 C17.44068724 469.34367004 17.42666119 473.44096036 17.40913773 477.53832245 C17.40352551 479.44107185 17.40306461 481.3438443 17.40807533 483.24659538 C17.41418922 485.8395657 17.40203558 488.4318261 17.38526917 491.0247345 C17.39148098 491.78124276 17.3976928 492.53775103 17.40409285 493.31718379 C17.36706316 496.44958817 17.18378392 498.66504855 15.66342068 501.43595409 C12.63381922 504.28456348 9.55221705 504.13338781 5.59814453 504.16113281 C4.49334747 504.17074036 3.38855042 504.1803479 2.25027466 504.19024658 C1.05651215 504.19449646 -0.13725037 504.19874634 -1.3671875 504.203125 C-3.20750046 504.21167511 -3.20750046 504.21167511 -5.08499146 504.22039795 C-7.68246599 504.22985044 -10.27995253 504.23638291 -12.87744141 504.24023438 C-16.85210049 504.24994406 -20.82624347 504.28096778 -24.80078125 504.3125 C-27.32291359 504.31902961 -29.84504964 504.32428025 -32.3671875 504.328125 C-33.55690155 504.3404718 -34.7466156 504.3528186 -35.97238159 504.36553955 C-37.08348297 504.36253845 -38.19458435 504.35953735 -39.33935547 504.35644531 C-40.31403778 504.36009094 -41.28872009 504.36373657 -42.29293823 504.36749268 C-45.50614149 503.9312896 -47.38986358 502.89401236 -50 501 C-51.13558866 498.72882269 -51.12927333 497.48305576 -51.13803101 494.9611969 C-51.14348434 494.11610062 -51.14893768 493.27100433 -51.15455627 492.40029907 C-51.1555986 491.47099579 -51.15664093 490.5416925 -51.15771484 489.58422852 C-51.16279556 488.60674149 -51.16787628 487.62925446 -51.17311096 486.62214661 C-51.18383218 484.49303148 -51.19244545 482.36390495 -51.19923019 480.23477364 C-51.21100891 476.85843642 -51.23046265 473.48222771 -51.25234985 470.10594177 C-51.31397599 460.50369591 -51.36788121 450.90146064 -51.40136719 441.29907227 C-51.42239114 435.42870658 -51.45776482 429.55857098 -51.50212479 423.68833733 C-51.5162332 421.45621399 -51.5249955 419.22404989 -51.52817917 416.99188423 C-51.53312448 413.85445489 -51.55637837 410.71762784 -51.58349609 407.58032227 C-51.58048996 406.66923706 -51.57748383 405.75815186 -51.5743866 404.81945801 C-51.73304444 392.36946239 -55.8149464 380.92707738 -64.20703125 371.62890625 C-74.46289597 362.31148667 -86.57399553 359.9062706 -99.9765625 359.79467773 C-100.72875565 359.78477814 -101.48094879 359.77487854 -102.25593567 359.76467896 C-104.71225976 359.73339689 -107.16860312 359.70844005 -109.625 359.68359375 C-111.33992989 359.66299537 -113.05485503 359.64199819 -114.76977539 359.62062073 C-119.261008 359.56569769 -123.75228414 359.51615843 -128.24359131 359.46777344 C-132.83561022 359.41733963 -137.42756672 359.36176832 -142.01953125 359.30664062 C-151.01296738 359.19942373 -160.00645795 359.09789937 -169 359 C-168.98428955 359.92748047 -168.9685791 360.85496094 -168.95239258 361.81054688 C-168.90095943 365.28456322 -168.86350318 368.75816906 -168.83520508 372.23242188 C-168.82021112 373.72988307 -168.79980895 375.22730105 -168.77368164 376.72460938 C-168.58599935 387.76474414 -169.15278022 396.22463249 -176.25390625 405.23828125 C-180.97332502 409.99993196 -187.5288085 412.08126819 -194.125 412.3125 C-203.61078225 412.09550498 -209.70693655 407.95016804 -216.10498047 401.27001953 C-219.18322288 397.96448765 -222.19135151 394.59449956 -225.125 391.16015625 C-227.5293462 388.39014906 -230.01382974 385.69627504 -232.5 383 C-236.10042705 379.0904637 -239.6441825 375.14132789 -243.125 371.125 C-245.54550572 368.38176018 -248.022265 365.69139748 -250.5 363 C-256.26386839 356.72930031 -261.90404222 350.39375956 -267.3125 343.8125 C-267.96863281 343.01457031 -268.62476563 342.21664063 -269.30078125 341.39453125 C-272.73025677 336.56173011 -273.31479617 332.58145533 -273.375 326.6875 C-273.40335937 325.43324219 -273.43171875 324.17898438 -273.4609375 322.88671875 C-272.44110503 314.28728394 -267.590751 308.99100993 -261.6875 303 C-260.39839421 301.66796737 -259.11062984 300.33463522 -257.82421875 299 C-257.1885498 298.34257812 -256.55288086 297.68515625 -255.89794922 297.0078125 C-253.39770329 294.36283919 -251.01379581 291.62651816 -248.63208008 288.875 C-246.30511096 286.2016832 -243.90517699 283.60325039 -241.5 281 C-238.46031004 277.70047223 -235.43841941 274.39048393 -232.5 271 C-229.09774417 267.07432019 -225.58320959 263.25425355 -222.05786133 259.43945312 C-219.36233343 256.51530125 -216.74771107 253.54273423 -214.1875 250.5 C-209.42828306 245.06411715 -204.28132154 241.8391594 -197 241 C-189.29508855 240.88957929 -182.83028829 242.53120479 -177.0546875 247.76171875 C-168.68919563 256.66974251 -168.58777519 265.23363924 -168.8125 277 C-168.82757524 278.36066226 -168.84125862 279.72134069 -168.85351562 281.08203125 C-168.88869017 284.38843843 -168.93791712 287.69400684 -169 291 C-167.4626268 290.99000725 -167.4626268 290.99000725 -165.89419556 290.97981262 C-156.15774967 290.91856369 -146.42134369 290.87381967 -136.6847477 290.84456348 C-131.68102512 290.82901618 -126.67746008 290.80798202 -121.67382812 290.77368164 C-116.83029036 290.74069272 -111.98690254 290.72306518 -107.14326096 290.71536827 C-105.31041483 290.70989473 -103.47757538 290.69921041 -101.64479446 290.68280983 C-83.77855813 290.52953201 -67.78232511 292.73756895 -51 299 C-51.00368717 298.38008556 -51.00737434 297.76017113 -51.01117325 297.12147141 C-51.09949548 282.04032712 -51.16569543 266.95926212 -51.20724869 251.87792587 C-51.22787748 244.58470118 -51.25600385 237.29164908 -51.30175781 229.99853516 C-51.34161622 223.64213612 -51.36743052 217.28586208 -51.37635398 210.92934155 C-51.38157053 207.56327928 -51.39383709 204.1975746 -51.42292023 200.83162689 C-51.45185254 197.07470783 -51.4559601 193.31853553 -51.45410156 189.56152344 C-51.46848267 188.44446518 -51.48286377 187.32740692 -51.49768066 186.17649841 C-51.49218201 185.15288712 -51.48668335 184.12927582 -51.48101807 183.074646 C-51.48470524 182.18603756 -51.48839241 181.29742912 -51.49219131 180.38189316 C-50.8319101 177.1865517 -49.53479661 175.99322458 -47 174 C-43.5625 173.4375 -43.5625 173.4375 -40 174 C-36.81255874 176.52808198 -35.20040173 178.03788704 -34.36076355 182.06892395 C-34.3507708 183.78434639 -34.3507708 183.78434639 -34.34057617 185.53442383 C-34.32093307 186.83539505 -34.30128998 188.13636627 -34.28105164 189.47676086 C-34.2844946 190.88685238 -34.28847959 192.29694267 -34.29296875 193.70703125 C-34.27984698 195.1572222 -34.26454126 196.6073949 -34.24714661 198.05754089 C-34.20733846 201.86341007 -34.19710899 205.66880071 -34.19311523 209.47485352 C-34.1837757 213.36294025 -34.14635717 217.25074674 -34.11132812 221.13867188 C-34.0467952 228.75911703 -34.01352014 236.37927545 -34 244 C-33.02051392 242.70219604 -33.02051392 242.70219604 -32.02124023 241.37817383 C-23.13991189 229.6757064 -13.69375249 218.73454453 -1 211 C-0.34 211 0.32 211 1 211 C0.99631283 210.37069989 0.99262566 209.74139978 0.98882675 209.09302998 C0.90047357 193.77786604 0.8342895 178.4627908 0.79275131 163.14743519 C0.7721296 155.74101926 0.74401671 148.3347735 0.69824219 140.9284668 C0.65836216 134.47280869 0.63256433 128.01727383 0.62364602 121.56149596 C0.61843315 118.14342504 0.60618987 114.72570667 0.57707977 111.30774879 C0.54811467 107.4911659 0.5440413 103.6753174 0.54589844 99.85864258 C0.53151733 98.72647812 0.51713623 97.59431366 0.50231934 96.42784119 C0.54246121 88.82227945 0.54246121 88.82227945 2.78219604 84.79707336 C6.15478798 82.06428217 9.56221126 82.33039529 13.7109375 82.3984375 C14.55669342 82.39043121 15.40244934 82.38242493 16.27383423 82.37417603 C18.97471063 82.3511113 21.67408319 82.36056174 24.375 82.375 C27.06849484 82.37885473 29.76132191 82.37533709 32.45474243 82.35440063 C34.12867286 82.34236884 35.80279072 82.344886 37.47665405 82.36410522 C42.38275883 82.34073516 45.74864286 81.72608007 50 79 C51.55024464 75.89951072 51.28992015 73.42105782 51 70 C48.54272975 65.90454959 44.86450146 63.02435125 41.265625 59.9453125 C38.85245053 57.87331097 36.48619051 55.75601156 34.125 53.625 C33.28195312 52.86445312 32.43890625 52.10390625 31.5703125 51.3203125 C30.29800781 50.17175781 30.29800781 50.17175781 29 49 C27.33359149 47.49971321 25.66692647 45.99971128 24 44.5 C17.33333333 38.5 10.66666667 32.5 4 26.5 C2.77410156 25.39978516 2.77410156 25.39978516 1.5234375 24.27734375 C-0.22959045 22.69527673 -1.97378472 21.10338842 -3.7109375 19.50390625 C-5.02964844 18.29541016 -5.02964844 18.29541016 -6.375 17.0625 C-7.16648437 16.33160156 -7.95796875 15.60070312 -8.7734375 14.84765625 C-11.78230254 12.35082614 -13.81392952 11.02695615 -17.75 10.9375 C-22.53312967 12.50121547 -25.39647266 15.57600783 -29 19 C-30.6216073 20.46210494 -32.24675117 21.92029493 -33.875 23.375 C-35.58358685 24.91638569 -37.29191862 26.45805419 -39 28 C-40.66640851 29.50028679 -42.33307353 31.00028872 -44 32.5 C-44.825 33.2425 -45.65 33.985 -46.5 34.75 C-54 41.5 -54 41.5 -56.4921875 43.7421875 C-58.18592894 45.26708244 -59.87861169 46.79315402 -61.5703125 48.3203125 C-67.32579409 53.51256653 -73.0827944 58.70529607 -79.015625 63.6953125 C-79.64984375 64.22898437 -80.2840625 64.76265625 -80.9375 65.3125 C-81.50339844 65.78300781 -82.06929687 66.25351563 -82.65234375 66.73828125 C-84.94862375 68.8881318 -85.01658785 70.17914874 -85.3125 73.375 C-85.32512451 77.01402973 -85.32512451 77.01402973 -83.1875 79.375 C-78.86600192 82.58525572 -74.46325724 82.13421692 -69.31640625 82.140625 C-67.56704421 82.15894737 -65.81769487 82.17851715 -64.06835938 82.19921875 C-61.31187411 82.22822662 -58.55620858 82.25000111 -55.79956055 82.25048828 C-53.13777021 82.25381939 -50.47786894 82.28833859 -47.81640625 82.328125 C-46.99338516 82.3210553 -46.17036407 82.3139856 -45.32240295 82.30670166 C-44.16616676 82.33132477 -44.16616676 82.33132477 -42.98657227 82.35644531 C-42.31167252 82.36009094 -41.63677277 82.36373657 -40.94142151 82.36749268 C-37.79188543 83.39359887 -36.71445242 85.2376039 -35 88 C-34.50552368 91.07997131 -34.50552368 91.07997131 -34.51416016 94.56274414 C-34.50493027 96.52486595 -34.50493027 96.52486595 -34.49551392 98.52662659 C-34.5093097 99.94614366 -34.52384366 101.36565372 -34.5390625 102.78515625 C-34.54144866 104.24816221 -34.54235188 105.71117126 -34.5418396 107.17417908 C-34.54496215 110.23488652 -34.56148599 113.29512372 -34.58837891 116.35571289 C-34.62238832 120.27545064 -34.63000629 124.19467303 -34.62848854 128.11454105 C-34.62903277 131.13346764 -34.64000789 134.15228198 -34.65449142 137.17117119 C-34.66084694 138.61643055 -34.6647954 140.0617026 -34.66627884 141.50697517 C-34.6706232 143.52691356 -34.68972243 145.54680389 -34.70947266 147.56665039 C-34.71709625 148.71516983 -34.72471985 149.86368927 -34.73257446 151.04701233 C-34.99422834 153.93626769 -35.43780615 155.58633618 -37 158 C-39.67633026 160.0815902 -41.11753668 159.99587591 -44.5625 159.875 C-48 159 -48 159 -49.69355774 157.29498291 C-51.30843446 154.45818362 -51.36256684 152.65989269 -51.34057617 149.40527344 C-51.34034958 148.28441345 -51.34012299 147.16355347 -51.33988953 146.00872803 C-51.32440567 144.80444153 -51.30892181 143.60015503 -51.29296875 142.359375 C-51.28872391 141.12205627 -51.28447906 139.88473755 -51.28010559 138.60992432 C-51.26616254 135.32837459 -51.23923086 132.04726944 -51.20599365 128.76586914 C-51.17524594 125.41426693 -51.16184603 122.06264561 -51.14648438 118.7109375 C-51.11339996 112.14045123 -51.06318845 105.57026198 -51 99 C-51.80630859 99.01047363 -52.61261719 99.02094727 -53.44335938 99.03173828 C-57.12887401 99.07354696 -60.81433854 99.09940513 -64.5 99.125 C-65.7684375 99.14175781 -67.036875 99.15851563 -68.34375 99.17578125 C-78.28306284 99.2275485 -87.16218034 98.73890886 -95 92 C-101.49920928 83.97819939 -102.93099852 77.25276854 -102 67 C-99.62388844 56.58287514 -89.67593685 49.68535262 -82 43 C-81.22914063 42.319375 -80.45828125 41.63875 -79.6640625 40.9375 C-78.45426308 39.87573511 -77.23959908 38.81948069 -76.01953125 37.76953125 C-73.30513807 35.3911558 -70.65427613 32.94491095 -68 30.5 C-64.09025645 26.89979545 -60.14133329 23.35582218 -56.125 19.875 C-53.38175867 17.45449294 -50.69146418 14.97766406 -48 12.5 C-33.20970369 -1.0881521 -19.52769193 -13.00540572 0 0 Z M-204.96484375 263.953125 C-205.96245417 265.04598216 -206.95316686 266.14516897 -207.9375 267.25 C-208.46400146 267.83064209 -208.99050293 268.41128418 -209.53295898 269.00952148 C-212.78456324 272.60587897 -215.98895574 276.24272877 -219.16015625 279.91015625 C-221.56670191 282.64370599 -224.03304949 285.32112354 -226.5 288 C-230.12285015 291.93491261 -233.69511531 295.90473252 -237.1953125 299.94921875 C-239.40483808 302.46004328 -241.67266951 304.91397599 -243.9375 307.375 C-245.62957615 309.24587133 -247.31713225 311.1208413 -249 313 C-249.79792969 313.88429688 -250.59585938 314.76859375 -251.41796875 315.6796875 C-254.46325571 319.22623408 -256.70692434 321.97423518 -258 326.5 C-255.18636267 336.34773067 -245.16177376 344.21284154 -238.2578125 351.52734375 C-235.34951954 354.61381276 -232.53569202 357.76611991 -229.76953125 360.98046875 C-227.3911558 363.69486193 -224.94491095 366.34572387 -222.5 369 C-219.46105508 372.30022784 -216.43843789 375.60949474 -213.5 379 C-212.96375 379.60972656 -212.4275 380.21945312 -211.875 380.84765625 C-210.82457282 382.05345912 -209.77869863 383.26340049 -208.75 384.48779297 C-207.3491017 386.15185718 -205.92593472 387.79486964 -204.5 389.4375 C-203.84161133 390.23704102 -203.84161133 390.23704102 -203.16992188 391.05273438 C-200.64152517 393.92371208 -199.07977826 394.97994924 -195.33203125 395.921875 C-191.46096777 396.0126385 -189.95987302 395.45246622 -187 393 C-185.30305014 390.19240762 -184.74839251 388.09240836 -184.72875977 384.82983398 C-184.71857315 384.01896835 -184.70838654 383.20810272 -184.69789124 382.37266541 C-184.69575119 381.50589676 -184.69361115 380.63912811 -184.69140625 379.74609375 C-184.66625852 377.90429354 -184.64086032 376.06249674 -184.61523438 374.22070312 C-184.58642903 371.32170402 -184.56240493 368.42276375 -184.54370117 365.52368164 C-184.52210081 362.72251802 -184.48268043 359.92202628 -184.44140625 357.12109375 C-184.44129044 356.25230087 -184.44117462 355.383508 -184.4410553 354.48838806 C-184.42771652 353.68067459 -184.41437775 352.87296112 -184.40063477 352.04077148 C-184.39556412 351.33113754 -184.39049347 350.6215036 -184.38526917 349.8903656 C-183.88093561 347.41579746 -182.96382384 346.54741409 -181 345 C-177.3210071 343.77366903 -173.92568511 343.85245332 -170.09472656 343.85473633 C-169.28932938 343.85137772 -168.48393219 343.8480191 -167.65412903 343.84455872 C-164.9829454 343.83503878 -162.31182456 343.83310415 -159.640625 343.83203125 C-157.77512588 343.82881607 -155.90962701 343.8254518 -154.04412842 343.82194519 C-150.12332578 343.81594899 -146.20254518 343.81410546 -142.28173828 343.81469727 C-137.29590113 343.81479816 -132.31020874 343.80122422 -127.32440567 343.78392506 C-123.4635353 343.77270864 -119.60269864 343.7707811 -115.74181366 343.77130699 C-113.90650693 343.77013833 -112.07119901 343.76578032 -110.23590851 343.75797462 C-87.31819196 343.66973732 -68.6982809 345.76133155 -50.94140625 361.8671875 C-36.36875576 376.99158645 -35.54929747 396.89771029 -35.48828125 416.61328125 C-35.47140579 418.67979479 -35.45325177 420.74629824 -35.43388367 422.81278992 C-35.38668874 428.20979662 -35.35668296 433.60676242 -35.33044434 439.00390625 C-35.3004837 444.52807693 -35.25400721 450.05210706 -35.20898438 455.57617188 C-35.12329884 466.38405661 -35.05732969 477.19192763 -35 488 C-23.12 488 -11.24 488 1 488 C1.0680534 475.61183774 1.12297546 463.22380171 1.15543652 450.83549404 C1.17102419 445.08174576 1.19213509 439.32813313 1.22631836 433.57446289 C1.2591595 428.01123299 1.27690475 422.44813274 1.28463173 416.88481331 C1.29013113 414.77317327 1.30086871 412.66153949 1.31719017 410.54995537 C1.54084266 380.38731357 -5.99742763 355.4957689 -27.55859375 333.375 C-45.8334782 315.97540029 -69.49882495 306.8729056 -94.56542969 306.84228516 C-95.94742805 306.83466408 -95.94742805 306.83466408 -97.35734558 306.82688904 C-99.34395165 306.81624567 -101.33056925 306.80760222 -103.31719208 306.80076981 C-106.46105591 306.78891475 -109.60478643 306.76944961 -112.74859619 306.74765015 C-121.6821248 306.68622396 -130.61563464 306.63186859 -139.54931641 306.59863281 C-145.02457908 306.57772018 -150.49958968 306.54245826 -155.97470856 306.49787521 C-158.05910535 306.48370332 -160.14354663 306.4749901 -162.2279892 306.47182083 C-165.13631252 306.46692653 -168.04396158 306.44381135 -170.95214844 306.41650391 C-171.81351913 306.41951004 -172.67488983 306.42251617 -173.56236267 306.4256134 C-177.03829917 306.37700708 -179.40452053 306.30214795 -182.53633118 304.71305847 C-185.06719694 301.75096694 -184.49902706 298.09262365 -184.43359375 294.38671875 C-184.44320294 292.6464835 -184.45297365 290.90624914 -184.46289062 289.16601562 C-184.45430404 286.4273858 -184.43751211 283.6889917 -184.4152832 280.95043945 C-184.40071857 278.30373495 -184.41605002 275.6583762 -184.43359375 273.01171875 C-184.41711288 272.19902023 -184.40063202 271.38632172 -184.38365173 270.54899597 C-184.41962023 266.43155819 -184.74289901 263.7873991 -187.35180664 260.50708008 C-189.81313046 257.85694644 -189.81313046 257.85694644 -192.9375 256.875 C-198.09974295 257.08570379 -201.50508929 260.34219669 -204.96484375 263.953125 Z " fill="#000000" transform="translate(273,7)"/>
</svg>
