<?xml version="1.0" encoding="UTF-8"?>
<svg version="1.1" xmlns="http://www.w3.org/2000/svg" width="512" height="512">
<path d="M0 0 C1.63002629 -0.01673168 3.25997438 -0.04424077 4.88964844 -0.08203125 C7.27584667 -0.13675511 9.66037879 -0.15863826 12.04711914 -0.17333984 C12.77112411 -0.19600922 13.49512909 -0.21867859 14.24107361 -0.24203491 C17.9737837 -0.22642784 19.86846701 0.26596467 22.94775391 2.42382812 C25.51913158 6.11093577 25.60672176 8.22016242 25.58227539 12.69384766 C25.58430717 13.76342712 25.58430717 13.76342712 25.58638 14.85461426 C25.58138925 17.187579 25.5371475 19.51766206 25.48852539 21.85009766 C25.46960045 23.48030266 25.45096759 25.11051108 25.43261719 26.74072266 C24.68979926 74.90885393 13.77089953 123.0138812 -4.82397461 167.41259766 C-5.17250488 168.25677246 -5.52103516 169.10094727 -5.88012695 169.97070312 C-7.91159123 174.62827734 -9.92469004 178.1376949 -14.01147461 181.35009766 C-17.11523042 182.25358822 -19.87031603 182.07848226 -23.01147461 181.35009766 C-26.70680094 178.42463097 -28.7598304 176.20918342 -29.39428711 171.52197266 C-29.29792514 165.49779524 -26.24035006 160.02541496 -23.88647461 154.60009766 C-20.37834957 146.27217761 -17.01072733 137.98255046 -14.32397461 129.35009766 C-14.0808252 128.5744043 -13.83767578 127.79871094 -13.5871582 126.99951172 C-12.68505176 124.01598614 -12.01147461 121.48416576 -12.01147461 118.35009766 C-13.42686523 118.00398438 -13.42686523 118.00398438 -14.87084961 117.65087891 C-42.80784914 110.6364417 -65.95293736 95.08363702 -80.94067383 70.20361328 C-86.8458544 59.98196921 -90.75579656 48.91942534 -93.01147461 37.35009766 C-100.40033088 38.60290742 -107.28721092 40.60279129 -114.32397461 43.16259766 C-115.39212402 43.5500415 -116.46027344 43.93748535 -117.56079102 44.33666992 C-164.71827318 61.83276939 -207.50233906 88.16257122 -246.01147461 120.35009766 C-246.52758301 120.77983887 -247.04369141 121.20958008 -247.57543945 121.65234375 C-264.70953507 135.96230655 -281.88447204 151.31054212 -296.32397461 168.38525391 C-298.40618116 170.80967496 -300.58649668 173.13359798 -302.76147461 175.47509766 C-307.50580534 180.6780948 -311.85580186 186.116896 -316.15991211 191.68603516 C-318.07043545 194.15638013 -320.01230502 196.59565813 -321.98803711 199.01416016 C-329.16940863 207.81218288 -335.73826028 216.88505024 -342.01147461 226.35009766 C-342.46377441 227.0279834 -342.91607422 227.70586914 -343.38208008 228.40429688 C-361.10932306 254.65318676 -361.10932306 254.65318676 -374.01147461 283.35009766 C-349.75647461 307.60509766 -349.75647461 307.60509766 -325.01147461 332.35009766 C-320.98251492 330.33561781 -318.89431224 328.46395693 -315.75561523 325.28955078 C-315.24451706 324.77553207 -314.73341888 324.26151337 -314.20683289 323.73191833 C-313.1007978 322.61828855 -311.99707883 321.50235468 -310.89543152 320.38438416 C-309.15128211 318.6146641 -307.4009224 316.85130568 -305.64880371 315.08947754 C-301.93073712 311.34857323 -298.2205548 307.59990933 -294.51147461 303.85009766 C-290.21290239 299.50432042 -285.91115707 295.16178831 -281.60087585 290.82762146 C-279.87736027 289.09114972 -278.15998418 287.3487587 -276.44274902 285.6060791 C-275.38457476 284.54063878 -274.32611812 283.4754788 -273.26733398 282.41064453 C-272.34674194 281.47957886 -271.4261499 280.54851318 -270.47766113 279.5892334 C-266.42030811 275.90542275 -263.55568752 274.89714886 -257.98022461 275.02197266 C-254.86830857 275.54062533 -253.16079592 277.1356454 -251.01147461 279.35009766 C-249.42822704 282.51659279 -249.36773225 285.9246796 -250.01147461 289.35009766 C-252.67504589 293.74436173 -255.69590165 297.27888457 -259.33081055 300.89648438 C-259.84833389 301.41429977 -260.36585724 301.93211517 -260.89906311 302.46562195 C-262.59328984 304.1584668 -264.2944661 305.844136 -265.99584961 307.52978516 C-267.17884301 308.70904436 -268.36139261 309.88874892 -269.54351807 311.06887817 C-272.64290816 314.16066383 -275.74825895 317.24639367 -278.85491943 320.33087158 C-282.02923906 323.48466387 -285.19784332 326.64418702 -288.36694336 329.80322266 C-294.5762296 335.99111529 -300.7918291 342.17261761 -307.01147461 348.35009766 C-305.47191327 352.00890942 -303.27058404 354.33301555 -300.4699707 357.11865234 C-300.01126083 357.57765427 -299.55255096 358.03665619 -299.0799408 358.50956726 C-297.56962551 360.01849441 -296.05236073 361.5202222 -294.53491211 363.02197266 C-293.48358291 364.0695699 -292.43269576 365.11761094 -291.38223267 366.16607666 C-288.62146445 368.91922285 -285.85474212 371.66630893 -283.08673096 374.41217041 C-280.26114533 377.21726681 -277.44124016 380.02806087 -274.62084961 382.83837891 C-269.08993086 388.34787298 -263.55270872 393.85097643 -258.01147461 399.35009766 C-249.79901053 395.99655579 -241.98755275 392.40093348 -234.26147461 388.03759766 C-232.65453735 387.13279663 -232.65453735 387.13279663 -231.01513672 386.2097168 C-219.28747003 379.50684413 -208.09398988 372.0629426 -197.01147461 364.35009766 C-196.17471191 363.7684082 -195.33794922 363.18671875 -194.47583008 362.58740234 C-184.21411729 355.41024337 -174.38919774 347.7869213 -164.75561523 339.79003906 C-162.29980724 337.76255368 -159.80824593 335.78004069 -157.32397461 333.78759766 C-151.530916 329.04388051 -146.08111535 323.95602331 -140.61694336 318.84228516 C-139.09290456 317.42578194 -137.5561803 316.02525095 -136.01147461 314.63134766 C-126.1336471 305.69926959 -116.32524881 296.50745937 -107.71069336 286.33056641 C-105.55839275 283.82202293 -103.31432164 281.40524715 -101.07397461 278.97509766 C-96.48372924 273.9306451 -92.19555453 268.73361383 -88.01147461 263.35009766 C-86.85526059 261.86569463 -85.69900705 260.38132239 -84.54272461 258.89697266 C-82.08640154 255.74188998 -79.63391194 252.58387439 -77.18334961 249.42431641 C-76.63316162 248.71791016 -76.08297363 248.01150391 -75.51611328 247.28369141 C-74.25052836 245.65730286 -72.99155302 244.02577409 -71.73413086 242.39306641 C-69.6038524 239.86668175 -68.22861777 239.09827048 -65.01147461 238.35009766 C-60.3650876 238.35009766 -58.56935183 238.85156907 -55.07397461 241.97509766 C-52.63234885 245.97048527 -52.28477715 247.74768041 -53.01147461 252.35009766 C-55.61023781 257.36369333 -58.66419301 261.71235111 -62.19897461 266.10009766 C-62.68309814 266.70789063 -63.16722168 267.31568359 -63.66601562 267.94189453 C-65.10894658 269.74917325 -66.55907238 271.55042626 -68.01147461 273.35009766 C-68.76944336 274.29369141 -69.52741211 275.23728516 -70.30834961 276.20947266 C-72.52235603 278.94061926 -74.75959921 281.65008785 -77.01147461 284.35009766 C-77.66188721 285.13006104 -77.66188721 285.13006104 -78.32543945 285.92578125 C-89.5696967 299.35785309 -101.59093064 312.0039504 -113.94897461 324.41259766 C-114.72958252 325.19787842 -115.51019043 325.98315918 -116.31445312 326.79223633 C-120.50385011 330.9700048 -124.77846714 334.98233243 -129.26269531 338.84204102 C-131.43258585 340.71324216 -133.53177568 342.65612119 -135.63647461 344.60009766 C-141.83203467 350.1884359 -148.40505825 355.26253964 -155.01147461 360.35009766 C-155.63683105 360.83285156 -156.2621875 361.31560547 -156.90649414 361.81298828 C-160.60259212 364.66598254 -164.30444408 367.51132511 -168.01147461 370.35009766 C-167.60155273 371.59404297 -167.19163086 372.83798828 -166.76928711 374.11962891 C-166.22464761 375.80049908 -165.68039779 377.48149555 -165.13647461 379.16259766 C-164.86706055 379.97664063 -164.59764648 380.79068359 -164.32006836 381.62939453 C-161.0691876 391.73884081 -159.63850678 401.42290242 -159.69897461 412.03759766 C-159.70461426 413.08560547 -159.71025391 414.13361328 -159.71606445 415.21337891 C-160.11700259 441.06396466 -169.90807823 464.29720857 -187.66772461 483.10400391 C-191.17377402 486.37693833 -194.25533448 487.35009766 -199.01147461 487.35009766 C-204.22251465 484.98311103 -207.79663951 480.68669548 -211.66894531 476.60229492 C-213.23393149 474.97135023 -214.79923883 473.34071366 -216.36482239 471.71034241 C-217.6032788 470.41573436 -217.6032788 470.41573436 -218.86675453 469.09497261 C-223.25454155 464.52288775 -227.6833073 459.99074633 -232.10717773 455.45361328 C-237.73309933 449.68350459 -243.34597833 443.90322761 -248.89941406 438.06323242 C-253.3916966 433.33942234 -257.93593449 428.66949277 -262.51357079 424.02833366 C-264.24635277 422.25364887 -265.96116287 420.46122687 -267.65694618 418.65115547 C-275.6384338 409.2784014 -275.6384338 409.2784014 -286.23764038 403.99490738 C-291.30802767 404.25871304 -295.48234532 406.186419 -300.01147461 408.35009766 C-301.62397389 408.84495893 -303.2463872 409.31040296 -304.88208008 409.72216797 C-306.21507205 410.1215324 -307.54728964 410.52349201 -308.87866211 410.92822266 C-310.37587667 411.37154364 -311.87327787 411.81423474 -313.37084961 412.25634766 C-315.64334385 412.93040926 -317.91430326 413.60854923 -320.18237305 414.29736328 C-338.71176793 419.90754254 -338.71176793 419.90754254 -345.01147461 418.35009766 C-346.86790466 417.06861877 -346.86790466 417.06861877 -348.70849609 415.37573242 C-349.74949463 414.4217305 -349.74949463 414.4217305 -350.81152344 413.44845581 C-354.68841802 409.75059494 -358.50514554 405.9987106 -362.28881836 402.20556641 C-363.14077286 401.35456863 -363.99272736 400.50357086 -364.87049866 399.62678528 C-366.65577961 397.8421806 -368.43981533 396.05632941 -370.22265625 394.26928711 C-372.96167122 391.52487603 -375.70603413 388.78589333 -378.45092773 386.04736328 C-380.18887903 384.30875189 -381.92652047 382.5698307 -383.66381836 380.83056641 C-384.48663803 380.00977097 -385.3094577 379.18897552 -386.1572113 378.3433075 C-386.91212357 377.58524307 -387.66703583 376.82717865 -388.44482422 376.04614258 C-389.44454506 375.04522835 -389.44454506 375.04522835 -390.46446228 374.02409363 C-393.57765681 370.65535829 -393.28867248 367.62497426 -393.23907471 363.22161865 C-392.84183602 358.20984915 -391.36216807 353.57885755 -389.87866211 348.79541016 C-389.56317413 347.73144012 -389.24768616 346.66747009 -388.92263794 345.57125854 C-387.58294146 341.05378159 -386.21185753 336.54601666 -384.84204102 332.03759766 C-383.84241682 328.73111192 -382.86005412 325.41984421 -381.87866211 322.10791016 C-381.56210663 321.08811066 -381.24555115 320.06831116 -380.91940308 319.01760864 C-380.63896149 318.06917084 -380.3585199 317.12073303 -380.06958008 316.14355469 C-379.81643036 315.31211945 -379.56328064 314.4806842 -379.30245972 313.62405396 C-378.93762697 310.7730018 -379.56554735 309.8033807 -381.01147461 307.35009766 C-382.50556153 305.58310507 -382.50556153 305.58310507 -384.28236389 303.88580322 C-384.95680038 303.21873352 -385.63123688 302.55166382 -386.32611084 301.86437988 C-387.06540833 301.14327026 -387.80470581 300.42216064 -388.56640625 299.67919922 C-389.34537766 298.91117981 -390.12434906 298.1431604 -390.92692566 297.35186768 C-392.61860974 295.6845332 -394.31240339 294.01933703 -396.00804329 292.3560257 C-398.69072555 289.72197411 -401.36499935 287.07966801 -404.03672791 284.43450928 C-411.63345671 276.91416022 -419.23616371 269.40011909 -426.86621094 261.91357422 C-431.53320032 257.33417228 -436.18160344 252.73636997 -440.81991386 248.12792206 C-442.59057994 246.37521216 -444.36766014 244.62895758 -446.15120125 242.88935089 C-448.64578011 240.45499809 -451.11783255 237.99972343 -453.5859375 235.53857422 C-454.32725922 234.82556152 -455.06858093 234.11254883 -455.83236694 233.37792969 C-459.06965319 230.10819267 -461.3564718 227.66883378 -462.05760193 223.02191162 C-461.98647483 217.36007239 -459.7481863 215.16261819 -456.04272461 211.29541016 C-435.91335041 191.90411301 -409.20658406 184.83599853 -381.89038086 185.13525391 C-368.96857239 185.46913469 -357.08384834 188.96172042 -345.01147461 193.35009766 C-344.4894043 192.63466797 -343.96733398 191.91923828 -343.42944336 191.18212891 C-338.41682544 184.39622059 -333.17581426 177.89272498 -327.68334961 171.49072266 C-325.31188925 168.72233702 -323.03249978 165.88918565 -320.76147461 163.03759766 C-310.83530793 150.90368462 -299.63189314 139.87805377 -288.57397461 128.78759766 C-288.0598703 128.27081451 -287.54576599 127.75403137 -287.01608276 127.22158813 C-281.19508322 121.3775738 -275.30298092 115.69194264 -269.01147461 110.35009766 C-267.92811143 109.40109518 -266.84603035 108.45062662 -265.76538086 107.49853516 C-256.82186215 99.6973047 -247.5294043 92.43517434 -238.01147461 85.35009766 C-236.94437256 84.55152344 -236.94437256 84.55152344 -235.85571289 83.73681641 C-218.74818265 70.97892132 -200.83482106 59.51768078 -182.02416992 49.43652344 C-180.15155417 48.42571071 -178.29481155 47.39126796 -176.44116211 46.34619141 C-123.52148253 17.04502654 -60.44481745 0.45424154 0 0 Z M-72.01147461 30.35009766 C-71.33031538 49.42255598 -60.1280868 65.4004579 -47.01147461 78.35009766 C-44.14132936 80.91085743 -41.18509827 83.1801465 -38.01147461 85.35009766 C-37.30249023 85.85927734 -36.59350586 86.36845703 -35.86303711 86.89306641 C-30.46501996 90.47639179 -24.80101425 92.66416818 -18.69897461 94.72509766 C-17.53313843 95.11967163 -17.53313843 95.11967163 -16.34375 95.5222168 C-12.39089389 96.79367824 -9.20101136 97.47855795 -5.01147461 97.35009766 C-2.90435712 89.39751369 -1.2122169 81.47850641 0.05102539 73.35009766 C0.22021484 72.26776855 0.3894043 71.18543945 0.5637207 70.0703125 C3.05268632 53.75775655 4.32454394 37.85234205 3.98852539 21.35009766 C-18.6184081 20.59838928 -51.51050976 20.09961523 -72.01147461 30.35009766 Z M-435.01147461 221.35009766 C-433.54238848 224.739719 -431.65363935 226.96095656 -429.05249023 229.56787109 C-428.23824585 230.3884198 -427.42400146 231.20896851 -426.58508301 232.05438232 C-425.70485474 232.93056213 -424.82462646 233.80674194 -423.91772461 234.70947266 C-423.01526001 235.61385071 -422.11279541 236.51822876 -421.1829834 237.45001221 C-419.27552356 239.35883257 -417.36617049 241.26550315 -415.45336914 243.16894531 C-412.99841152 245.61247646 -410.55258468 248.06492001 -408.10932159 250.52013779 C-405.77946867 252.85893678 -403.4420293 255.19012258 -401.10522461 257.52197266 C-400.22499634 258.40624939 -399.34476807 259.29052612 -398.43786621 260.20159912 C-397.62362183 261.00953918 -396.80937744 261.81747925 -395.97045898 262.64990234 C-395.25257202 263.36619812 -394.53468506 264.0824939 -393.79504395 264.82049561 C-392.1500536 266.56709585 -392.1500536 266.56709585 -390.01147461 266.35009766 C-389.5980481 265.53726318 -389.5980481 265.53726318 -389.17626953 264.70800781 C-379.87266787 246.49205058 -369.50749823 229.25748163 -358.01147461 212.35009766 C-381.20936938 196.88483448 -413.86025247 208.3681812 -435.01147461 221.35009766 Z M-361.01147461 327.35009766 C-363.40759912 334.41274859 -365.63172998 341.5152448 -367.76147461 348.66259766 C-368.09018555 349.73316406 -368.41889648 350.80373047 -368.75756836 351.90673828 C-369.06307617 352.93605469 -369.36858398 353.96537109 -369.68334961 355.02587891 C-369.96275391 355.95311768 -370.2421582 356.88035645 -370.5300293 357.83569336 C-371.05139327 360.55857754 -370.90600521 361.76185946 -370.01147461 364.35009766 C-368.75319055 366.11810865 -368.75319055 366.11810865 -367.11914062 367.7734375 C-366.51082901 368.42025482 -365.9025174 369.06707214 -365.27577209 369.73348999 C-364.61234299 370.4190799 -363.94891388 371.1046698 -363.26538086 371.81103516 C-362.23766823 372.87507065 -362.23766823 372.87507065 -361.18919373 373.96060181 C-359.73520004 375.45606454 -358.27649565 376.94695944 -356.81347656 378.43359375 C-354.58636067 380.71242398 -352.40250499 383.02794384 -350.21655273 385.34619141 C-348.79784644 386.79527516 -347.37669809 388.2419729 -345.95288086 389.68603516 C-345.30766983 390.38377045 -344.6624588 391.08150574 -343.99769592 391.80038452 C-340.36963784 395.41575826 -340.36963784 395.41575826 -335.51782227 396.37301636 C-332.92627845 395.87610505 -330.51209943 395.18761848 -328.01147461 394.35009766 C-326.8795166 394.06312012 -325.74755859 393.77614258 -324.58129883 393.48046875 C-323.08880615 393.05628662 -323.08880615 393.05628662 -321.56616211 392.62353516 C-320.47045898 392.31416016 -319.37475586 392.00478516 -318.24584961 391.68603516 C-317.13725586 391.36892578 -316.02866211 391.05181641 -314.88647461 390.72509766 C-313.73920898 390.40025391 -312.59194336 390.07541016 -311.40991211 389.74072266 C-308.60944494 388.94725696 -305.81001685 388.15032082 -303.01147461 387.35009766 C-303.01147461 383.69203172 -304.13640031 382.86970232 -306.61766052 380.35954285 C-307.4147921 379.57623344 -307.4147921 379.57623344 -308.22802734 378.77709961 C-308.78237457 378.22070801 -309.3367218 377.66431641 -309.90786743 377.09106445 C-311.74642458 375.2494933 -313.59551616 373.41890192 -315.44506836 371.58837891 C-316.72120834 370.31529517 -317.99675961 369.04162104 -319.27174377 367.76737976 C-321.94648866 365.09724164 -324.62607597 362.4320963 -327.30957031 359.77075195 C-330.75783701 356.35079648 -334.19734022 352.92219593 -337.63371181 349.49029255 C-340.26764906 346.86050188 -342.90440623 344.23355533 -345.54222298 341.60765648 C-346.81182041 340.34377557 -348.0809378 339.07941227 -349.34957695 337.81456947 C-351.11895095 336.0520321 -352.89166825 334.29293403 -354.66552734 332.53491211 C-355.19492416 332.00663315 -355.72432098 331.47835419 -356.26976013 330.93406677 C-358.2987998 328.45103553 -358.2987998 328.45103553 -361.01147461 327.35009766 Z M-187.01147461 383.35009766 C-187.92026367 383.96755859 -188.82905273 384.58501953 -189.76538086 385.22119141 C-206.1737571 396.30572579 -223.21430806 406.6342657 -241.01147461 415.35009766 C-239.54238848 418.739719 -237.65363935 420.96095656 -235.05249023 423.56787109 C-234.23824585 424.3884198 -233.42400146 425.20896851 -232.58508301 426.05438232 C-231.70485474 426.93056213 -230.82462646 427.80674194 -229.91772461 428.70947266 C-229.01526001 429.61385071 -228.11279541 430.51822876 -227.1829834 431.45001221 C-225.27552356 433.35883257 -223.36617049 435.26550315 -221.45336914 437.16894531 C-218.99841152 439.61247646 -216.55258468 442.06492001 -214.10932159 444.52013779 C-211.77946867 446.85893678 -209.4420293 449.19012258 -207.10522461 451.52197266 C-206.22499634 452.40624939 -205.34476807 453.29052612 -204.43786621 454.20159912 C-203.62362183 455.00953918 -202.80937744 455.81747925 -201.97045898 456.64990234 C-200.89362854 457.72434601 -200.89362854 457.72434601 -199.79504395 458.82049561 C-198.1500536 460.56709585 -198.1500536 460.56709585 -196.01147461 460.35009766 C-186.99248369 445.42288439 -180.60638576 430.95411435 -180.63647461 413.22509766 C-180.63663574 412.32291504 -180.63679688 411.42073242 -180.63696289 410.49121094 C-180.78989168 401.37182594 -181.85390717 391.08644882 -187.01147461 383.35009766 Z " fill="#000000" transform="translate(487.011474609375,-0.35009765625)"/>
<path d="M0 0 C14.62455023 12.87194102 23.79528108 30.52179304 25.0703125 49.99609375 C25.77911105 68.82140009 20.78867582 86.39190094 8.25 100.75 C6.74837492 102.28980199 5.22819363 103.81178977 3.6875 105.3125 C3.02492188 106.00730469 2.36234375 106.70210938 1.6796875 107.41796875 C-10.56563747 119.45377295 -28.4981568 125.34212773 -45.375 125.5625 C-64.59168989 125.39193766 -82.18252339 118.35546532 -96.0625 105.0625 C-109.2236291 91.32018144 -116.23090607 73.89312997 -116.6875 54.875 C-116.22640984 37.70825868 -110.94896049 21.26011097 -99.3125 8.3125 C-98.61898438 7.51585937 -97.92546875 6.71921875 -97.2109375 5.8984375 C-71.71694124 -21.58857475 -28.83912356 -22.71399997 0 0 Z M-83.34375 21.92578125 C-92.58044124 33.1234367 -96.34595322 45.90052516 -95.3125 60.3125 C-92.93156358 74.8418364 -86.37804402 85.75005136 -75.05078125 95.19921875 C-64.03369285 103.0516139 -50.5896782 105.99663114 -37.28515625 103.81640625 C-22.41653608 100.42934606 -11.24089694 92.72282415 -2.78125 79.93359375 C3.77493468 68.23359396 5.4607966 55.26393231 2.5625 42.1875 C-1.02654403 29.6587729 -8.44121957 18.77262262 -19.85546875 12.13671875 C-41.62758407 0.43508373 -66.12669786 3.55468757 -83.34375 21.92578125 Z " fill="#000000" transform="translate(363.3125,139.6875)"/>
<path d="M0 0 C0.86625 0.66 1.7325 1.32 2.625 2 C3.45 2.556875 4.275 3.11375 5.125 3.6875 C13.22819779 11.18295795 17.64644688 21.33479573 18.09790039 32.27734375 C18.24694893 44.50200939 15.21451251 54.01615858 6.625 63 C-12.87214954 81.1920665 -41.68832769 92.31479889 -65.11376953 104.31445312 C-68.29727418 105.95982789 -71.46032376 107.63957009 -74.62109375 109.328125 C-76.55963526 110.34424728 -78.49842421 111.35989766 -80.4375 112.375 C-81.72938232 113.08100342 -81.72938232 113.08100342 -83.04736328 113.80126953 C-88.80929256 116.77666422 -93.87795405 118.04793451 -100.375 117 C-103.5 115.125 -103.5 115.125 -105.375 112 C-106.56668647 104.41773586 -104.46984209 98.78696338 -100.984375 92.171875 C-100.52837418 91.26841843 -100.07237335 90.36496185 -99.60255432 89.43412781 C-98.12962736 86.5289299 -96.62835464 83.63955194 -95.125 80.75 C-94.10303342 78.75208742 -93.0824474 76.75346807 -92.06323242 74.75415039 C-89.19831134 69.15300198 -86.29651107 63.57181351 -83.375 58 C-83.01786926 57.31854919 -82.66073853 56.63709839 -82.29278564 55.93499756 C-78.76740352 49.22370791 -75.12254995 42.58931387 -71.375 36 C-70.90562012 35.16307617 -70.43624023 34.32615234 -69.95263672 33.46386719 C-51.48020479 0.53178773 -51.48020479 0.53178773 -33.578125 -5.6171875 C-21.61041873 -7.69668256 -10.45159219 -6.19353612 0 0 Z M-39.4765625 23.671875 C-46.99519931 34.88147897 -53.06073859 47.09006738 -59.375 59 C-59.92140137 60.02432129 -60.46780273 61.04864258 -61.03076172 62.10400391 C-62.58848896 65.02480111 -64.13956618 67.9490027 -65.6875 70.875 C-66.16171387 71.76646729 -66.63592773 72.65793457 -67.12451172 73.57641602 C-67.55393066 74.39424561 -67.98334961 75.2120752 -68.42578125 76.0546875 C-68.80387939 76.77124512 -69.18197754 77.48780273 -69.5715332 78.22607422 C-70.51252804 79.97907296 -70.51252804 79.97907296 -70.375 82 C-66.09131619 80.67114626 -62.20764238 79.02634677 -58.21875 76.98046875 C-57.35462242 76.53794014 -57.35462242 76.53794014 -56.47303772 76.08647156 C-54.60397661 75.12592379 -52.73909713 74.15764279 -50.875 73.1875 C-50.23682343 72.85663391 -49.59864685 72.52576782 -48.94113159 72.18487549 C-40.15264919 67.62001147 -31.47402864 62.89947024 -22.9375 57.875 C-22.05191406 57.35574951 -21.16632813 56.83649902 -20.25390625 56.30151367 C-12.79962005 51.8384054 -6.04971265 47.68903827 -3.375 39 C-2.54968895 33.00026683 -2.91775342 28.12626218 -6.375 23 C-10.25292629 18.4932208 -13.9018899 15.54014154 -19.88671875 14.609375 C-28.70430527 14.06826788 -34.04042249 16.76049997 -39.4765625 23.671875 Z " fill="#000000" transform="translate(105.375,395)"/>
<path d="M0 0 C2.75569447 2.18159145 4.43588747 3.87177494 6 7 C6.59873168 12.26883876 5.25400021 14.8846468 2 19 C-1.45739557 20.72869779 -5.21975568 20.48966895 -9 20 C-11.87029869 18.20606332 -13.49131638 17.01736724 -15 14 C-15.5811138 6.91041162 -15.5811138 6.91041162 -13.125 3.0625 C-9.24699241 -0.70144855 -5.21240222 -0.82822281 0 0 Z " fill="#000000" transform="translate(451,200)"/>
</svg>
