<?xml version="1.0" encoding="iso-8859-1"?>
<!-- Uploaded to: SVG Repo, www.svgrepo.com, Generator: SVG Repo Mixer Tools -->
<svg height="800px" width="800px" version="1.1" id="Layer_1" xmlns="http://www.w3.org/2000/svg" xmlns:xlink="http://www.w3.org/1999/xlink" 
	 viewBox="0 0 512 512" xml:space="preserve">
<path style="fill:#68727E;" d="M259.745,426.399c-94.105,0-170.667-76.56-170.667-170.667S165.64,85.066,259.745,85.066
	s170.667,76.56,170.667,170.667S353.85,426.399,259.745,426.399z M259.745,101.116c-85.256,0-154.617,69.36-154.617,154.617
	s69.36,154.617,154.617,154.617s154.617-69.36,154.617-154.617S345.001,101.116,259.745,101.116z"/>
<path style="fill:#FFD791;" d="M259.745,222.027c-32.746,0-59.386,26.64-59.386,59.386s26.64,59.386,59.386,59.386
	s59.386-26.64,59.386-59.386S292.491,222.027,259.745,222.027z"/>
<path style="fill:#FFC44F;" d="M276.33,331.703c-32.746,0-59.386-26.64-59.386-59.386c0-19.044,9.02-36.01,23.002-46.885
	c-23.038,8.173-39.587,30.174-39.587,55.98c0,32.746,26.64,59.386,59.386,59.386c13.701,0,26.324-4.677,36.384-12.501
	C289.932,330.495,283.271,331.703,276.33,331.703z"/>
<path style="fill:#ECEDEF;" d="M302.545,341.868h-85.601c-23.305,0-42.265,18.961-42.265,42.265v119.841
	c0,4.432,3.592,8.025,8.025,8.025h154.081c4.433,0,8.025-3.593,8.025-8.025V384.134C344.811,360.829,325.85,341.868,302.545,341.868
	z"/>
<path style="fill:#D9DCDF;" d="M191.264,503.975V384.134c0-23.305,18.961-42.265,42.265-42.265h-16.585
	c-23.305,0-42.265,18.961-42.265,42.265v119.841c0,4.432,3.592,8.025,8.025,8.025h16.585
	C194.856,512,191.264,508.407,191.264,503.975z"/>
<path style="fill:#509FE8;" d="M284.857,469.008l-8.56-94.161c-0.376-4.133-3.841-7.299-7.992-7.299h-17.12
	c-4.151,0-7.616,3.165-7.992,7.299l-8.56,94.161c-0.3,3.29,1.449,6.428,4.402,7.904l17.12,8.56c1.13,0.565,2.359,0.847,3.589,0.847
	c1.229,0,2.46-0.283,3.589-0.847l17.12-8.56C283.408,475.436,285.157,472.298,284.857,469.008z"/>
<path style="fill:#4D8CCF;" d="M276.297,374.847c-0.376-4.133-3.841-7.299-7.992-7.299h-17.12c-4.151,0-7.616,3.165-7.992,7.299
	l-1.363,14.993h35.829L276.297,374.847z"/>
<path style="fill:#509FE8;" d="M276.865,341.868h-34.24c-2.58,0-5.002,1.24-6.51,3.333c-1.509,2.093-1.92,4.783-1.103,7.23
	l8.56,25.68h32.346l8.56-25.68c0.816-2.447,0.406-5.137-1.103-7.23C281.867,343.108,279.445,341.868,276.865,341.868z"/>
<path style="fill:#FFD791;" d="M97.638,0C64.893,0,38.253,26.64,38.253,59.386s26.64,59.386,59.386,59.386
	s59.386-26.64,59.386-59.386S130.384,0,97.638,0z"/>
<path style="fill:#FFC44F;" d="M114.224,109.676c-32.746,0-59.386-26.64-59.386-59.386c0-19.044,9.02-36.01,23.002-46.885
	c-23.038,8.173-39.587,30.175-39.587,55.98c0,32.746,26.64,59.386,59.386,59.386c13.701,0,26.324-4.677,36.384-12.501
	C127.826,108.468,121.165,109.676,114.224,109.676z"/>
<path style="fill:#ECEDEF;" d="M140.439,119.841H54.838c-23.305,0-42.265,18.961-42.265,42.265v119.841
	c0,4.432,3.592,8.025,8.025,8.025h154.081c4.433,0,8.025-3.593,8.025-8.025V162.107
	C182.704,138.802,163.744,119.841,140.439,119.841z"/>
<path style="fill:#D9DCDF;" d="M29.158,281.948V162.107c0-23.305,18.961-42.265,42.265-42.265H54.838
	c-23.305,0-42.265,18.961-42.265,42.265v119.841c0,4.432,3.592,8.025,8.025,8.025h16.585
	C32.75,289.973,29.158,286.38,29.158,281.948z"/>
<path style="fill:#FF8C78;" d="M122.751,246.981l-8.56-94.161c-0.376-4.133-3.841-7.299-7.992-7.299h-17.12
	c-4.151,0-7.616,3.165-7.992,7.299l-8.56,94.161c-0.3,3.29,1.449,6.428,4.402,7.904l17.12,8.56c1.13,0.565,2.359,0.847,3.589,0.847
	c1.229,0,2.46-0.283,3.589-0.847l17.12-8.56C121.302,253.408,123.05,250.271,122.751,246.981z"/>
<path style="fill:#DF7A6E;" d="M114.19,152.82c-0.376-4.133-3.841-7.299-7.992-7.299h-17.12c-4.151,0-7.616,3.165-7.992,7.299
	l-1.363,14.993h35.829L114.19,152.82z"/>
<path style="fill:#FF8C78;" d="M114.759,119.841h-34.24c-2.58,0-5.002,1.24-6.51,3.333c-1.509,2.093-1.92,4.783-1.103,7.23
	l8.56,25.68h32.346l8.56-25.68c0.816-2.447,0.406-5.137-1.103-7.23C119.761,121.081,117.338,119.841,114.759,119.841z"/>
<path style="fill:#FFD791;" d="M414.362,0c-32.746,0-59.386,26.64-59.386,59.386s26.64,59.386,59.386,59.386
	s59.386-26.64,59.386-59.386S447.107,0,414.362,0z"/>
<path style="fill:#FFC44F;" d="M430.947,109.676c-32.746,0-59.386-26.64-59.386-59.386c0-19.044,9.02-36.01,23.002-46.885
	c-23.038,8.173-39.587,30.174-39.587,55.98c0,32.746,26.64,59.386,59.386,59.386c13.701,0,26.324-4.677,36.384-12.501
	C444.549,108.468,437.888,109.676,430.947,109.676z"/>
<path style="fill:#ECEDEF;" d="M457.162,119.841h-85.601c-23.305,0-42.265,18.961-42.265,42.265v119.841
	c0,4.432,3.592,8.025,8.025,8.025h154.081c4.433,0,8.025-3.593,8.025-8.025V162.107
	C499.427,138.802,480.467,119.841,457.162,119.841z"/>
<path style="fill:#D9DCDF;" d="M345.881,281.948V162.107c0-23.305,18.961-42.265,42.265-42.265h-16.585
	c-23.305,0-42.265,18.961-42.265,42.265v119.841c0,4.432,3.592,8.025,8.025,8.025h16.585
	C349.473,289.973,345.881,286.38,345.881,281.948z"/>
<path style="fill:#C4DF64;" d="M439.474,246.981l-8.56-94.161c-0.376-4.133-3.841-7.299-7.992-7.299h-17.12
	c-4.151,0-7.616,3.165-7.992,7.299l-8.56,94.161c-0.3,3.29,1.449,6.428,4.402,7.904l17.12,8.56c1.13,0.565,2.359,0.847,3.589,0.847
	s2.46-0.283,3.589-0.847l17.12-8.56C438.025,253.408,439.773,250.271,439.474,246.981z"/>
<path style="fill:#AFCA62;" d="M430.914,152.82c-0.376-4.133-3.841-7.299-7.992-7.299h-17.12c-4.151,0-7.616,3.165-7.992,7.299
	l-1.363,14.993h35.829L430.914,152.82z"/>
<path style="fill:#C4DF64;" d="M431.482,119.841h-34.24c-2.58,0-5.002,1.24-6.51,3.333c-1.509,2.093-1.92,4.783-1.103,7.23
	l8.56,25.68h32.346l8.56-25.68c0.816-2.447,0.406-5.137-1.103-7.23C436.484,121.081,434.062,119.841,431.482,119.841z"/>
</svg>