<?xml version="1.0" encoding="UTF-8"?>
<svg version="1.1" xmlns="http://www.w3.org/2000/svg" width="512" height="512">
<path d="M0 0 C1.77444992 -0.01506844 1.77444992 -0.01506844 3.58474731 -0.03044128 C4.87931854 -0.03627228 6.17388977 -0.04210327 7.50769043 -0.04811096 C8.8878096 -0.05765434 10.2679264 -0.06754571 11.64804077 -0.07775879 C16.17870256 -0.10910004 20.70938242 -0.12941158 25.2401123 -0.14796448 C26.01246153 -0.1512618 26.78481075 -0.15455912 27.5805645 -0.15795636 C34.87340769 -0.18874488 42.1662552 -0.21543588 49.45914459 -0.23237514 C58.76485534 -0.25424755 68.06998666 -0.29614928 77.37546587 -0.36581272 C83.93024113 -0.41320342 90.48486095 -0.43732899 97.03980207 -0.44457203 C100.94832902 -0.44950723 104.8562024 -0.46438141 108.76454163 -0.50431633 C112.44856282 -0.54146249 116.13156482 -0.54950263 119.81573868 -0.5363102 C121.79351218 -0.53638897 123.77121729 -0.56606103 125.74874878 -0.59700012 C134.59034338 -0.5259084 140.66386727 1.62111187 148.2088623 6.16062927 C148.89421618 6.54958563 149.57957005 6.93854198 150.28569221 7.3392849 C152.02194785 8.33605776 153.72971852 9.38196882 155.4354248 10.43016052 C156.03519135 10.79663193 156.63495789 11.16310333 157.25289917 11.54067993 C159.1160469 12.680296 160.97508353 13.82640426 162.8338623 14.97312927 C164.72922216 16.13622386 166.6254114 17.29795274 168.52194214 18.45913696 C170.21668358 19.49771373 171.90936772 20.5396454 173.60192871 21.58177185 C178.02150438 24.25843376 181.34092634 24.32968159 186.42224121 24.36595154 C187.69552025 24.38080093 187.69552025 24.38080093 188.99452209 24.39595032 C191.80812769 24.42760844 194.62175018 24.45233977 197.4354248 24.47703552 C199.38313238 24.49760133 201.33083546 24.5185977 203.27853394 24.54000854 C208.41101441 24.59526779 213.54353541 24.64466006 218.67608643 24.69285583 C223.91100686 24.74304275 229.14586824 24.79874346 234.3807373 24.85398865 C244.65672856 24.96161734 254.93277103 25.06305183 265.2088623 25.16062927 C265.50534668 24.38719177 265.80183105 23.61375427 266.1072998 22.81687927 C268.73698173 16.4758023 273.29884553 13.2275698 279.2088623 10.16062927 C286.31886694 7.34345762 294.43724523 6.85436084 301.6463623 9.59812927 C302.8219873 10.11375427 303.9976123 10.62937927 305.2088623 11.16062927 C306.53608677 11.51751037 307.86841042 11.85718632 309.2088623 12.16062927 C309.8894873 11.10875427 309.8894873 11.10875427 310.5838623 10.03562927 C315.49206717 4.65997633 322.31389658 0.47010441 329.65026855 -0.11280823 C338.36366543 -0.414185 344.77622053 0.1123201 352.2088623 5.16062927 C353.1163623 5.71750427 354.0238623 6.27437927 354.9588623 6.84812927 C358.47243899 10.45930531 360.77330347 14.77494945 363.2088623 19.16062927 C364.46763184 18.67723083 364.46763184 18.67723083 365.75183105 18.18406677 C373.87658493 15.7787724 383.63832148 15.76125826 391.2166748 19.83641052 C397.99628818 24.34285942 402.03651375 28.62630146 405.2088623 36.16062927 C406.0751123 35.83062927 406.9413623 35.50062927 407.8338623 35.16062927 C416.02909529 32.86196636 425.56792574 32.81622043 433.18151855 36.82859802 C441.06237165 42.00657665 446.56842025 47.9553752 449.2088623 57.16062927 C449.47171783 60.08306313 449.47171783 60.08306313 449.48974609 63.192276 C449.50116638 64.37799194 449.51258667 65.56370789 449.52435303 66.78535461 C449.52658875 68.07273529 449.52882446 69.36011597 449.53112793 70.68650818 C449.54039493 72.0669253 449.55044568 73.44733734 449.56121826 74.82774353 C449.58737254 78.56774229 449.60033828 82.30766938 449.60923958 86.04774523 C449.61511768 88.38933161 449.62333047 90.73089878 449.63224792 93.07247543 C449.65957634 100.41303047 449.67891878 107.75354115 449.68665171 115.09414351 C449.69560114 123.54102119 449.73064965 131.98724965 449.7886529 140.43393004 C449.83203101 146.9802698 449.85206798 153.5264279 449.85473394 160.07290971 C449.85682027 163.97467406 449.86842223 167.8758273 449.90437317 171.77743912 C449.93758654 175.45331173 449.94152754 179.12812224 449.92409515 182.80409241 C449.92184566 184.77705178 449.94909006 186.74997789 449.9776001 188.72273254 C449.89583133 197.55154186 447.73898561 203.62509735 443.2088623 211.16062927 C442.8199264 211.84602406 442.43099051 212.53141884 442.03026867 213.23758316 C441.03341282 214.97376255 439.98750977 216.68150662 438.93933105 218.38719177 C438.57285965 218.98695831 438.20638824 219.58672485 437.82881165 220.20466614 C436.68919558 222.06781387 435.54308732 223.9268505 434.3963623 225.78562927 C433.23326772 227.68098913 432.07153884 229.57717837 430.91035461 231.47370911 C429.87177785 233.16845055 428.82984618 234.86113469 427.78771973 236.55369568 C425.11105782 240.97327135 425.03980999 244.29269331 425.00354004 249.37400818 C424.99364044 250.22286087 424.98374084 251.07171356 424.97354126 251.94628906 C424.94188314 254.75989466 424.91715181 257.57351715 424.89245605 260.38719177 C424.87189025 262.33489935 424.85089388 264.28260243 424.82948303 266.2303009 C424.77422378 271.36278138 424.72483151 276.49530238 424.67663574 281.62785339 C424.62644883 286.86277382 424.57074811 292.09763521 424.51550293 297.33250427 C424.40787424 307.60849553 424.30643974 317.884538 424.2088623 328.16062927 C424.9822998 328.45711365 425.7557373 328.75359802 426.5526123 329.05906677 C432.89368928 331.6887487 436.14192178 336.2506125 439.2088623 342.16062927 C442.30151612 349.96589844 442.40359075 357.9402089 439.1463623 365.66062927 C438.76351074 366.45469177 438.38065918 367.24875427 437.98620605 368.06687927 C436.90771108 370.30159083 436.90771108 370.30159083 438.2088623 373.16062927 C439.3226123 374.24344177 439.3226123 374.24344177 440.4588623 375.34812927 C447.40914955 382.45637759 449.5256408 389.11580449 449.60046387 398.89231873 C449.48259131 405.27109253 447.80774366 409.86198472 444.2088623 415.16062927 C443.6519873 416.06812927 443.0951123 416.97562927 442.5213623 417.91062927 C438.91018627 421.42420596 434.59454212 423.72507044 430.2088623 426.16062927 C430.69226074 427.4193988 430.69226074 427.4193988 431.1854248 428.70359802 C433.59071917 436.8283519 433.60823331 446.59008845 429.53308105 454.16844177 C425.02663216 460.94805515 420.74319012 464.98828072 413.2088623 468.16062927 C413.5388623 469.02687927 413.8688623 469.89312927 414.2088623 470.78562927 C416.50752521 478.98086225 416.55327115 488.5196927 412.54089355 496.13328552 C407.36291493 504.01413862 401.41411638 509.52018721 392.2088623 512.16062927 C389.28642845 512.4234848 389.28642845 512.4234848 386.17721558 512.44151306 C384.99149963 512.45293335 383.80578369 512.46435364 382.58413696 512.47612 C381.29675629 512.47835571 380.00937561 512.48059143 378.6829834 512.4828949 C377.30256628 512.4921619 375.92215424 512.50221264 374.54174805 512.51298523 C370.80174929 512.53913951 367.0618222 512.55210525 363.32174635 512.56100655 C360.98015996 512.56688464 358.6385928 512.57509744 356.29701614 512.58401489 C348.95646111 512.61134331 341.61595043 512.63068574 334.27534807 512.63841867 C325.82847039 512.64736811 317.38224193 512.68241661 308.93556154 512.74041986 C302.38922177 512.78379798 295.84306368 512.80383495 289.29658186 512.80650091 C285.39481751 512.80858724 281.49366428 512.8201892 277.59205246 512.85614014 C273.91617985 512.88935351 270.24136933 512.89329451 266.56539917 512.87586212 C264.59243979 512.87361263 262.61951369 512.90085702 260.64675903 512.92936707 C251.81794972 512.84759829 245.74439423 510.69075257 238.2088623 506.16062927 C237.52346752 505.77169337 236.83807274 505.38275747 236.13190842 504.98203564 C234.39572903 503.98517978 232.68798496 502.93927674 230.9822998 501.89109802 C230.38253326 501.52462662 229.78276672 501.15815521 229.16482544 500.78057861 C227.30167771 499.64096255 225.44264108 498.49485429 223.5838623 497.34812927 C221.68850245 496.18503469 219.79231321 495.02330581 217.89578247 493.86212158 C216.20104103 492.82354482 214.50835689 491.78161314 212.8157959 490.73948669 C208.39622023 488.06282478 205.07679827 487.99157695 199.9954834 487.95530701 C199.14663071 487.94540741 198.29777802 487.93550781 197.42320251 487.92530823 C194.60959692 487.89365011 191.79597443 487.86891878 188.9822998 487.84422302 C187.03459222 487.82365722 185.08688915 487.80266085 183.13919067 487.78125 C178.0067102 487.72599075 172.8741892 487.67659848 167.74163818 487.62840271 C162.50671775 487.57821579 157.27185636 487.52251508 152.0369873 487.4672699 C141.76099604 487.35964121 131.48495358 487.25820671 121.2088623 487.16062927 C120.76413574 488.32078552 120.76413574 488.32078552 120.3104248 489.50437927 C117.68074288 495.84545625 113.11887908 499.09368875 107.2088623 502.16062927 C99.40359314 505.25328309 91.42928267 505.35535772 83.7088623 502.09812927 C82.9147998 501.71527771 82.1207373 501.33242615 81.3026123 500.93797302 C79.06790075 499.85947805 79.06790075 499.85947805 76.2088623 501.16062927 C75.4869873 501.90312927 74.7651123 502.64562927 74.0213623 503.41062927 C66.91311399 510.36091652 60.25368709 512.47740777 50.47717285 512.55223083 C44.09839905 512.43435828 39.50750686 510.75951062 34.2088623 507.16062927 C33.3013623 506.60375427 32.3938623 506.04687927 31.4588623 505.47312927 C27.94528562 501.86195324 25.64442114 497.54630909 23.2088623 493.16062927 C22.36968262 493.4828949 21.53050293 493.80516052 20.66589355 494.13719177 C12.54113968 496.54248614 2.77940313 496.56000028 -4.7989502 492.48484802 C-11.57856357 487.97839913 -15.61878914 483.69495709 -18.7911377 476.16062927 C-19.6573877 476.49062927 -20.5236377 476.82062927 -21.4161377 477.16062927 C-29.61137068 479.45929218 -39.15020113 479.50503812 -46.76379395 475.49266052 C-54.64464704 470.3146819 -60.15069564 464.36588335 -62.7911377 455.16062927 C-63.05399323 452.23819542 -63.05399323 452.23819542 -63.07202148 449.12898254 C-63.08344177 447.9432666 -63.09486206 446.75755066 -63.10662842 445.53590393 C-63.10886414 444.24852325 -63.11109985 442.96114258 -63.11340332 441.63475037 C-63.12267032 440.25433325 -63.13272107 438.8739212 -63.14349365 437.49351501 C-63.16964793 433.75351626 -63.18261367 430.01358916 -63.19151497 426.27351332 C-63.19739307 423.93192693 -63.20560586 421.59035976 -63.21452332 419.24878311 C-63.24185173 411.90822807 -63.26119417 404.5677174 -63.2689271 397.22711504 C-63.27787653 388.78023736 -63.31292504 380.3340089 -63.37092829 371.88732851 C-63.4143064 365.34098874 -63.43434337 358.79483064 -63.43700933 352.24834883 C-63.43909566 348.34658448 -63.45069762 344.44543124 -63.48664856 340.54381943 C-63.51986193 336.86794681 -63.52380293 333.1931363 -63.50637054 329.51716614 C-63.50412105 327.54420676 -63.53136545 325.57128066 -63.55987549 323.598526 C-63.47810672 314.76971668 -61.321261 308.69616119 -56.7911377 301.16062927 C-56.4022018 300.47523449 -56.0132659 299.78983971 -55.61254406 299.08367538 C-54.61568821 297.34749599 -53.56978516 295.63975193 -52.52160645 293.93406677 C-52.15513504 293.33430023 -51.78866364 292.73453369 -51.41108704 292.11659241 C-50.27147097 290.25344468 -49.12536271 288.39440805 -47.9786377 286.53562927 C-46.81554311 284.64026942 -45.65381423 282.74408017 -44.49263 280.84754944 C-43.45405324 279.152808 -42.41212157 277.46012386 -41.36999512 275.76756287 C-38.69333321 271.34798719 -38.62208538 268.02856523 -38.58581543 262.94725037 C-38.57591583 262.09839767 -38.56601624 261.24954498 -38.55581665 260.37496948 C-38.52415853 257.56136389 -38.4994272 254.74774139 -38.47473145 251.93406677 C-38.45416564 249.98635919 -38.43316927 248.03865612 -38.41175842 246.09095764 C-38.35649918 240.95847717 -38.30710691 235.82595616 -38.25891113 230.69340515 C-38.20872422 225.45848472 -38.1530235 220.22362333 -38.09777832 214.98875427 C-37.99014963 204.71276301 -37.88871513 194.43672054 -37.7911377 184.16062927 C-38.95129395 183.71590271 -38.95129395 183.71590271 -40.1348877 183.26219177 C-46.47596467 180.63250985 -49.72419717 176.07064605 -52.7911377 170.16062927 C-55.88379152 162.35536011 -55.98586614 154.38104964 -52.7286377 146.66062927 C-52.34578613 145.86656677 -51.96293457 145.07250427 -51.56848145 144.25437927 C-50.48998647 142.01966771 -50.48998647 142.01966771 -51.7911377 139.16062927 C-52.5336377 138.43875427 -53.2761377 137.71687927 -54.0411377 136.97312927 C-60.99142494 129.86488096 -63.10791619 123.20545406 -63.18273926 113.42893982 C-63.06486671 107.05016602 -61.39001905 102.45927383 -57.7911377 97.16062927 C-56.9558252 95.79937927 -56.9558252 95.79937927 -56.1036377 94.41062927 C-52.49246166 90.89705259 -48.17681752 88.5961881 -43.7911377 86.16062927 C-44.11340332 85.32144958 -44.43566895 84.4822699 -44.7677002 83.61766052 C-47.17299456 75.49290664 -47.1905087 65.73117009 -43.11535645 58.15281677 C-38.60890755 51.37320339 -34.32546551 47.33297783 -26.7911377 44.16062927 C-27.2861377 42.86125427 -27.2861377 42.86125427 -27.7911377 41.53562927 C-30.08890843 33.34357708 -30.14400735 23.78902883 -26.11535645 16.18406677 C-21.68143165 9.40892505 -16.00278335 3.09452246 -8.0346756 0.61378384 C-5.31633316 0.06472724 -2.7744969 0.01854674 0 0 Z M-9.7911377 24.16062927 C-11.42239334 27.42314057 -11.47964882 30.64859087 -10.7911377 34.16062927 C-8.7283547 37.48647017 -6.32108834 40.39565395 -2.7911377 42.16062927 C-1.36253734 42.26822968 0.07075484 42.31680886 1.5032959 42.33421326 C2.39116791 42.34770309 3.27903992 42.36119293 4.19381714 42.37509155 C5.15526642 42.38552994 6.1167157 42.39596832 7.1072998 42.40672302 C9.1333458 42.43966072 11.15938736 42.47287238 13.1854248 42.5063324 C16.38721668 42.55376453 19.58899044 42.59819212 22.79089355 42.63743591 C25.87572107 42.67713738 28.96017679 42.72868726 32.0447998 42.78172302 C33.48090103 42.79434425 33.48090103 42.79434425 34.9460144 42.80722046 C36.2872789 42.83218346 36.2872789 42.83218346 37.65563965 42.85765076 C38.44014496 42.86795822 39.22465027 42.87826569 40.03292847 42.8888855 C42.49247984 43.19604915 44.1096473 43.85468686 46.2088623 45.16062927 C47.77357463 48.29005392 47.90588188 51.77145151 47.2088623 55.16062927 C45.07472803 57.86729585 43.89600148 59.03766451 40.45915222 59.6526947 C39.40548965 59.64951233 38.35182709 59.64632996 37.26623535 59.64305115 C35.4686805 59.65326294 35.4686805 59.65326294 33.6348114 59.66368103 C32.34311539 59.65236145 31.05141937 59.64104187 29.72058105 59.62937927 C28.37542215 59.63420878 27.03026978 59.64136557 25.68513489 59.65074158 C20.7012263 59.68034629 15.71759386 59.66723768 10.73364258 59.65556335 C6.52230661 59.6473311 2.31159854 59.65542056 -1.89964867 59.68469238 C-3.86652297 59.69174342 -5.83343649 59.67489477 -7.80024719 59.65757751 C-14.66969415 59.69629686 -19.26285175 59.92114919 -24.7911377 64.16062927 C-27.7100976 67.55038917 -28.38267574 70.67694803 -28.2130127 75.16453552 C-27.43724356 78.83507284 -25.48295074 80.59117137 -22.7911377 83.16062927 C-19.85384342 84.94559968 -17.68813393 85.41047242 -14.26965332 85.41600037 C-13.38193237 85.42295929 -12.49421143 85.42991821 -11.57958984 85.43708801 C-10.62846313 85.436091 -9.67733643 85.43509399 -8.6973877 85.43406677 C-6.67785084 85.45434981 -4.65831963 85.47520047 -2.63879395 85.49656677 C0.54110482 85.5191995 3.72078112 85.53565115 6.90075684 85.54148865 C9.97261603 85.55099463 13.04347629 85.58474211 16.1151123 85.62156677 C17.06623901 85.6165213 18.01736572 85.61147583 18.99731445 85.60627747 C25.58716709 85.70473501 25.58716709 85.70473501 28.80871582 88.06712341 C31.1931877 91.63239741 30.67802612 93.93815493 30.2088623 98.16062927 C28.66548139 100.33539329 27.57220957 100.97895564 25.2088623 102.16062927 C23.30052717 102.26532591 21.38858614 102.30664486 19.47741699 102.31834412 C17.67479401 102.33373734 17.67479401 102.33373734 15.83575439 102.34944153 C13.87802094 102.36039352 13.87802094 102.36039352 11.8807373 102.37156677 C10.53032614 102.38453046 9.17992292 102.39834654 7.82952881 102.41297913 C2.09097452 102.47455906 -3.64755992 102.52855154 -9.38635254 102.56199646 C-12.89665375 102.58300468 -16.40656898 102.61836066 -19.91664886 102.66275406 C-21.89843019 102.68371423 -23.88035772 102.68895362 -25.86224365 102.69392395 C-27.07660095 102.71049042 -28.29095825 102.72705688 -29.54211426 102.74412537 C-31.13856781 102.75625565 -31.13856781 102.75625565 -32.76727295 102.76863098 C-37.29521798 103.35561051 -40.68251071 104.86723113 -43.6661377 108.34812927 C-45.14159866 112.03678169 -45.44540129 115.28069401 -44.7911377 119.16062927 C-43.38601785 122.39851414 -42.24913319 124.40194835 -39.05307007 126.06504822 C-32.09571864 128.5495011 -25.44134882 128.58481526 -18.1114502 128.56687927 C-16.14124713 128.58343289 -14.17104403 128.60000266 -12.20084953 128.61754608 C-8.07486949 128.64958547 -3.94877285 128.65547346 0.17730713 128.66593933 C3.59673444 128.67561592 7.01590135 128.69099644 10.43521118 128.72154236 C12.99150847 128.74311635 15.54795878 128.75141843 18.1043396 128.745224 C19.25628815 128.75533508 20.40823669 128.76544617 21.59509277 128.77586365 C22.60941376 128.77791809 23.62373474 128.77997253 24.66879272 128.78208923 C27.2088623 129.16062927 27.2088623 129.16062927 29.03482056 130.5499115 C30.58264374 132.67343591 30.60994876 134.05198352 30.5838623 136.66062927 C30.59546387 137.82078552 30.59546387 137.82078552 30.6072998 139.00437927 C30.10998924 141.69570703 29.39145252 142.54096956 27.2088623 144.16062927 C24.12498562 145.1480217 21.30268918 145.2849393 18.07653809 145.28660583 C16.54442184 145.29231598 16.54442184 145.29231598 14.98135376 145.29814148 C13.8833847 145.2991687 12.78541565 145.30019592 11.6541748 145.30125427 C9.32473791 145.31957822 6.99531055 145.33914814 4.66589355 145.35984802 C0.99662134 145.38884053 -2.67203635 145.41063006 -6.34143066 145.41111755 C-9.88511571 145.41445122 -13.42738579 145.44899293 -16.9708252 145.48875427 C-18.06474579 145.48168457 -19.15866638 145.47461487 -20.28573608 145.46733093 C-26.84562401 145.5202452 -26.84562401 145.5202452 -32.44006348 148.58934021 C-36.01784515 152.50223705 -36.83818191 153.67873666 -36.6661377 159.09812927 C-36.04091462 163.04806799 -34.69875227 165.3360894 -31.7911377 168.16062927 C-28.88992293 169.90027612 -26.75502759 170.41261895 -23.38879395 170.42564392 C-22.51400391 170.43391708 -21.63921387 170.44219025 -20.73791504 170.45071411 C-19.78610352 170.44973221 -18.83429199 170.44875031 -17.8536377 170.44773865 C-16.84510742 170.45457169 -15.83657715 170.46140472 -14.79748535 170.46844482 C-12.60838042 170.4820311 -10.41924376 170.49108548 -8.23010254 170.49615479 C-4.76726185 170.50443637 -1.30468581 170.52493411 2.15808105 170.5486908 C9.5083023 170.5969356 16.85854981 170.62986731 24.2088623 170.66062927 C32.72538536 170.69627196 41.24177884 170.73814215 49.75817871 170.79656982 C53.17274677 170.81666671 56.58721612 170.82496341 60.00183105 170.83287048 C62.09167848 170.84584073 64.18152259 170.85936072 66.2713623 170.8735199 C67.22317383 170.87253799 68.17498535 170.87155609 69.15563965 170.87054443 C70.03042969 170.8788176 70.90521973 170.88709076 71.80651855 170.89561462 C72.94359253 170.90001431 72.94359253 170.90001431 74.1036377 170.90450287 C76.57008532 171.20457648 78.13286235 171.7958052 80.2088623 173.16062927 C81.63647192 176.59987062 82.57039492 178.9282225 81.50183105 182.57078552 C80.02791342 185.52307372 78.27797312 187.76679462 76.1463623 190.28562927 C75.34456543 191.24340271 74.54276855 192.20117615 73.7166748 193.18797302 C72.88909668 194.16894958 72.06151855 195.14992615 71.2088623 196.16062927 C60.90893576 206.92137255 60.90893576 206.92137255 54.8338623 219.91062927 C55.35158889 224.39759301 56.90534489 226.13826228 60.2088623 229.16062927 C63.99607128 230.31031771 66.04908046 230.74268593 69.62756348 228.94676208 C72.41194326 227.02010716 74.64077767 224.93856332 77.00964355 222.52000427 C77.90489746 221.61379333 78.80015137 220.7075824 79.72253418 219.77391052 C80.65586028 218.81985835 81.58880109 217.86542911 82.5213623 216.91062927 C84.34831151 215.04881955 86.17769953 213.18939951 88.00964355 211.33250427 C89.2187439 210.09645447 89.2187439 210.09645447 90.45227051 208.83543396 C92.50269067 206.84584904 94.55265772 204.99764888 96.7232666 203.15061951 C102.21779643 198.38339254 107.26576209 193.16584765 112.36634827 187.98661232 C114.21388583 186.11210754 116.06604524 184.2422868 117.91967773 182.37380981 C123.18435067 177.06670034 128.44614983 171.75684103 133.69177246 166.43089294 C136.91479422 163.15919422 140.14763243 159.89747652 143.38697815 156.64194298 C144.61217041 155.40690077 145.83371056 154.1682237 147.05137634 152.92576027 C148.75673962 151.18641934 150.47438041 149.46011057 152.19519043 147.73606873 C152.68685196 147.22845505 153.17851349 146.72084137 153.68507385 146.19784546 C160.24861681 139.68984097 167.57855907 137.06052627 176.72058105 136.84422302 C177.81291801 136.81305138 177.81291801 136.81305138 178.92732239 136.78125 C181.25024105 136.71594181 183.57327137 136.6569569 185.8963623 136.59812927 C187.47254566 136.55492622 189.04871778 136.51131135 190.62487793 136.4672699 C194.48609206 136.36027968 198.34741833 136.25895966 202.2088623 136.16062927 C202.19653564 135.27802429 202.18420898 134.39541931 202.17150879 133.48606873 C202.16192139 132.32293152 202.15233398 131.15979431 202.14245605 129.96141052 C202.12396606 128.23531555 202.12396606 128.23531555 202.10510254 126.47434998 C202.34552194 118.79620292 205.01350862 113.44599484 210.2401123 107.88719177 C216.37639016 102.5057735 223.4316951 100.75417618 231.4354248 100.89500427 C240.60610847 101.77332327 246.9326561 106.04900199 253.7010498 112.03953552 C256.48146118 114.5065704 256.48146118 114.5065704 261.2088623 117.16062927 C261.2088623 92.74062927 261.2088623 68.32062927 261.2088623 43.16062927 C255.11675293 43.13484802 249.02464355 43.10906677 242.7479248 43.08250427 C238.87418559 43.0573194 235.00052317 43.03097385 231.12683105 43.00047302 C224.986692 42.9522363 218.84673087 42.90815469 212.7064209 42.88963318 C207.75248429 42.87442025 202.79901512 42.83989267 197.84528732 42.79232025 C195.9612371 42.77755416 194.07712013 42.76959101 192.19301224 42.76874542 C173.27070571 42.75172168 173.27070571 42.75172168 165.2088623 38.16062927 C164.2836377 37.66836349 164.2836377 37.66836349 163.33972168 37.16615295 C161.62360155 36.21626008 159.95214426 35.18705927 158.28308105 34.15672302 C157.68759964 33.79216507 157.09211823 33.42760712 156.47859192 33.05200195 C154.61331609 31.90788664 152.75477155 30.75335664 150.8963623 29.59812927 C149.63573555 28.82202195 148.37467014 28.04662667 147.11315918 27.2719574 C144.80202599 25.85176718 142.49411818 24.42681716 140.18811035 22.99827576 C138.71338257 22.08864075 138.71338257 22.08864075 137.2088623 21.16062927 C136.43955069 20.63600129 135.67023907 20.11137331 134.87761497 19.57084751 C131.82959032 17.96021495 129.95722447 17.77704241 126.52957153 17.75949097 C125.39690353 17.74669601 124.26423553 17.73390106 123.09724426 17.72071838 C121.86386826 17.72207794 120.63049225 17.7234375 119.35974121 17.72483826 C118.0535231 17.71476242 116.74730499 17.70468658 115.40150452 17.69430542 C111.82495604 17.66784749 108.24862299 17.66077378 104.6719861 17.65885806 C102.43545967 17.65672306 100.19898771 17.65031355 97.96247482 17.64236641 C90.15426923 17.61462705 82.3462171 17.60235913 74.53796387 17.60472107 C67.26854732 17.60652313 59.99979886 17.57486949 52.73055136 17.52749008 C46.48152874 17.48821705 40.23272408 17.47217129 33.98357904 17.4740873 C30.25467891 17.47485091 26.52637277 17.46637399 22.79759598 17.43455315 C18.63685949 17.40001395 14.47761298 17.41377702 10.31677246 17.43186951 C9.08744492 17.41501099 7.85811737 17.39815247 6.59153748 17.38078308 C-0.64331613 17.46076105 -5.17291388 18.30051091 -9.7911377 24.16062927 Z M324.2088623 22.16062927 C320.50018835 29.28777558 320.78345158 37.00990482 320.8026123 44.84031677 C320.78605869 46.81051984 320.76948891 48.78072293 320.7519455 50.75091743 C320.71990611 54.87689748 320.71401812 59.00299411 320.70355225 63.1290741 C320.69387566 66.54850141 320.67849514 69.96766831 320.64794922 73.38697815 C320.62637523 75.94327544 320.61807314 78.49972575 320.62426758 81.05610657 C320.61415649 82.20805511 320.60404541 83.36000366 320.59362793 84.54685974 C320.59157349 85.56118073 320.58951904 86.57550171 320.58740234 87.62055969 C320.2088623 90.16062927 320.2088623 90.16062927 318.81958008 91.98658752 C316.69605567 93.53441071 315.31750806 93.56171573 312.7088623 93.53562927 C311.54870605 93.54723083 311.54870605 93.54723083 310.3651123 93.55906677 C307.67378455 93.06175621 306.82852201 92.34321949 305.2088623 90.16062927 C304.22146988 87.07675259 304.08455227 84.25445615 304.08288574 81.02830505 C304.07907898 80.00689423 304.07527222 78.9854834 304.0713501 77.93312073 C304.07032288 76.83515167 304.06929565 75.73718262 304.0682373 74.60594177 C304.04991336 72.27650488 304.03034343 69.94707751 304.00964355 67.61766052 C303.98065105 63.94838831 303.95886152 60.27973062 303.95837402 56.6103363 C303.95504036 53.06665126 303.92049865 49.52438118 303.8807373 45.98094177 C303.88780701 44.88702118 303.89487671 43.79310059 303.90216064 42.66603088 C303.84924638 36.10614296 303.84924638 36.10614296 300.78015137 30.51170349 C296.86725452 26.93392182 295.69075492 26.11358506 290.2713623 26.28562927 C286.32142359 26.91085235 284.03340218 28.2530147 281.2088623 31.16062927 C279.46921545 34.06184404 278.95687263 36.19673938 278.94384766 39.56297302 C278.93557449 40.43776306 278.92730133 41.3125531 278.91877747 42.21385193 C278.91975937 43.16566345 278.92074127 44.11747498 278.92175293 45.09812927 C278.91150337 46.61092468 278.91150337 46.61092468 278.90104675 48.15428162 C278.88746048 50.34338655 278.87840609 52.53252321 278.87333679 54.72166443 C278.8650552 58.18450512 278.84455746 61.64708116 278.82080078 65.10984802 C278.77255598 72.46006926 278.73962426 79.81031678 278.7088623 87.16062927 C278.67321961 95.67715233 278.63134943 104.19354581 278.57292175 112.70994568 C278.55282487 116.12451374 278.54452817 119.53898309 278.53662109 122.95359802 C278.52365085 125.04344545 278.51013085 127.13328956 278.49597168 129.22312927 C278.49695358 130.1749408 278.49793549 131.12675232 278.49894714 132.10740662 C278.49067398 132.98219666 278.48240082 133.85698669 278.47387695 134.75828552 C278.46947727 135.8953595 278.46947727 135.8953595 278.46498871 137.05540466 C278.16944264 139.48463826 277.49518936 141.08642745 276.2088623 143.16062927 C272.42703947 145.05154069 269.20701789 145.21427426 265.2088623 144.16062927 C261.14403676 141.35345863 257.60468185 138.0850039 253.97644043 134.74363708 C251.01964717 132.09559185 247.90116769 129.66187898 244.7713623 127.22312927 C244.20457764 126.77542175 243.63779297 126.32771423 243.05383301 125.86643982 C237.0969918 120.69154561 237.0969918 120.69154561 230.0135498 117.84812927 C226.73169388 118.37960392 224.57567069 118.91609035 221.7713623 120.78562927 C219.66018666 123.99461626 219.27603741 126.33164816 219.2088623 130.16062927 C221.35358769 134.62663324 224.65868182 137.85585005 228.1619873 141.27391052 C228.74043396 141.84715561 229.31888062 142.4204007 229.91485596 143.01101685 C231.7581383 144.83657234 233.60796757 146.65529485 235.4588623 148.47312927 C237.29463856 150.28106139 239.12884508 152.09051582 240.96002197 153.90310669 C242.09587436 155.02694598 243.23438391 156.1481093 244.37615967 157.26593018 C247.17365723 160.02897829 249.82937689 162.84846886 252.38293457 165.83909607 C256.75140618 170.88807599 261.51405057 175.53042008 266.27170372 180.2069397 C267.9446091 181.85281716 269.61277661 183.5033622 271.27961731 185.15538025 C276.01321825 189.84660318 280.74960943 194.53489581 285.5020752 199.20701599 C288.42366766 202.07988786 291.33523108 204.96260405 294.24064064 207.85183716 C295.34170715 208.94306583 296.44640419 210.03064485 297.55490685 211.11431885 C306.42196717 219.78696331 312.22152948 226.83486485 312.52526855 239.67234802 C312.54604965 240.40057266 312.56683075 241.1287973 312.58824158 241.87908936 C312.65354977 244.20200802 312.71253468 246.52503833 312.7713623 248.84812927 C312.81456536 250.42431263 312.85818023 252.00048475 312.90222168 253.5766449 C313.0092119 257.43785903 313.11053191 261.2991853 313.2088623 265.16062927 C313.87708008 265.1526532 314.54529785 265.14467712 315.23376465 265.13645935 C316.12015625 265.13025574 317.00654785 265.12405212 317.9197998 265.11766052 C319.23150146 265.10569641 319.23150146 265.10569641 320.56970215 265.0934906 C328.04605247 265.28368453 334.43383829 267.33392499 340.2088623 272.16062927 C346.69066733 279.13108479 348.75364185 285.6210688 348.4979248 295.09422302 C347.51683071 305.50177524 341.16710954 312.412823 334.6932373 320.13328552 C332.10313268 322.63675994 332.10313268 322.63675994 332.2088623 324.16062927 C356.6288623 324.16062927 381.0488623 324.16062927 406.2088623 324.16062927 C406.23464355 318.0685199 406.2604248 311.97641052 406.2869873 305.69969177 C406.31217218 301.82595255 406.33851773 297.95229014 406.36901855 294.07859802 C406.41725528 287.93845897 406.46133689 281.79849784 406.4798584 275.65818787 C406.49507133 270.70425126 406.52959891 265.75078209 406.57717133 260.79705429 C406.59193742 258.91300407 406.59990056 257.0288871 406.60074615 255.14477921 C406.61776989 236.22247268 406.61776989 236.22247268 411.2088623 228.16062927 C411.70112808 227.23540466 411.70112808 227.23540466 412.20333862 226.29148865 C413.1532315 224.57536852 414.18243231 222.90391123 415.21276855 221.23484802 C415.57732651 220.63936661 415.94188446 220.04388519 416.31748962 219.43035889 C417.46160493 217.56508306 418.61613494 215.70653851 419.7713623 213.84812927 C420.54746962 212.58750252 421.3228649 211.32643711 422.09753418 210.06492615 C423.51772439 207.75379296 424.94267441 205.44588515 426.37121582 203.13987732 C426.97763916 202.15672546 427.5840625 201.17357361 428.2088623 200.16062927 C428.73349029 199.39131765 429.25811827 198.62200603 429.79864407 197.82938194 C431.40927663 194.78135729 431.59244916 192.90899144 431.61000061 189.4813385 C431.62279556 188.3486705 431.63559052 187.2160025 431.64877319 186.04901123 C431.64673386 184.19894722 431.64673386 184.19894722 431.64465332 182.31150818 C431.65976707 180.35218102 431.65976707 180.35218102 431.67518616 178.35327148 C431.70164409 174.776723 431.7087178 171.20038996 431.71063352 167.62375307 C431.71276852 165.38722664 431.71917803 163.15075467 431.72712517 160.91424179 C431.75486453 153.1060362 431.76713245 145.29798407 431.76477051 137.48973083 C431.76296845 130.22031429 431.79462209 122.95156583 431.8420015 115.68231833 C431.88127453 109.43329571 431.89732029 103.18449105 431.89540428 96.93534601 C431.89464067 93.20644588 431.90311758 89.47813974 431.93493843 85.74936295 C431.96947763 81.58862646 431.95571456 77.42937995 431.93762207 73.26853943 C431.95448059 72.03921188 431.97133911 70.80988434 431.9887085 69.54330444 C431.91649341 63.01068533 431.44617932 59.01808397 426.69105434 54.32871056 C423.75622557 52.01583984 421.09856977 51.71449493 417.3807373 51.73484802 C413.43128271 52.5091116 410.82644144 55.23197552 408.2088623 58.16062927 C407.04826008 60.48183372 407.06668741 61.86980741 407.03527832 64.45506287 C407.01504356 65.78687088 407.01504356 65.78687088 406.99440002 67.14558411 C406.98396164 68.10703339 406.97352325 69.06848267 406.96276855 70.05906677 C406.92983085 72.08511277 406.89661919 74.11115433 406.86315918 76.13719177 C406.81572705 79.33898365 406.77129945 82.54075741 406.73205566 85.74266052 C406.6923542 88.82748803 406.64080432 91.91194376 406.58776855 94.99656677 C406.5793544 95.95396759 406.57094025 96.91136841 406.56227112 97.89778137 C406.53730812 99.23904587 406.53730812 99.23904587 406.51184082 100.60740662 C406.50153336 101.39191193 406.49122589 102.17641724 406.48060608 102.98469543 C406.17344243 105.44424681 405.51480472 107.06141426 404.2088623 109.16062927 C401.07943765 110.7253416 397.59804007 110.85764885 394.2088623 110.16062927 C391.50219573 108.026495 390.33182706 106.84776845 389.71679688 103.41091919 C389.71997925 102.35725662 389.72316162 101.30359406 389.72644043 100.21800232 C389.71963257 99.01963242 389.71282471 97.82126251 389.70581055 96.58657837 C389.71713013 95.29488235 389.72844971 94.00318634 389.7401123 92.67234802 C389.7352828 91.32718912 389.728126 89.98203675 389.71875 88.63690186 C389.68914528 83.65299327 389.7022539 78.66936083 389.71392822 73.68540955 C389.72216048 69.47407358 389.71407102 65.26336551 389.68479919 61.0521183 C389.67774816 59.085244 389.6945968 57.11833048 389.71191406 55.15151978 C389.67319472 48.28207282 389.44834238 43.68891522 385.2088623 38.16062927 C381.81910241 35.24166936 378.69254355 34.56909123 374.20495605 34.73875427 C370.53441874 35.51452341 368.77832021 37.46881623 366.2088623 40.16062927 C364.4238919 43.09792355 363.95901916 45.26363303 363.95349121 48.68211365 C363.94653229 49.56983459 363.93957336 50.45755554 363.93240356 51.37217712 C363.93389908 52.79886719 363.93389908 52.79886719 363.9354248 54.25437927 C363.91514177 56.27391612 363.8942911 58.29344734 363.8729248 60.31297302 C363.85029207 63.49287178 363.83384043 66.67254809 363.82800293 69.8525238 C363.81849694 72.924383 363.78474947 75.99524325 363.7479248 79.06687927 C363.75297028 80.01800598 363.75801575 80.96913269 363.76321411 81.94908142 C363.66475656 88.53893405 363.66475656 88.53893405 361.30236816 91.76048279 C357.73709417 94.14495467 355.43133665 93.62979309 351.2088623 93.16062927 C349.03409829 91.61724836 348.39053594 90.52397654 347.2088623 88.16062927 C347.10416567 86.25229414 347.06284672 84.3403531 347.05114746 82.42918396 C347.04088531 81.2274353 347.03062317 80.02568665 347.02005005 78.78752136 C347.01274872 77.48236572 347.00544739 76.17721008 346.9979248 74.83250427 C346.98496112 73.48209311 346.97114503 72.13168989 346.95651245 70.78129578 C346.89493252 65.04274149 346.84094004 59.30420705 346.80749512 53.56541443 C346.7864869 50.05511322 346.75113092 46.54519799 346.70673752 43.0351181 C346.68577734 41.05333678 346.68053796 39.07140925 346.67556763 37.08952332 C346.65900116 35.87516602 346.64243469 34.66080872 346.62536621 33.40965271 C346.61727936 32.34535034 346.6091925 31.28104797 346.6008606 30.18449402 C346.01388106 25.65654899 344.50226045 22.26925625 341.0213623 19.28562927 C334.55439075 16.69884065 329.2610165 17.34345899 324.2088623 22.16062927 Z M164.2088623 161.16062927 C162.83115946 162.51344748 161.45340378 163.86621231 160.07475471 165.21806622 C157.96558149 167.29797274 155.87875426 169.3996418 153.79216003 171.50216675 C152.07791645 173.22935603 150.36040928 174.95324247 148.64208984 176.67637634 C144.9948379 180.33496899 141.35154915 183.99749208 137.7088623 187.66062927 C133.482456 191.91076296 129.25437208 196.15919989 125.02201843 200.40341187 C123.34282595 202.08901217 121.66671154 203.77763068 119.99072266 205.46641541 C113.5762101 211.91263329 107.14316374 218.23525984 99.84436035 223.68699646 C94.7087511 227.91540621 91.19013576 231.35494676 90.13708496 238.11961365 C89.71405917 242.89690153 89.74643065 247.6356948 89.91906738 252.42527771 C90.02173409 255.42147943 90.02166402 258.40511346 90.00769043 261.40281677 C90.03357939 263.32738621 90.065279 265.25188814 90.10339355 267.17625427 C90.10490921 268.05976563 90.10642487 268.94327698 90.10798645 269.8535614 C90.43470249 277.05070185 93.13899134 280.27923977 98.2088623 285.16062927 C99.60442658 286.58084294 100.99992296 288.00112389 102.39433765 289.42246628 C104.55484062 291.61270978 106.73744273 293.78028537 108.92079163 295.94772339 C110.71518565 297.72918176 112.5062864 299.51389565 114.29663086 301.29942322 C118.09788506 305.08933193 121.90306818 308.87528024 125.7088623 312.66062927 C130.12420416 317.05225148 134.53785479 321.44554653 138.94728088 325.84310913 C140.69936026 327.58877637 142.45445708 329.33136879 144.2097168 331.07383728 C157.33725834 344.13924499 157.33725834 344.13924499 162.30212402 351.09202576 C165.91863518 355.70562084 169.16292943 358.26738617 175.00280762 359.06736755 C179.78190045 359.44751898 184.53277683 359.43079029 189.32263184 359.29954529 C192.33607772 359.22307305 195.33927371 359.23787752 198.35339355 359.2641449 C200.28704339 359.246757 202.22065481 359.22414817 204.1541748 359.19578552 C205.04396027 359.20054398 205.93374573 359.20530243 206.85049438 359.21020508 C214.09678821 358.93892192 217.30223294 356.26672968 222.2088623 351.16062927 C223.65026023 349.74362007 225.09174097 348.3266943 226.53448677 346.91105747 C228.76537368 344.71036329 230.97329154 342.48726634 233.18115234 340.26350403 C234.99621796 338.43550748 236.81453531 336.61079971 238.63366699 334.78684998 C242.49490416 330.91426506 246.35218226 327.03775193 250.2088623 323.16062927 C254.68309236 318.66268323 259.158993 314.1664258 263.63916016 309.6743927 C265.41806485 307.88907383 267.19389626 306.10073788 268.96960449 304.3122406 C282.48154092 290.73724074 282.48154092 290.73724074 288.92370605 286.28392029 C292.35442236 283.68789605 294.72826387 281.25976481 295.7142334 276.95329285 C296.42770824 271.34997504 296.40277923 265.76108917 296.27233887 260.12229919 C296.20890623 257.10022203 296.23112213 254.08733289 296.2635498 251.06492615 C296.25041434 249.12673389 296.23235123 247.18856746 296.2088623 245.25047302 C296.21675781 244.35755051 296.22465332 243.46462799 296.23278809 242.54464722 C295.98985989 235.2939011 293.32435663 232.06475596 288.2088623 227.16062927 C286.89829196 225.82592978 285.58780793 224.49114422 284.27892303 223.15479183 C282.28036034 221.12593231 280.25942718 219.12007706 278.23771667 217.11431885 C276.57773171 215.46729045 274.92105995 213.81698975 273.26513672 212.1658783 C269.74920579 208.66128289 266.22934277 205.16065372 262.7088623 201.66062927 C258.62393646 197.5994392 254.54071338 193.53656633 250.4617157 189.46942139 C248.8425946 187.85670344 247.22045447 186.24706709 245.59814453 184.63755798 C239.68690737 178.75657982 233.85585602 172.84365474 228.72454834 166.25465393 C223.87936043 160.04155094 219.18077878 154.32895049 211.08483887 152.92381287 C206.30868814 152.45871339 201.58318344 152.50520513 196.79333496 152.71995544 C193.81435336 152.8489742 190.85052103 152.86351494 187.86901855 152.86180115 C185.95352346 152.89618614 184.03813028 152.93697565 182.1229248 152.98484802 C181.24568756 152.99263779 180.36845032 153.00042755 179.46463013 153.00845337 C172.32041948 153.39049741 169.06252053 156.12847326 164.2088623 161.16062927 Z M-19.7911377 188.16062927 C-19.81691895 194.25273865 -19.8427002 200.34484802 -19.8692627 206.62156677 C-19.89444757 210.49530599 -19.92079312 214.3689684 -19.95129395 218.24266052 C-19.99953067 224.38279958 -20.04361228 230.5227607 -20.06213379 236.66307068 C-20.07734672 241.61700728 -20.1118743 246.57047646 -20.15944672 251.52420425 C-20.17421281 253.40825447 -20.18217595 255.29237145 -20.18302155 257.17647934 C-20.20004528 276.09878587 -20.20004528 276.09878587 -24.7911377 284.16062927 C-25.11931488 284.77744568 -25.44749207 285.39426208 -25.78561401 286.0297699 C-26.73550689 287.74589002 -27.7647077 289.41734731 -28.79504395 291.08641052 C-29.1596019 291.68189194 -29.52415985 292.27737335 -29.89976501 292.89089966 C-31.04388032 294.75617548 -32.19841033 296.61472003 -33.3536377 298.47312927 C-34.12974502 299.73375603 -34.90514029 300.99482144 -35.67980957 302.2563324 C-37.09999978 304.56746559 -38.52494981 306.8753734 -39.95349121 309.18138123 C-40.86312622 310.65610901 -40.86312622 310.65610901 -41.7911377 312.16062927 C-42.31576568 312.92994089 -42.84039366 313.69925251 -43.38091946 314.4918766 C-44.99155202 317.53990125 -45.17472455 319.41226711 -45.192276 322.83992004 C-45.20507095 323.97258804 -45.21786591 325.10525604 -45.23104858 326.27224731 C-45.22968903 327.50562332 -45.22832947 328.73899933 -45.22692871 330.00975037 C-45.23700455 331.31596848 -45.24708038 332.62218658 -45.25746155 333.96798706 C-45.28391948 337.54453554 -45.29099319 341.12086859 -45.29290891 344.69750547 C-45.29504391 346.93403191 -45.30145342 349.17050387 -45.30940056 351.40701675 C-45.33713992 359.21522234 -45.34940784 367.02327448 -45.3470459 374.83152771 C-45.34524384 382.10094425 -45.37689748 389.36969272 -45.42427689 396.63894022 C-45.46354992 402.88796284 -45.47959568 409.1367675 -45.47767967 415.38591254 C-45.47691606 419.11481267 -45.48539297 422.84311881 -45.51721382 426.5718956 C-45.55175302 430.73263209 -45.53798995 434.8918786 -45.51989746 439.05271912 C-45.53675598 440.28204666 -45.5536145 441.51137421 -45.57098389 442.7779541 C-45.4987688 449.31057321 -45.02845472 453.30317457 -40.27332973 457.99254799 C-37.33867137 460.30528441 -34.68133057 460.60964528 -30.9630127 460.58250427 C-27.02331619 459.81723948 -24.31802883 457.17092567 -21.7911377 454.16062927 C-20.87142032 451.40147715 -20.65309108 449.69484999 -20.61755371 446.84446716 C-20.60406387 445.97669144 -20.59057404 445.10891571 -20.57667542 444.21484375 C-20.56623703 443.28042953 -20.55579865 442.34601532 -20.54504395 441.38328552 C-20.51211185 439.40606745 -20.4789001 437.42885402 -20.44543457 435.4516449 C-20.39798155 432.33326849 -20.35353439 429.21491176 -20.31433105 426.09642029 C-20.27463287 423.08767827 -20.22308992 420.07931764 -20.17004395 417.07078552 C-20.16162979 416.13839554 -20.15321564 415.20600555 -20.14454651 414.24536133 C-20.12790451 413.37443344 -20.11126251 412.50350555 -20.09411621 411.60618591 C-20.08380875 410.8424617 -20.07350128 410.07873749 -20.06288147 409.29187012 C-19.75243045 406.85705487 -19.08092509 405.24172304 -17.7911377 403.16062927 C-14.66171304 401.59591695 -11.18031546 401.46360969 -7.7911377 402.16062927 C-5.08447112 404.29476355 -3.91410245 405.4734901 -3.29907227 408.91033936 C-3.30384583 410.49083321 -3.30384583 410.49083321 -3.30871582 412.10325623 C-3.30190796 413.30162613 -3.2951001 414.49999603 -3.28808594 415.73468018 C-3.29940552 417.02637619 -3.3107251 418.3180722 -3.3223877 419.64891052 C-3.31755819 420.99406942 -3.31040139 422.3392218 -3.30102539 423.68435669 C-3.27142067 428.66826528 -3.28452929 433.65189771 -3.29620361 438.635849 C-3.30443587 442.84718497 -3.29634641 447.05789304 -3.26707458 451.26914024 C-3.26002355 453.23601455 -3.27687219 455.20292806 -3.29418945 457.16973877 C-3.25547011 464.03918572 -3.03061778 468.63234333 1.2088623 474.16062927 C4.5986222 477.07958918 7.72518106 477.75216732 12.21276855 477.58250427 C15.88330587 476.80673513 17.6394044 474.85244231 20.2088623 472.16062927 C21.99383271 469.22333499 22.45870545 467.05762551 22.4642334 463.6391449 C22.47119232 462.75142395 22.47815125 461.863703 22.48532104 460.94908142 C22.48382553 459.52239136 22.48382553 459.52239136 22.4822998 458.06687927 C22.50258284 456.04734242 22.52343351 454.0278112 22.5447998 452.00828552 C22.56743254 448.82838676 22.58388418 445.64871045 22.58972168 442.46873474 C22.59922767 439.39687555 22.63297514 436.32601529 22.6697998 433.25437927 C22.66475433 432.30325256 22.65970886 431.35212585 22.6545105 430.37217712 C22.75296805 423.78232449 22.75296805 423.78232449 25.11535645 420.56077576 C28.68063044 418.17630388 30.98638796 418.69146546 35.2088623 419.16062927 C37.38362632 420.70401019 38.02718867 421.797282 39.2088623 424.16062927 C39.31355894 426.06896441 39.35487789 427.98090544 39.36657715 429.89207458 C39.37683929 431.09382324 39.38710144 432.2955719 39.39767456 433.53373718 C39.40497589 434.83889282 39.41227722 436.14404846 39.4197998 437.48875427 C39.43276349 438.83916543 39.44657958 440.18956866 39.46121216 441.53996277 C39.52279209 447.27851706 39.57678457 453.0170515 39.61022949 458.75584412 C39.63123771 462.26614532 39.66659369 465.77606055 39.71098709 469.28614044 C39.73194727 471.26792177 39.73718665 473.2498493 39.74215698 475.23173523 C39.75872345 476.44609253 39.77528992 477.66044983 39.7923584 478.91160583 C39.80044525 479.9759082 39.8085321 481.04021057 39.81686401 482.13676453 C40.40384355 486.66470955 41.91546416 490.05200229 45.3963623 493.03562927 C50.15679376 494.93980185 54.29091411 494.97042962 59.0213623 492.97312927 C63.03498395 489.64755705 64.40567873 486.19655109 65.2088623 481.16062927 C65.3055987 479.18361789 65.35406995 477.20393125 65.36657715 475.22459412 C65.37683929 474.05343048 65.38710144 472.88226685 65.39767456 471.6756134 C65.40497589 470.42027802 65.41227722 469.16494263 65.4197998 467.87156677 C65.44067689 465.89267415 65.4615712 463.91378153 65.48349953 461.93490028 C65.53660724 457.06327063 65.58099595 452.19164165 65.61022949 447.31980896 C65.62710207 444.58094519 65.6517599 441.84236583 65.68508911 439.10365295 C65.71614687 436.5251362 65.73549646 433.94644726 65.74215698 431.36775208 C65.76700668 429.6204631 65.76700668 429.6204631 65.7923584 427.83787537 C65.80044525 426.81148956 65.8085321 425.78510376 65.81686401 424.72761536 C66.2088623 422.16062927 66.2088623 422.16062927 67.60012817 420.33070374 C69.72248494 418.78705808 71.10349926 418.75957564 73.7088623 418.78562927 C74.4822998 418.7778949 75.2557373 418.77016052 76.0526123 418.76219177 C78.74394006 419.25950234 79.5892026 419.97803905 81.2088623 422.16062927 C82.19625473 425.24450596 82.33317234 428.06680239 82.33483887 431.29295349 C82.33864563 432.31436432 82.34245239 433.33577515 82.34637451 434.38813782 C82.34740173 435.48610687 82.34842896 436.58407593 82.3494873 437.71531677 C82.36781125 440.04475367 82.38738118 442.37418103 82.40808105 444.70359802 C82.43707356 448.37287024 82.45886309 452.04152793 82.45935059 455.71092224 C82.46268425 459.25460729 82.49722596 462.79687737 82.5369873 466.34031677 C82.5299176 467.43423737 82.5228479 468.52815796 82.51556396 469.65522766 C82.56847823 476.21511559 82.56847823 476.21511559 85.63757324 481.80955505 C89.54195301 485.37954909 90.74372468 486.18388543 96.1463623 486.09812927 C100.45754324 485.43178287 102.45772655 483.55909109 105.2088623 480.16062927 C107.27672141 477.05884061 107.46029986 476.39173376 107.47387695 472.87854004 C107.48215012 472.00512466 107.49042328 471.13170929 107.49894714 470.23182678 C107.49747429 468.79871658 107.49747429 468.79871658 107.49597168 467.33665466 C107.50280472 466.32827042 107.50963776 465.31988617 107.51667786 464.28094482 C107.53027833 462.08909401 107.53932358 459.89721133 107.54438782 457.70532417 C107.55265984 454.23836264 107.57314913 450.77166666 107.59692383 447.30477905 C107.64520595 439.94426838 107.67810787 432.58373132 107.7088623 425.22312927 C107.74449782 416.69875243 107.78637816 408.17450514 107.84480286 399.65025139 C107.86490378 396.23125385 107.87319777 392.81235493 107.88110352 389.39331055 C107.89407417 387.30020283 107.90759422 385.20709843 107.92175293 383.11399841 C107.92028008 381.68392456 107.92028008 381.68392456 107.91877747 380.22496033 C107.92705063 379.34872513 107.93532379 378.47248993 107.94384766 377.56970215 C107.94824734 376.43067995 107.94824734 376.43067995 107.9527359 375.26864719 C108.24723415 372.84481435 108.95279877 371.24440435 110.2088623 369.16062927 C112.77933809 367.16137033 114.17419252 367.15912914 117.4588623 367.30125427 C121.85252747 368.30813587 124.30883443 370.24052781 127.5213623 373.22312927 C128.65582448 374.22941471 129.79125064 375.23461436 130.9276123 376.23875427 C131.48190918 376.73568787 132.03620605 377.23262146 132.6072998 377.74461365 C143.61155738 388.35748694 143.61155738 388.35748694 156.9588623 394.53562927 C161.44582604 394.01790269 163.18649531 392.46414668 166.2088623 389.16062927 C167.36245585 385.36055643 167.79114129 383.31441716 165.98132324 379.72825623 C164.11825564 377.0293744 162.13018861 374.87106072 159.7869873 372.57859802 C158.92589355 371.7284613 158.0647998 370.87832458 157.1776123 370.00242615 C155.83183105 368.68854919 155.83183105 368.68854919 154.4588623 367.34812927 C152.69078605 365.61494926 150.92512065 363.87930612 149.1619873 362.14109802 C148.37984863 361.37692566 147.59770996 360.6127533 146.79187012 359.82542419 C144.84359407 357.81545887 143.03561979 355.80123184 141.22619629 353.67356873 C136.39115437 348.10340583 131.10086657 342.99085186 125.84964943 337.81794739 C123.94154411 335.93680045 122.03811501 334.05103831 120.1360321 332.1638031 C114.73333833 326.80355441 109.32790062 321.44617124 103.90637207 316.10496521 C100.57632184 312.82358559 97.25624565 309.53239357 93.94235802 306.23469543 C92.68498659 304.98717573 91.42397969 303.74330849 90.15918922 302.50331116 C88.38872168 300.76681198 86.63127064 299.01803767 84.87609863 297.26609802 C84.35913422 296.76508575 83.8421698 296.26407349 83.30953979 295.74787903 C76.76987146 289.15337342 74.10997661 281.84238194 73.89245605 272.64891052 C73.87167496 271.92068588 73.85089386 271.19246124 73.82948303 270.44216919 C73.76417484 268.11925052 73.70518993 265.79622021 73.6463623 263.47312927 C73.60315925 261.89694592 73.55954438 260.3207738 73.51550293 258.74461365 C73.40851271 254.88339952 73.3071927 251.02207325 73.2088623 247.16062927 C72.262771 247.18093201 71.31667969 247.20123474 70.34191895 247.22215271 C69.09273682 247.23794373 67.84355469 247.25373474 66.55651855 247.27000427 C65.32167725 247.29030701 64.08683594 247.31060974 62.8145752 247.33152771 C55.86025032 247.00191654 49.03630946 244.26393055 44.2088623 239.16062927 C38.65349174 230.45563266 37.43874866 223.50053745 38.2088623 213.16062927 C39.80890217 206.14423823 44.46850237 201.06687918 49.08776855 195.73875427 C51.54002354 192.88727992 51.54002354 192.88727992 54.2088623 188.16062927 C29.7888623 188.16062927 5.3688623 188.16062927 -19.7911377 188.16062927 Z M309.18933105 290.02000427 C308.49593376 290.72120392 308.49593376 290.72120392 307.78852844 291.43656921 C306.31958308 292.9231978 304.85751844 294.41634747 303.3963623 295.91062927 C301.94511834 297.38979578 300.49232362 298.86734942 299.03633118 300.34184265 C297.70656339 301.6892163 296.38174563 303.04147013 295.05725098 304.39402771 C292.96636973 306.42487251 290.8806175 308.31335577 288.66711426 310.19798279 C283.24678669 314.89868245 278.26649852 320.04049965 273.23657227 325.1494503 C271.42264424 326.99035471 269.60408747 328.82656695 267.78405762 330.66143799 C262.61496023 335.87296304 257.44874519 341.08724406 252.29870605 346.31761169 C249.13404228 349.53095904 245.95955783 352.73431809 242.77856445 355.93149757 C241.57569959 357.14421056 240.37648647 358.36055774 239.18115234 359.5806942 C230.25888983 368.68408117 223.05265147 375.16103981 209.69714355 375.47703552 C208.60480659 375.50820717 208.60480659 375.50820717 207.49040222 375.54000854 C205.16748356 375.60531673 202.84445324 375.66430165 200.5213623 375.72312927 C198.94517895 375.76633233 197.36900683 375.80994719 195.79284668 375.85398865 C191.93163255 375.96097887 188.07030628 376.06229888 184.2088623 376.16062927 C184.22118896 377.04323425 184.23351562 377.92583923 184.24621582 378.83518982 C184.25580322 379.99832703 184.26539063 381.16146423 184.27526855 382.35984802 C184.28759521 383.510578 184.29992187 384.66130798 184.31262207 385.84690857 C184.07220267 393.52505563 181.40421599 398.8752637 176.1776123 404.43406677 C170.04475915 409.81248164 162.97097357 411.58955663 154.9666748 411.41453552 C144.23836005 410.42680116 137.12680259 404.34480522 129.2010498 397.64500427 C126.72882129 395.05416256 126.72882129 395.05416256 125.2088623 395.16062927 C125.2088623 419.58062927 125.2088623 444.00062927 125.2088623 469.16062927 C131.30097168 469.18641052 137.39308105 469.21219177 143.6697998 469.23875427 C147.54353902 469.26393915 151.41720144 469.2902847 155.29089355 469.32078552 C161.43103261 469.36902224 167.57099374 469.41310386 173.71130371 469.43162537 C178.66524032 469.4468383 183.61870949 469.48136588 188.57243729 469.52893829 C190.45648751 469.54370439 192.34060448 469.55166753 194.22471237 469.55251312 C213.1470189 469.56953686 213.1470189 469.56953686 221.2088623 474.16062927 C221.82567871 474.48880646 222.44249512 474.81698364 223.07800293 475.15510559 C224.79412306 476.10499847 226.46558035 477.13419928 228.13464355 478.16453552 C228.73012497 478.52909348 229.32560638 478.89365143 229.93913269 479.26925659 C231.80440852 480.4133719 233.66295306 481.56790191 235.5213623 482.72312927 C236.78198906 483.49923659 238.04305447 484.27463187 239.30456543 485.04930115 C241.61569862 486.46949136 243.92360643 487.89444138 246.22961426 489.32298279 C247.21276611 489.92940613 248.19591797 490.53582947 249.2088623 491.16062927 C250.36282973 491.94757124 250.36282973 491.94757124 251.54010963 492.75041103 C254.58813429 494.3610436 256.46050014 494.54421613 259.88815308 494.56176758 C261.02082108 494.57456253 262.15348907 494.58735748 263.32048035 494.60054016 C264.55385635 494.5991806 265.78723236 494.59782104 267.0579834 494.59642029 C268.36420151 494.60649612 269.67041962 494.61657196 271.01622009 494.62695312 C274.59276857 494.65341106 278.16910162 494.66048476 281.74573851 494.66240048 C283.98226494 494.66453549 286.2187369 494.670945 288.45524979 494.67889214 C296.26345538 494.70663149 304.07150751 494.71889941 311.87976074 494.71653748 C319.14917729 494.71473542 326.41792575 494.74638905 333.68717325 494.79376847 C339.93619587 494.8330415 346.18500053 494.84908726 352.43414557 494.84717125 C356.1630457 494.84640764 359.89135184 494.85488455 363.62012863 494.8867054 C367.78086512 494.92124459 371.94011163 494.90748153 376.10095215 494.88938904 C377.94494347 494.91467682 377.94494347 494.91467682 379.82618713 494.94047546 C386.35880624 494.86826038 390.3514076 494.39794629 395.04078102 489.64282131 C397.35365174 486.70799254 397.65499665 484.05033674 397.63464355 480.33250427 C396.86037997 476.38304967 394.13751606 473.77820841 391.2088623 471.16062927 C388.88765786 470.00002705 387.49968416 470.01845437 384.91442871 469.98704529 C383.5826207 469.96681053 383.5826207 469.96681053 382.22390747 469.94616699 C381.26245819 469.93572861 380.30100891 469.92529022 379.3104248 469.91453552 C377.28437881 469.88159782 375.25833725 469.84838616 373.2322998 469.81492615 C370.03050793 469.76749401 366.82873417 469.72306642 363.62683105 469.68382263 C360.54200354 469.64412117 357.45754782 469.59257129 354.3729248 469.53953552 C353.41552399 469.53112137 352.45812317 469.52270721 351.47171021 469.51403809 C350.13044571 469.48907509 350.13044571 469.48907509 348.76208496 469.46360779 C347.97757965 469.45330032 347.19307434 469.44299286 346.38479614 469.43237305 C343.92524477 469.1252094 342.30807731 468.46657169 340.2088623 467.16062927 C338.64414998 464.03120462 338.51184273 460.54980704 339.2088623 457.16062927 C341.34299658 454.4539627 342.52172313 453.28359403 345.95857239 452.66856384 C347.01223495 452.67174622 348.06589752 452.67492859 349.15148926 452.6782074 C350.34985916 452.67139954 351.54822906 452.66459167 352.78291321 452.65757751 C354.07460922 452.66889709 355.36630524 452.68021667 356.69714355 452.69187927 C358.04230245 452.68704977 359.38745483 452.67989297 360.73258972 452.67051697 C365.71649831 452.64091225 370.70013075 452.65402087 375.68408203 452.66569519 C379.895418 452.67392745 384.10612607 452.66583799 388.31737328 452.63656616 C390.28424758 452.62951513 392.2511611 452.64636377 394.2179718 452.66368103 C401.08741876 452.62496169 405.68057636 452.40010935 411.2088623 448.16062927 C414.12782221 444.77086938 414.80040035 441.64431052 414.6307373 437.15672302 C413.85496816 433.4861857 411.90067534 431.73008717 409.2088623 429.16062927 C406.27156803 427.37565886 404.10585854 426.91078612 400.68737793 426.90525818 C399.35579651 426.89481979 399.35579651 426.89481979 397.99731445 426.88417053 C397.04618774 426.88516754 396.09506104 426.88616455 395.1151123 426.88719177 C393.09557545 426.86690874 391.07604424 426.84605807 389.05651855 426.82469177 C385.87661979 426.80205904 382.69694349 426.78560739 379.51696777 426.7797699 C376.44510858 426.77026391 373.37424832 426.73651644 370.3026123 426.69969177 C369.3514856 426.70473724 368.40035889 426.70978271 367.42041016 426.71498108 C360.83055752 426.61652353 360.83055752 426.61652353 357.60900879 424.25413513 C355.22453691 420.68886114 355.73969849 418.38310362 356.2088623 414.16062927 C357.75224322 411.98586526 358.84551504 411.34230291 361.2088623 410.16062927 C363.11719744 410.05593264 365.02913847 410.01461369 366.94030762 410.00291443 C368.7429306 409.98752121 368.7429306 409.98752121 370.58197021 409.97181702 C372.53970367 409.96086502 372.53970367 409.96086502 374.5369873 409.94969177 C375.88739847 409.93672808 377.23780169 409.922912 378.5881958 409.90827942 C384.32675009 409.84669948 390.06528453 409.792707 395.80407715 409.75926208 C399.31437836 409.73825387 402.82429358 409.70289788 406.33437347 409.65850449 C408.3161548 409.63754431 410.29808233 409.63230493 412.27996826 409.62733459 C413.49432556 409.61076813 414.70868286 409.59420166 415.95983887 409.57713318 C417.02414124 409.56904633 418.0884436 409.56095947 419.18499756 409.55262756 C423.71294259 408.96564803 427.10023532 407.45402742 430.0838623 403.97312927 C431.55932327 400.28447685 431.8631259 397.04056454 431.2088623 393.16062927 C429.80374246 389.92274441 428.6668578 387.91931019 425.47079468 386.25621033 C418.51344325 383.77175744 411.85907343 383.73644329 404.5291748 383.75437927 C402.55897174 383.73782566 400.58876864 383.72125588 398.61857414 383.70371246 C394.4925941 383.67167307 390.36649746 383.66578509 386.24041748 383.65531921 C382.82099017 383.64564262 379.40182326 383.63026211 375.98251343 383.59971619 C373.42621614 383.5781422 370.86976583 383.56984011 368.31338501 383.57603455 C367.16143646 383.56592346 366.00948792 383.55581238 364.82263184 383.5453949 C363.80831085 383.54334045 362.79398987 383.54128601 361.74893188 383.53916931 C359.2088623 383.16062927 359.2088623 383.16062927 357.38290405 381.77134705 C355.83508087 379.64782263 355.80777585 378.26927503 355.8338623 375.66062927 C355.82612793 374.88719177 355.81839355 374.11375427 355.8104248 373.31687927 C356.30773537 370.62555151 357.02627209 369.78028898 359.2088623 368.16062927 C362.29273899 367.17323685 365.11503543 367.03631924 368.34118652 367.03465271 C369.87330276 367.02894257 369.87330276 367.02894257 371.43637085 367.02311707 C373.08332443 367.02157623 373.08332443 367.02157623 374.7635498 367.02000427 C377.0929867 367.00168033 379.42241406 366.9821104 381.75183105 366.96141052 C385.42110327 366.93241801 389.08976096 366.91062849 392.75915527 366.91014099 C396.30284032 366.90680733 399.8451104 366.87226562 403.3885498 366.83250427 C404.4824704 366.83957397 405.57639099 366.84664368 406.70346069 366.85392761 C413.26334862 366.80101334 413.26334862 366.80101334 418.85778809 363.73191833 C422.43556976 359.81902149 423.25590651 358.64252188 423.0838623 353.22312927 C422.45863923 349.27319056 421.11647688 346.98516914 418.2088623 344.16062927 C415.30764754 342.42098242 413.1727522 341.90863959 409.80651855 341.89561462 C408.4943335 341.88320488 408.4943335 341.88320488 407.15563965 341.87054443 C405.72792236 341.87201729 405.72792236 341.87201729 404.2713623 341.8735199 C403.26283203 341.86668686 402.25430176 341.85985382 401.21520996 341.85281372 C399.02610503 341.83922745 396.83696837 341.83017306 394.64782715 341.82510376 C391.18498646 341.81682217 387.72241041 341.79632443 384.25964355 341.77256775 C376.90942231 341.72432294 369.5591748 341.69139123 362.2088623 341.66062927 C353.69233925 341.62498658 345.17594577 341.58311639 336.6595459 341.52468872 C333.24497784 341.50459184 329.83050849 341.49629514 326.41589355 341.48838806 C324.32604613 341.47541781 322.23620201 341.46189782 320.1463623 341.44773865 C318.71864502 341.4492115 318.71864502 341.4492115 317.26208496 341.45071411 C316.38729492 341.44244095 315.51250488 341.43416779 314.61120605 341.42564392 C313.47413208 341.42124424 313.47413208 341.42124424 312.31408691 341.41675568 C309.84763929 341.11668206 308.28486226 340.52545334 306.2088623 339.16062927 C304.84037139 335.86381026 303.88483325 333.46359118 304.7635498 329.93016052 C306.87545143 325.88330039 309.75779068 322.62435576 312.7088623 319.16062927 C313.97482072 317.65027987 315.23912875 316.13854569 316.50183105 314.62547302 C317.44034912 313.50181335 317.44034912 313.50181335 318.39782715 312.35545349 C321.00555331 309.19510594 323.52804591 305.97414511 326.0213623 302.72312927 C327.20665527 301.17818787 327.20665527 301.17818787 328.41589355 299.60203552 C331.14499339 295.88594097 331.74430531 293.8011353 331.2088623 289.16062927 C328.72413396 285.17000496 327.24137267 283.47406992 322.7088623 282.09812927 C316.59430759 282.20731775 313.31436619 285.81272815 309.18933105 290.02000427 Z " fill="#000000" transform="translate(62.7911376953125,-0.1606292724609375)"/>
</svg>
